<svg id="Layer_1" data-name="Layer 1" xmlns="http://www.w3.org/2000/svg" viewBox="0 0 128 128"><defs><style>.cls-1{fill:#aeac8f;}.cls-1,.cls-2,.cls-3,.cls-4,.cls-5,.cls-6{fill-rule:evenodd;}.cls-2{fill:#d9d3c2;}.cls-3{fill:#99bcb3;}.cls-4{fill:#eabf8f;}.cls-5{fill:#cfded9;}.cls-6{fill:#4f471a;}</style></defs><path class="cls-1" d="M106.19,51.87c1.77-.38,3-1.29,4.55-.75a8.9,8.9,0,0,1,.85,4.55c-.07,3.75,0,7.5,0,11.25a6.49,6.49,0,0,0,.32,1.67,3.93,3.93,0,0,1,0,2.28c-2.62.35-5.14,1.19-7.82,1.44a16.64,16.64,0,0,0-4.84,1.49,27.74,27.74,0,0,1-5.34,1.58c-4.27.91-8.6.45-12.9.67-2.44.13-4.89-.1-7.3.54a9.93,9.93,0,0,1-2.19.12l-10,.25c-.4,0-.79,0-1.32-.08-.34-1.28-.75-2.52-1-3.78-.29-1.6-.42-3.22-.64-4.83a9.71,9.71,0,0,0-.26-1.19,19.24,19.24,0,0,1-.82-5c0-1.21-.75-2.35-.4-3.59.4-.48.91-.32,1.37-.24a24.83,24.83,0,0,0,9.45-.11c1.43-.3,2.89-.2,4.35-.54,3-.69,6-1,9.24-1.55a4.68,4.68,0,0,1-.07,1.13c-1,3.19-.2,6.16,1.28,8.94a8.74,8.74,0,0,0,4.19,3.64c1.55.72,3.1,1.45,4.71,2a6.52,6.52,0,0,0,2.64.29c2.35-.18,4.71-.43,7-.75a8.8,8.8,0,0,0,2.3-.78c.74-.32,1.43-.76,2.15-1.14a5,5,0,0,0,2.48-2.6,23.94,23.94,0,0,0,1.2-4.71,21.32,21.32,0,0,0,0-3.91,8,8,0,0,0-1.58-4C107.36,53.43,106.87,52.8,106.19,51.87ZM80.82,68.44l-1.49,0c-1.89,0-2.3.3-2.39,2.11A8.79,8.79,0,0,0,77,72a1.23,1.23,0,0,0,1.28,1.19,4.57,4.57,0,0,0,3.51-1.27A4.09,4.09,0,0,0,80.82,68.44Z"/><path class="cls-2" d="M57.22,56.49a10.47,10.47,0,0,1-.35-3.67,5.33,5.33,0,0,1,.5-3.32,2.84,2.84,0,0,0,.27-1.18c.18-1.75,1.46-2.45,2.87-3,1.07-.39,2.2-.61,3.26-1a9.31,9.31,0,0,1,3.61-.58,41,41,0,0,0,9.23-.89c2-.38,4-.45,6-.89,1.65-.37,3.33-.61,5-1.1a40.18,40.18,0,0,1,6.5-1c1.45-.18,2.91-.25,4.37-.35a6.14,6.14,0,0,1,1.21.06c1.84.27,3.68.53,5.51.86,1,.18,1.88.51,2.83.76a3.39,3.39,0,0,1,2.57,3,19.5,19.5,0,0,1,.07,5c-1.65.45-3.14.84-4.6,1.26a1.58,1.58,0,0,1-1.61-.27c-1.6-1.51-3.7-2-5.61-2.92a3.79,3.79,0,0,0-1.62-.45,30.8,30.8,0,0,0-7.54.7,4.67,4.67,0,0,0-2.15,1.08A23.77,23.77,0,0,0,83.4,53,2.72,2.72,0,0,1,81,54.45a18.14,18.14,0,0,0-2.36.52c-2.08.37-4.15.71-6.23,1.07-1.91.32-3.81.76-5.74,1C63.53,57.29,60.36,57.52,57.22,56.49Zm4.15-8.62a3,3,0,0,0-.24.69,6.21,6.21,0,0,0,.09,1.22c.22,1.19.5,2.38.71,3.58.31,1.77.4,1.87,2.17,1.88.24,0,.49,0,.73,0,1.57.13,3.07-.52,4.59-.54A9.22,9.22,0,0,0,74,53.16a2.11,2.11,0,0,0,1.11-2.47c-.18-1-.39-1.91-.58-2.87s-.59-1.43-1.63-1.46c-1.63,0-3.27,0-4.9.06a17.8,17.8,0,0,0-2.88.46C63.92,47.15,62.76,47.5,61.37,47.87Z"/><path class="cls-3" d="M103.68,67.81A3.19,3.19,0,0,1,101,69.28c-2,.25-4,.42-6.06.64a6.18,6.18,0,0,1-3.77-.66,18.83,18.83,0,0,0-2.7-1.14c-5.08-1.82-6.93-8.62-4-13.05a40,40,0,0,1,4.31-5.26,4.68,4.68,0,0,1,4.58-1.69,2.7,2.7,0,0,0,.49,0,13,13,0,0,1,6.55,1.49,10.63,10.63,0,0,1,4,3.09,2.79,2.79,0,0,0,.3.38c3.76,3.56,3.37,7.83,2,12.22a3.28,3.28,0,0,1-3.19,2.56A9.22,9.22,0,0,0,105.41,66c1.17-2.2,1.87-4.52.85-7a6.16,6.16,0,0,1-.32-1.17,6.76,6.76,0,0,0-3.37-4.57,18.76,18.76,0,0,1-2-1.36,4.48,4.48,0,0,0-3.13-1.13,3,3,0,0,1-2.09-.45.94.94,0,0,0-.69-.16c-1.41.33-2.9.42-4.12,1.37a9.93,9.93,0,0,0-3.83,6.81A7.9,7.9,0,0,0,89,65.47,11.28,11.28,0,0,0,97.08,69C101,68.89,101,68.92,103.68,67.81Z"/><path class="cls-4" d="M57.56,75.27a2.85,2.85,0,0,1,.7,2.35c-1.49,1.06-3,2.09-4.51,3.23a52.7,52.7,0,0,1-4.54,3.23c-.9.56-1.9.93-2.8,1.48q-3.1,1.92-6.15,3.94c-1.62,1.07-3.51,1.26-5.33,1.61a53,53,0,0,1-10,.62,20.8,20.8,0,0,1-7.23-1,33.36,33.36,0,0,1-3.07-1.49c-2.26-1.11-4.51-2.26-6.79-3.34a10.75,10.75,0,0,1-4.38-3.77A2.54,2.54,0,0,1,3,80.82,8.49,8.49,0,0,1,4.9,75.19c0,1,.14,1.77.1,2.47-.19,3,1.42,5.1,3.5,6.9a15.47,15.47,0,0,0,2.72,1.64,1.28,1.28,0,0,0,.91.21c1-.45,1.74.06,2.55.37,1.89.74,3.71,1.66,5.64,2.23a18,18,0,0,0,4.8.66c3.18.06,6.36-.08,9.54-.14a9,9,0,0,0,4.43-1.19c1.6-.93,3.39-1.54,4.72-3a4.89,4.89,0,0,1,2.09-1.19A7.8,7.8,0,0,0,49,81.87a45.07,45.07,0,0,1,6.94-5.76C56.39,75.8,56.93,75.6,57.56,75.27Z"/><path class="cls-4" d="M7,76.16a2.26,2.26,0,0,1,.5-2.45A3.32,3.32,0,0,1,8.9,72.9c2-.78,4.11-1.55,6.18-2.27a9.91,9.91,0,0,1,2.14-.49C22.32,69.55,27.43,69,32.47,68a7.85,7.85,0,0,0,1-.22c1.7-.53,3.44-1,5.1-1.65a49,49,0,0,0,9.52-5,13.87,13.87,0,0,0,4.48-5.08c.54-1,1.21-1.93,1.85-2.88.07-.11.25-.15.51-.29a3.54,3.54,0,0,1-.35,2.94,26,26,0,0,1-3.63,4.24c-1.33,1.43-2.54,3-3.85,4.41a10.81,10.81,0,0,1-4.86,3.18,16.32,16.32,0,0,0-1.59.62A36.14,36.14,0,0,1,31,70.83c-1.6.22-3.16.69-4.74,1.06a6.23,6.23,0,0,1-1.42.38c-2.52,0-5,.88-7.51.7-1.3-.08-2.61,0-3.92,0a4.92,4.92,0,0,0-3.95,1.51A12.87,12.87,0,0,1,7,76.16Z"/><path class="cls-2" d="M60.62,78c3.45-.06,6.71-.08,10-.18,1.7-.06,3.4-.28,5.1-.42.9-.07,1.79-.15,2.68-.17,3.91-.1,7.82-.15,11.73-.25a26,26,0,0,0,8.56-1.72c1.44-.55,2.9-1,4.35-1.52a4.25,4.25,0,0,1,1.16-.34,39.17,39.17,0,0,0,6-1,4,4,0,0,1,1.45.06.73.73,0,0,1,.43.49.81.81,0,0,1-.18.66,3,3,0,0,1-1,.57c-3,.83-6,1.7-9,2.41-2,.49-4.17.72-6.24,1.14-3.3.67-6.67.46-10,.86s-6.35.14-9.45.94a5,5,0,0,1-1.22.1c-3.91.07-7.82.15-11.73.18C61.64,79.9,61.64,79.86,60.62,78Z"/><path class="cls-4" d="M113.12,47.83a11.84,11.84,0,0,1,2.81,2,35.4,35.4,0,0,1,3.26,2.95,28.91,28.91,0,0,1,3,4.43A22.32,22.32,0,0,1,123.74,61a4,4,0,0,1-.95,4.26,21.18,21.18,0,0,1-5.38,4.51c-.93.51-1.94.78-2.93,1.31a3.88,3.88,0,0,1-.4-2.38c.49-.79,1.27-.87,2-1.09,4.16-1.39,5-3.19,3.55-7.49a18.57,18.57,0,0,0-2.39-4.24,14,14,0,0,0-2.37-2.78C113.19,51.73,113.43,49.88,113.12,47.83Z"/><path class="cls-3" d="M82.82,39.63l-2,.19c-.12-.2-.26-.32-.27-.45,0-1.51,1.36-2.35,1.85-3.63.06-.18.38-.3.61-.37a19,19,0,0,1,5.22-1.13q3.3,0,6.61-.11A6,6,0,0,0,97,33.91a2.2,2.2,0,0,1,2.27.37,6.52,6.52,0,0,1,3.15,3.52c-.49-.08-.92-.11-1.33-.21a1.2,1.2,0,0,1-.61-.39c-1.4-1.76-3.33-1.81-5.33-1.73s-3.91.11-5.87.14a8.66,8.66,0,0,0-5.1,2.11A8.73,8.73,0,0,0,82.82,39.63Z"/><path class="cls-3" d="M70.53,41.68c-1.71.15-2.91.16-4.08.37s-2.16.64-3.29.26c-.34-1.29-.27-1.62.54-2A4.7,4.7,0,0,1,65.08,40a11.15,11.15,0,0,1,4.5.69C69.82,40.72,70,41.07,70.53,41.68Z"/><path class="cls-5" d="M98,37.75c-2.18.13-4.2.3-6.23.34a12.87,12.87,0,0,0-5.28.76,6.85,6.85,0,0,1-1.82.24c.34-.4.45-.65.64-.74a10.92,10.92,0,0,1,4.92-1.26c2.21,0,4.41-.08,6.62-.1C97.16,37,97.62,36.86,98,37.75Z"/><path class="cls-4" d="M79,71.22c-.16-1.5-.06-1.83.52-1.94a1,1,0,0,1,1.14.91C80.67,70.84,80.49,71,79,71.22Z"/><path class="cls-5" d="M73.31,47.72c.19,1.16.37,2.34.56,3.61A7.05,7.05,0,0,1,69.7,53a13.13,13.13,0,0,0-2.15.32,8.21,8.21,0,0,1-3.69,0c-.34-1.49-.69-3-1-4.44A17.76,17.76,0,0,1,73.31,47.72Z"/><path class="cls-5" d="M97.81,67.1c-2,.38-4.07-.54-6.16-1.78-4-2.37-4-8-2.13-10.54.3-.39.52-.84.83-1.21.88-1,1.87-1.83,3.35-1.58a4,4,0,0,0,.49,0,16.94,16.94,0,0,1,4.36.3,16.68,16.68,0,0,1,4,2.35,4.92,4.92,0,0,1,2.16,3.15,12.49,12.49,0,0,0,.52,1.88,5.05,5.05,0,0,1-.14,3.8,5.22,5.22,0,0,1-5.22,3.62Z"/><path class="cls-6" d="M58.72,79.7a49.94,49.94,0,0,0-5.66,4,19.24,19.24,0,0,1-3.88,2.51A32.54,32.54,0,0,0,44.59,89a21,21,0,0,1-4.15,2.52A22.11,22.11,0,0,1,35.53,93a63.28,63.28,0,0,1-10.48.79,22.93,22.93,0,0,1-13.47-3.69,45.46,45.46,0,0,0-4.24-2.42c-2.49-1.29-4-3.53-5.72-5.6a2.38,2.38,0,0,1-.46-1.58,12.11,12.11,0,0,1,.69-3.34,38.61,38.61,0,0,1,2.26-4.32A2.22,2.22,0,0,1,5,72.07a15.62,15.62,0,0,1,2-.92c2.74-1,5.49-2.05,8.25-3a9.34,9.34,0,0,1,1.91-.36c4.62-.52,9.24-1,13.8-1.92,1.5-.31,2.94-1,4.44-1.31,4.37-1,8.14-3.28,12-5.48a9,9,0,0,0,4-4.73A8.44,8.44,0,0,1,52.12,53c1.31-2.24,3-4.24,4-6.69a3.2,3.2,0,0,1,2.3-2,20,20,0,0,0,3-1.29c.05-.37.12-.76.14-1.15a3.17,3.17,0,0,1,3.12-3.35,13.4,13.4,0,0,1,6.59,1.1c.57.64.46,2,1.83,1.53.49-2.2.49-2.2,2-3a3.22,3.22,0,0,1,.69.59c.23.33.32.75.54,1.1a1.22,1.22,0,0,0,1.18.71,1.1,1.1,0,0,0,1.05-.88,16.15,16.15,0,0,1,2-4.17,3.32,3.32,0,0,1,2-1.68,19,19,0,0,1,6-1.23c1.79,0,3.59,0,5.38-.1A22.24,22.24,0,0,0,97,32.11a3.56,3.56,0,0,1,2.78.52A10.45,10.45,0,0,1,103,35.51c.62,1,2.06,1.2,2,2.67,2.27.36,3.88,1.78,5.64,2.92a2.69,2.69,0,0,1,1.15,1.53c.16.54.43,1.06.54,1.62A3.3,3.3,0,0,0,114,46.62c2.36,1.35,4,3.56,6.27,5.07a3.66,3.66,0,0,1,.83.88,29.89,29.89,0,0,1,4.22,8.24,5,5,0,0,1-.71,4.9c-2.64,3.27-5.69,6-10.13,6.83-.12.23-.26.52-.4.8a4.31,4.31,0,0,1-2.93,2.39c-3.77,1-7.49,2.28-11.31,3.09A51.48,51.48,0,0,1,88.2,80.35a15.59,15.59,0,0,0-4.85.46,8.81,8.81,0,0,1-2.19.15,17.08,17.08,0,0,0-4.61.46,6.92,6.92,0,0,1-1.94.14c-3.76.08-7.51.08-11.27.25a4.19,4.19,0,0,1-3.86-1.56A4.58,4.58,0,0,0,58.72,79.7Zm44.87-11.79a3.3,3.3,0,0,0,3.19-2.57c1.34-4.39,1.73-8.66-2-12.22a2.79,2.79,0,0,1-.3-.38,10.63,10.63,0,0,0-4-3.09,13,13,0,0,0-6.55-1.49,2.7,2.7,0,0,1-.49,0,4.68,4.68,0,0,0-4.58,1.69,40,40,0,0,0-4.31,5.26c-3,4.43-1.1,11.23,4,13.05a18.83,18.83,0,0,1,2.7,1.14,6.18,6.18,0,0,0,3.77.66c2-.22,4-.39,6.06-.64a3.19,3.19,0,0,0,2.65-1.47ZM7.93,81a20.86,20.86,0,0,0,6,3.67c1.66.67,3.33,1.28,5,2A19.41,19.41,0,0,0,27.47,88c2.19-.1,4.4-.1,6.6-.11a8.77,8.77,0,0,0,4.65-1.21c1.39-.84,3-1.38,4.1-2.61.31-.33.87-.43,1.26-.72,1.21-.92,2.68-1.41,3.8-2.57a36.24,36.24,0,0,1,9.5-7.42A64.83,64.83,0,0,0,56.21,66c-.66-2.47-.37-5.13-1.36-7.77l-3.64,4.16c-1.23,1.41-2.41,2.87-3.73,4.19a10.42,10.42,0,0,1-4.11,2.57c-.77.26-1.47.7-2.25.94-2.31.72-4.51,1.71-7,1.95A27.5,27.5,0,0,0,27,73.41a9.41,9.41,0,0,1-3.83.66,2.25,2.25,0,0,0-1,.07,12.25,12.25,0,0,1-4.58.51c-1.3,0-2.6,0-3.9.09a6.86,6.86,0,0,0-3.83,1.42C8.27,77.34,7.92,79.06,7.93,81Zm98.26-29.13c.68.93,1.17,1.56,1.62,2.22a8,8,0,0,1,1.58,4,21.32,21.32,0,0,1,0,3.91,23.94,23.94,0,0,1-1.2,4.71,5,5,0,0,1-2.48,2.6c-.72.38-1.41.82-2.15,1.14a8.8,8.8,0,0,1-2.3.78c-2.34.32-4.7.57-7,.75a6.52,6.52,0,0,1-2.64-.29c-1.61-.57-3.16-1.3-4.71-2a8.74,8.74,0,0,1-4.19-3.64c-1.48-2.78-2.29-5.75-1.28-8.94A4.68,4.68,0,0,0,81.5,56c-3.19.52-6.25.86-9.24,1.55-1.46.34-2.92.24-4.35.54a24.83,24.83,0,0,1-9.45.11c-.46-.08-1-.24-1.37.24-.35,1.24.42,2.38.4,3.59a19.24,19.24,0,0,0,.82,5,9.71,9.71,0,0,1,.26,1.19c.22,1.61.35,3.23.64,4.83.23,1.26.64,2.5,1,3.78.53,0,.92.09,1.32.08l10-.25a9.93,9.93,0,0,0,2.19-.12c2.41-.64,4.86-.41,7.3-.54,4.3-.22,8.63.24,12.9-.67a27.74,27.74,0,0,0,5.34-1.58,16.64,16.64,0,0,1,4.84-1.49c2.68-.25,5.2-1.09,7.82-1.44a3.93,3.93,0,0,0,0-2.28,6.49,6.49,0,0,1-.32-1.67c0-3.75-.1-7.5,0-11.25a8.9,8.9,0,0,0-.85-4.55C109.24,50.58,108,51.49,106.19,51.87Zm-49,4.62c3.14,1,6.31.8,9.45.5,1.93-.19,3.83-.63,5.74-1,2.08-.36,4.15-.7,6.23-1.07A18.14,18.14,0,0,1,81,54.45,2.72,2.72,0,0,0,83.4,53a23.77,23.77,0,0,1,4.15-4.47,4.67,4.67,0,0,1,2.15-1.08,30.8,30.8,0,0,1,7.54-.7,3.79,3.79,0,0,1,1.62.45c1.91.89,4,1.41,5.61,2.92a1.58,1.58,0,0,0,1.61.27c1.46-.42,3-.81,4.6-1.26a19.5,19.5,0,0,0-.07-5,3.39,3.39,0,0,0-2.57-3c-1-.25-1.87-.58-2.83-.76-1.83-.33-3.67-.59-5.51-.86a6.14,6.14,0,0,0-1.21-.06c-1.46.1-2.92.17-4.37.35a40.18,40.18,0,0,0-6.5,1c-1.65.49-3.33.73-5,1.1-2,.44-4,.51-6,.89a41,41,0,0,1-9.23.89,9.31,9.31,0,0,0-3.61.58c-1.06.39-2.19.61-3.26,1-1.41.52-2.69,1.22-2.87,3a2.84,2.84,0,0,1-.27,1.18,5.33,5.33,0,0,0-.5,3.32A10.47,10.47,0,0,0,57.22,56.49Zm.34,18.78c-.63.33-1.17.53-1.63.84A45.07,45.07,0,0,0,49,81.87a7.8,7.8,0,0,1-3.09,2.31,4.89,4.89,0,0,0-2.09,1.19c-1.33,1.43-3.12,2-4.72,3a9,9,0,0,1-4.43,1.19c-3.18.06-6.36.2-9.54.14a18,18,0,0,1-4.8-.66c-1.93-.57-3.75-1.49-5.64-2.23-.81-.31-1.59-.82-2.55-.37a1.28,1.28,0,0,1-.91-.21A15.47,15.47,0,0,1,8.5,84.56c-2.08-1.8-3.69-3.9-3.5-6.9,0-.7,0-1.42-.1-2.47A8.49,8.49,0,0,0,3,80.82a2.54,2.54,0,0,0,.5,1.33,10.75,10.75,0,0,0,4.38,3.77c2.28,1.08,4.53,2.23,6.79,3.34a33.36,33.36,0,0,0,3.07,1.49,20.8,20.8,0,0,0,7.23,1,53,53,0,0,0,10-.62c1.82-.35,3.71-.54,5.33-1.61q3-2,6.15-3.94c.9-.55,1.9-.92,2.8-1.48a52.7,52.7,0,0,0,4.54-3.23c1.46-1.14,3-2.17,4.51-3.23A2.85,2.85,0,0,0,57.56,75.27ZM7,76.16a12.87,12.87,0,0,0,2.47-1.68A4.92,4.92,0,0,1,13.37,73c1.31,0,2.62-.08,3.92,0,2.55.18,5-.71,7.51-.7a6.23,6.23,0,0,0,1.42-.38c1.58-.37,3.14-.84,4.74-1.06a36.14,36.14,0,0,0,9.65-2.52,16.32,16.32,0,0,1,1.59-.62,10.81,10.81,0,0,0,4.86-3.18c1.31-1.45,2.52-3,3.85-4.41a26,26,0,0,0,3.63-4.24,3.54,3.54,0,0,0,.35-2.94c-.26.14-.44.18-.51.29-.64.95-1.31,1.88-1.85,2.88a13.87,13.87,0,0,1-4.48,5.08,49,49,0,0,1-9.52,5c-1.66.66-3.4,1.12-5.1,1.65a7.85,7.85,0,0,1-1,.22c-5,1-10.15,1.53-15.25,2.12a9.91,9.91,0,0,0-2.14.49C13,71.35,11,72.12,8.9,72.9a3.32,3.32,0,0,0-1.45.81A2.26,2.26,0,0,0,7,76.16ZM60.62,78c1,1.84,1,1.88,2.66,1.86,3.91,0,7.82-.11,11.73-.18a5,5,0,0,0,1.22-.1c3.1-.8,6.3-.55,9.45-.94s6.66-.19,10-.86c2.07-.42,4.19-.65,6.24-1.14,3-.71,6-1.58,9-2.41a3,3,0,0,0,1-.57.81.81,0,0,0,.18-.66.73.73,0,0,0-.43-.49,4,4,0,0,0-1.45-.06,39.17,39.17,0,0,1-6,1,4.25,4.25,0,0,0-1.16.34c-1.45.5-2.91,1-4.35,1.52A26,26,0,0,1,90.09,77c-3.91.1-7.82.15-11.73.25-.89,0-1.78.1-2.68.17-1.7.14-3.4.36-5.1.42C67.33,77.94,64.07,78,60.62,78Zm52.5-30.19c.31,2.05.07,3.9,1.7,5.31a14,14,0,0,1,2.37,2.78,18.57,18.57,0,0,1,2.39,4.24c1.4,4.3.61,6.1-3.55,7.49-.68.22-1.46.3-2,1.09a3.88,3.88,0,0,0,.4,2.38c1-.53,2-.8,2.93-1.31a21.18,21.18,0,0,0,5.38-4.51,4,4,0,0,0,.95-4.26,22.32,22.32,0,0,0-1.56-3.85,28.91,28.91,0,0,0-3-4.43,35.4,35.4,0,0,0-3.26-2.95A11.84,11.84,0,0,0,113.12,47.83Zm.38,18.88a8.79,8.79,0,0,0,3.79-1.17A2.29,2.29,0,0,0,118.64,63a9.69,9.69,0,0,0-.53-2.6,19.42,19.42,0,0,0-4.34-6.11c-.16.31-.34.51-.35.71C113.23,58.85,113.46,62.72,113.5,66.71ZM82.82,39.63a8.73,8.73,0,0,1,1.38-1.91,8.66,8.66,0,0,1,5.1-2.11c2,0,3.92-.06,5.87-.14s3.93,0,5.33,1.73a1.2,1.2,0,0,0,.61.39c.41.1.84.13,1.33.21a6.52,6.52,0,0,0-3.15-3.52A2.2,2.2,0,0,0,97,33.91a6,6,0,0,1-2.17.22q-3.31.07-6.61.11A19,19,0,0,0,83,35.37c-.23.07-.55.19-.61.37-.49,1.28-1.85,2.12-1.85,3.63,0,.13.15.25.27.45Zm-12.29,2c-.55-.61-.71-1-1-1a11.15,11.15,0,0,0-4.5-.69,4.7,4.7,0,0,0-1.38.37c-.81.36-.88.69-.54,2,1.13.38,2.19-.05,3.29-.26S68.82,41.83,70.53,41.68ZM98,37.75c-.33-.89-.79-.77-1.15-.76-2.21,0-4.41.11-6.62.1a10.92,10.92,0,0,0-4.92,1.26c-.19.09-.3.34-.64.74a6.85,6.85,0,0,0,1.82-.24,12.87,12.87,0,0,1,5.28-.76C93.75,38.05,95.77,37.88,98,37.75Z"/><path class="cls-6" d="M80.82,68.44a4.09,4.09,0,0,1,1,3.43,4.57,4.57,0,0,1-3.51,1.27A1.23,1.23,0,0,1,77,72a8.79,8.79,0,0,1,0-1.45c.09-1.81.5-2.16,2.39-2.11ZM79,71.22c1.54-.27,1.72-.38,1.66-1a1,1,0,0,0-1.14-.91C78.89,69.39,78.79,69.72,79,71.22Z"/><path class="cls-6" d="M61.37,47.87c1.39-.37,2.55-.72,3.73-1A17.8,17.8,0,0,1,68,46.42c1.63-.09,3.27-.1,4.9-.06,1,0,1.43.45,1.63,1.46s.4,1.91.58,2.87A2.11,2.11,0,0,1,74,53.16a9.22,9.22,0,0,1-4.56,1.53c-1.52,0-3,.67-4.59.54-.24,0-.49,0-.73,0-1.77,0-1.86-.11-2.17-1.88-.21-1.2-.49-2.39-.71-3.58a6.21,6.21,0,0,1-.09-1.22A3,3,0,0,1,61.37,47.87Zm11.94-.15a17.76,17.76,0,0,0-10.47,1.19c.33,1.47.68,3,1,4.44a8.21,8.21,0,0,0,3.69,0A13.13,13.13,0,0,1,69.7,53a7.05,7.05,0,0,0,4.17-1.71C73.68,50.06,73.5,48.88,73.31,47.72Z"/><path class="cls-6" d="M103.68,67.81C101,68.92,101,68.89,97.08,69A11.28,11.28,0,0,1,89,65.47a7.9,7.9,0,0,1-2.33-7.12,9.93,9.93,0,0,1,3.83-6.81c1.22-.95,2.71-1,4.12-1.37a.94.94,0,0,1,.69.16,3,3,0,0,0,2.09.45,4.48,4.48,0,0,1,3.13,1.13,18.76,18.76,0,0,0,2,1.36,6.76,6.76,0,0,1,3.37,4.57,6.16,6.16,0,0,0,.32,1.17c1,2.49.32,4.81-.85,7a9.22,9.22,0,0,1-1.82,1.88Zm-5.87-.71,2,0a5.22,5.22,0,0,0,5.22-3.62,5.05,5.05,0,0,0,.14-3.8,12.49,12.49,0,0,1-.52-1.88,4.92,4.92,0,0,0-2.16-3.15,16.68,16.68,0,0,0-4-2.35,16.94,16.94,0,0,0-4.36-.3,4,4,0,0,1-.49,0c-1.48-.25-2.47.56-3.35,1.58-.31.37-.53.82-.83,1.21-1.91,2.51-1.87,8.17,2.13,10.54C93.74,66.56,95.86,67.48,97.81,67.1Z"/></svg>