<svg id="Layer_1" data-name="Layer 1" xmlns="http://www.w3.org/2000/svg" viewBox="0 0 128 128"><defs><style>.cls-1{fill:#efb59a;}.cls-1,.cls-2,.cls-3,.cls-4,.cls-5,.cls-6,.cls-7,.cls-8{fill-rule:evenodd;}.cls-2{fill:#dfb298;}.cls-3{fill:#e1c16d;}.cls-4{fill:#d2a487;}.cls-5{fill:#f8ead3;}.cls-6{fill:#e2867b;}.cls-7{fill:#74bcc5;}.cls-8{fill:#4f471a;}</style></defs><path class="cls-1" d="M120.13,78.1A24.8,24.8,0,0,1,119,86.29a12.42,12.42,0,0,0-.42,4.1,9.67,9.67,0,0,1-1.11,4.73,3.47,3.47,0,0,0-.18.33c-2.9,7.6-8.88,12.07-15.91,15.29a86.09,86.09,0,0,1-12,4.51c-5.35,1.56-10.83,2.37-16.42,1.13-2.09-.46-4.24-.65-6.35-1-5.44-.85-10.34-3.13-15.07-5.82a12.28,12.28,0,0,1-3.18-2.65c-3.33-3.94-6.69-7.87-9.79-12a47.19,47.19,0,0,1-6-11.73,24.64,24.64,0,0,1-1.69-8.86c0-1.89-.05-3.78-.05-5.67a90,90,0,0,1,.47-9.42c.31-3.07.58-6,2.76-8.31,1.09-3.79,3.73-6.49,6.41-9.17,1.15-1.15,2.17-2.42,3.28-3.61a17.61,17.61,0,0,1,9.67-5.44,6.3,6.3,0,0,0,1.72-.77c4.77-2.81,10.13-3.77,15.44-4.79a10.66,10.66,0,0,1,6,.23,6.47,6.47,0,0,0,2.61.23,38.41,38.41,0,0,1,8.62.89,12,12,0,0,1,2.91.82c7,3.25,13.57,7.27,18.53,13.36A26.23,26.23,0,0,1,113,49.17c1.9,4.65,4.33,9.1,5.69,14a12.08,12.08,0,0,1,.54,2.19C119.53,69.59,119.82,73.84,120.13,78.1ZM79,110.49v0c3,0,6,0,9.08,0a10.49,10.49,0,0,0,4.43-.79,72,72,0,0,0,7.25-3.17,41.93,41.93,0,0,0,7.42-5.14,19.54,19.54,0,0,0,6.26-9.67c.8-3.17,1.59-6.35,2.29-9.54a18.35,18.35,0,0,0,.52-4.1c0-4,.1-8-.85-12-.78-3.29-1.28-6.63-2.75-9.74a26.75,26.75,0,0,1-1.85-4.94,7.42,7.42,0,0,0-1.72-3.3c-2.21-2.41-4.47-4.78-6.73-7.14a22.14,22.14,0,0,0-11.53-6.1c-4.29-1-8.65-1.63-13-2.28a12.48,12.48,0,0,0-4.52.06,40.83,40.83,0,0,1-7.13.71,12.44,12.44,0,0,0-5.8,1.49c-4.58,2.66-9.16,5.29-13.69,8a6.45,6.45,0,0,0-2,2.21c-.78,1.29-1.37,2.69-2,4a8.91,8.91,0,0,1-1.05,2c-2.61,3-3.52,6.58-3.77,10.43-.08,1.25-.38,2.48-.57,3.72a38.23,38.23,0,0,0-.6,4.08c-.1,2.52-.07,5-.05,7.57a8.12,8.12,0,0,0,.22,2.62c1.89,5.29,2.82,11.05,7.31,15.09a14.69,14.69,0,0,1,1.08,1.55A11.3,11.3,0,0,0,47.11,98c4.18,3,8.34,6.09,12.63,9a18.84,18.84,0,0,0,12.1,3.57C74.23,110.35,76.63,110.49,79,110.49Z"/><path class="cls-2" d="M106.58,112.44c-3.52,2.38-6.41,4.32-9.82,5.37-4.57,1.4-9,3.17-13.85,3.7-6.6,2.41-13.48,1.32-20.24,1.34a15.44,15.44,0,0,1-8.29-2.25,4.11,4.11,0,0,0-1-.51c-4-1.06-6.9-4-10-6.43a38.33,38.33,0,0,1-2.91-2.93A66.33,66.33,0,0,1,29.71,97.64c-2.55-4.18-4.52-8.62-4.42-13.75.09-4.91-.06-9.83-.09-14.75a24.54,24.54,0,0,1,2.24-9.94c.29,2.91.65,5.32.73,7.75.09,2.77,0,5.54-.1,8.32a22.63,22.63,0,0,0,1.37,8.15,54.58,54.58,0,0,0,7.67,14.69c2.73,3.62,5.69,7.07,8.66,10.5a23.15,23.15,0,0,0,7.3,5.29c8.29,4.2,17.16,5.71,26.34,5.71a37.54,37.54,0,0,0,13-2.24c4.25-1.56,8.45-3.29,12.67-4.92A7.6,7.6,0,0,1,106.58,112.44Z"/><path class="cls-3" d="M29.84,44.61a24.68,24.68,0,0,1-11.31,1.51,10.79,10.79,0,0,1-7.22-3.61,14.26,14.26,0,0,1-4-9.13c-.44-5,.86-9.45,5.23-12.6,2.85-2.07,5.56-4.34,8.37-6.46,3.55-2.69,7.7-3.65,12-3.89,2.38-.13,4.79.09,7.18,0,3.8-.2,6.77,1.61,9.56,3.81A32.23,32.23,0,0,1,53.42,18a10.93,10.93,0,0,1,3,8.76,9.89,9.89,0,0,1-4.12,0c-1-2-1.92-3.75-2.93-5.47a4.3,4.3,0,0,0-1.6-1.51c-2.42-1.34-4.89-2.57-7.33-3.85a1.15,1.15,0,0,0-.34-.16c-4.5-.44-9-1.16-13.39.57A45.94,45.94,0,0,0,21,19.13,16.58,16.58,0,0,0,13,27.87c-1.66,4.61.24,10.82,5,12.82C21,41.9,24,42.58,27,43.61Z"/><path class="cls-4" d="M52.5,29.84a7.48,7.48,0,0,1-1.65.56c-2.77.25-4.94,1.67-7,3.37a33.7,33.7,0,0,0-6.16,6,27,27,0,0,1-3.22,3c1.49-5.25,4.45-8.35,8-10.95a15.74,15.74,0,0,1,9.8-2.78C52.35,29.35,52.42,29.59,52.5,29.84Z"/><path class="cls-5" d="M60.67,39.51a12.51,12.51,0,0,0,1.26,2,1.52,1.52,0,0,0,1.33.3c.24-.08.42-.84.32-1.22a8.25,8.25,0,0,0-.92-1.75,8.44,8.44,0,0,1,4.32-2c3.26-.82,6.54-1.67,10-1.05,4.7.85,9.44,1.45,14.11,2.4A21.27,21.27,0,0,1,100.75,43a35.81,35.81,0,0,1,10.91,16.05,52.42,52.42,0,0,1,2.77,10.16,42,42,0,0,1-.36,12.4c-1,5.6-3.83,10.36-6.31,15.3a11.76,11.76,0,0,1-3,3.32c-1.53,1.3-3.22,2.4-4.84,3.6a10.8,10.8,0,0,1-4,1.93,46.31,46.31,0,0,1-12.68,1.46,105.63,105.63,0,0,0-11,0,17.47,17.47,0,0,1-11.3-3.56c-3.82-2.66-7.6-5.39-11.37-8.11A10.46,10.46,0,0,1,48,94c-.41-.47-.62-1.14-1.08-1.54-4.19-3.62-5-8.9-6.69-13.72a8.75,8.75,0,0,1-.25-3c.1-5,.11-10.08.46-15.09a17.9,17.9,0,0,1,1.72-6.13,54.48,54.48,0,0,1,4.09-6.78A3.21,3.21,0,0,1,48.54,46a2.25,2.25,0,0,0,1.31-.58c2.14-2.07,4.81-3.11,7.53-4.12A27.42,27.42,0,0,0,60.67,39.51Zm31.89,56.9a3.27,3.27,0,0,0,2.23-3c.44-2.91-.6-5.49-1.75-8-2-4.28-2.59-8.93-4.11-13.32a7.27,7.27,0,0,1-.13-2.25c0-1,0-2,0-2.82a3.35,3.35,0,0,0-.27-.5c-3.39-3.18-6.71-6.43-10.19-9.51-2.91-2.58-6.16-4.76-8.89-7.59A25.47,25.47,0,0,0,66,46.86c-2.91,1-3.13,1.27-2.66,3.75,1.38,7.3,2.86,14.58,4.21,21.89a5.84,5.84,0,0,0,2,3.48c1.77,1.59,3.39,3.35,5.08,5,.79.8,1.52,1.68,2.37,2.41,3.35,2.87,6.75,5.68,10.11,8.52.76.65,1.44,1.39,2.22,2C90.36,94.83,91.47,95.61,92.56,96.41Zm-40.48-35c-.07-.23,0-.59-.2-.68a40.31,40.31,0,0,0-4.13-2.48c-.37-.17-1.2.25-1.6.62a1.58,1.58,0,0,0-.26,1.38A3.66,3.66,0,0,0,51.68,62C51.87,61.89,52,61.6,52.08,61.39Zm53.76-5.65A4,4,0,0,0,102,58.05a2.22,2.22,0,0,0,.12,1.73,1.42,1.42,0,0,0,2,.57,11.52,11.52,0,0,0,2.62-2,1.94,1.94,0,0,0,.26-1.68C106.76,56.19,106.08,55.93,105.84,55.74ZM70.43,95.32c-.57.23-1.13.27-1.41.57a31.81,31.81,0,0,0-2.28,2.89,1.49,1.49,0,0,0,2.2,2A4.88,4.88,0,0,0,70.43,95.32Zm-22.13-12c2.1.62,2.32.69,3,.28,1.13-.68,2.4-1.29,2.61-2.78a3,3,0,0,0-3.31-.55A3.51,3.51,0,0,0,48.3,83.35Zm40.5-37c1.34-.83,1.77-1.69,1.61-2.74a1.57,1.57,0,0,0-.79-1.09,1.7,1.7,0,0,0-1.33.25,1.45,1.45,0,0,0-.59,1.93A13.82,13.82,0,0,0,88.8,46.3Zm20.56,35.43a1.36,1.36,0,0,0-1.4-1.4,1.4,1.4,0,0,0-1.43,1.41,1.36,1.36,0,0,0,1.25,1.18A1.33,1.33,0,0,0,109.36,81.73ZM98.55,101.36c.4-.25.69-.32.8-.5a1.84,1.84,0,0,0-1.24-2.6c-.28-.05-.85.22-.89.42a2.82,2.82,0,0,0,0,1.73C97.49,100.86,98.15,101.09,98.55,101.36Z"/><path class="cls-6" d="M83.22,69.88c-3.76,2.26-8.09,2.8-11.93,4.61-.16.07-.46-.13-1-.29-1.91-7.62-3.22-15.51-4.94-23.87a23.47,23.47,0,0,1,2.22,1.43c2.1,1.8,4.13,3.67,6.24,5.45A27.89,27.89,0,0,1,79,62.64c1,1.45,2.2,2.76,3.33,4.11A3.45,3.45,0,0,1,83.22,69.88Z"/><path class="cls-7" d="M92.13,92.82l-9.82-8.46c-1.42-1.22-3-2.18-3.94-4-.36-.72-1.26-1.17-1.92-1.75a6.36,6.36,0,0,1-2.34-3.08c2-.61,3.94-1.1,5.81-1.76s3.7-1.47,5.69-2.27a12.7,12.7,0,0,1,1.83,4.54A50.29,50.29,0,0,0,91,87.14a21.61,21.61,0,0,1,1.13,3.19A11.64,11.64,0,0,1,92.13,92.82Z"/><path class="cls-8" d="M31.28,47.82c-1.67-.78-2.71-.11-3.72.27-3.55,1.32-7.21.86-10.84.77a5.4,5.4,0,0,1-1.81-.51A14.93,14.93,0,0,1,5.27,37.6a29.42,29.42,0,0,1-1-4.41A18.16,18.16,0,0,1,7.85,21.12a6.22,6.22,0,0,1,1.27-1.39c3.49-2.68,7-5.37,10.53-8,3.89-2.87,8.4-4,13.12-4.2,2.89-.15,5.8,0,8.7-.06a11,11,0,0,1,4.36,1c5.24,2.14,8.9,6.06,12.05,10.54a8.38,8.38,0,0,1,1.51,5c0,.87,0,1.73,0,2.9,1.62-.38,2.94-.65,4.24-1a42.73,42.73,0,0,1,13.43-1.8c7.1.41,14,1.68,20.18,5.49,4.41,2.7,8.73,5.47,12.31,9.3a38.28,38.28,0,0,1,7.28,11.82c.67,1.63,1.38,3.24,2,4.87.42,1,.73,2.13,1.16,3.17,1.47,3.63,2.65,7.31,2.29,11.31,1.29,4.32.5,8.76.72,13.14a2.77,2.77,0,0,1-.11,1.12c-1.42,3.7-1.38,7.65-2.1,11.46a15.42,15.42,0,0,1-4.09,7.55,32.64,32.64,0,0,0-5,7.47,14,14,0,0,1-6.76,6.29,79,79,0,0,1-10.14,4.09c-5.15,1.69-10.5,2.51-15.72,3.88a3.94,3.94,0,0,1-1.12.13c-5.17,0-10.34,0-15.51-.15-1.35,0-2.69-.68-4,.18-.23.15-.72-.06-1.07-.14s-1-.29-1.44-.45c-2.34-.77-5-.95-6.69-3.06a46.59,46.59,0,0,1-13-11.18,3.84,3.84,0,0,0-.5-.56c-3.26-2.69-5.14-6.5-7.84-9.64a20.34,20.34,0,0,1-3.26-6.28c-1.24-3.14-2.32-6.33-2.14-9.86.24-4.65.06-9.33.24-14A55,55,0,0,1,23.6,63a14,14,0,0,1,3.49-7.39C29.07,53.43,30,50.63,31.28,47.82ZM120.13,78.1c-.31-4.26-.6-8.51-.94-12.77a12.08,12.08,0,0,0-.54-2.19c-1.36-4.87-3.79-9.32-5.69-14a26.23,26.23,0,0,0-3.83-6.49c-5-6.09-11.49-10.11-18.53-13.36a12,12,0,0,0-2.91-.82,38.41,38.41,0,0,0-8.62-.89,6.47,6.47,0,0,1-2.61-.23,10.66,10.66,0,0,0-6-.23c-5.31,1-10.67,2-15.44,4.79a6.3,6.3,0,0,1-1.72.77,17.61,17.61,0,0,0-9.67,5.44c-1.11,1.19-2.13,2.46-3.28,3.61-2.68,2.68-5.32,5.38-6.41,9.17-2.18,2.36-2.45,5.24-2.76,8.31a90,90,0,0,0-.47,9.42c0,1.89.06,3.78.05,5.67a24.64,24.64,0,0,0,1.69,8.86,47.19,47.19,0,0,0,6,11.73c3.1,4.13,6.46,8.06,9.79,12a12.28,12.28,0,0,0,3.18,2.65c4.73,2.69,9.63,5,15.07,5.82,2.11.34,4.26.53,6.35,1,5.59,1.24,11.07.43,16.42-1.13a86.09,86.09,0,0,0,12-4.51c7-3.22,13-7.69,15.91-15.29a3.47,3.47,0,0,1,.18-.33,9.67,9.67,0,0,0,1.11-4.73,12.42,12.42,0,0,1,.42-4.1A24.8,24.8,0,0,0,120.13,78.1ZM49.29,26.57c-1-1.68-1.4-3.39-2.5-4.18-3.21-2.34-6.51-4.52-10.84-4.61-4.12-.09-8,.31-11.46,2.72-.71.5-1.6.75-2.33,1.23-2.66,1.74-4.94,3.82-6.1,6.92a7.17,7.17,0,0,0,4.08,9.53q4.7,1.89,9.49,3.57a7,7,0,0,0,2.2,0,20.76,20.76,0,0,0,1.28-2.38,20.66,20.66,0,0,1,6.43-8.23c2.18-1.84,4.48-3.65,7.61-3.68C47.71,27.49,48.27,27,49.29,26.57Zm57.29,85.87a7.6,7.6,0,0,0-1.53,0c-4.22,1.63-8.42,3.36-12.67,4.92a37.54,37.54,0,0,1-13,2.24c-9.18,0-18-1.51-26.34-5.71a23.15,23.15,0,0,1-7.3-5.29c-3-3.43-5.93-6.88-8.66-10.5a54.58,54.58,0,0,1-7.67-14.69,22.63,22.63,0,0,1-1.37-8.15c.07-2.78.19-5.55.1-8.32-.08-2.43-.44-4.84-.73-7.75a24.54,24.54,0,0,0-2.24,9.94c0,4.92.18,9.84.09,14.75-.1,5.13,1.87,9.57,4.42,13.75a66.33,66.33,0,0,0,10.72,13.09,38.33,38.33,0,0,0,2.91,2.93c3.14,2.45,6,5.37,10,6.43a4.11,4.11,0,0,1,1,.51,15.44,15.44,0,0,0,8.29,2.25c6.76,0,13.64,1.07,20.24-1.34,4.81-.53,9.28-2.3,13.85-3.7C100.17,116.76,103.06,114.82,106.58,112.44ZM29.84,44.61l-2.85-1c-3-1-6-1.71-8.94-2.92-4.78-2-6.68-8.21-5-12.82A16.58,16.58,0,0,1,21,19.13a45.94,45.94,0,0,1,5.78-2.8c4.37-1.73,8.89-1,13.39-.57a1.15,1.15,0,0,1,.34.16c2.44,1.28,4.91,2.51,7.33,3.85a4.3,4.3,0,0,1,1.6,1.51c1,1.72,1.89,3.51,2.93,5.47a9.89,9.89,0,0,0,4.12,0,10.93,10.93,0,0,0-3-8.76,32.23,32.23,0,0,0-3.73-3.75c-2.79-2.2-5.76-4-9.56-3.81-2.39.13-4.8-.09-7.18,0-4.33.24-8.48,1.2-12,3.89-2.81,2.12-5.52,4.39-8.37,6.46-4.37,3.15-5.67,7.61-5.23,12.6a14.26,14.26,0,0,0,4,9.13,10.79,10.79,0,0,0,7.22,3.61A24.68,24.68,0,0,0,29.84,44.61ZM52.5,29.84c-.08-.25-.15-.49-.22-.74a15.74,15.74,0,0,0-9.8,2.78c-3.57,2.6-6.53,5.7-8,11a27,27,0,0,0,3.22-3,33.7,33.7,0,0,1,6.16-6c2.07-1.7,4.24-3.12,7-3.37A7.48,7.48,0,0,0,52.5,29.84Z"/><path class="cls-8" d="M79,110.49c-2.4,0-4.8-.14-7.19,0a18.84,18.84,0,0,1-12.1-3.57c-4.29-2.87-8.45-5.93-12.63-9a11.3,11.3,0,0,1-1.84-1.88,14.69,14.69,0,0,0-1.08-1.55c-4.49-4-5.42-9.8-7.31-15.09a8.12,8.12,0,0,1-.22-2.62c0-2.53,0-5,.05-7.57a38.23,38.23,0,0,1,.6-4.08c.19-1.24.49-2.47.57-3.72C38.13,57.62,39,54,41.65,51a8.91,8.91,0,0,0,1.05-2c.68-1.34,1.27-2.74,2-4a6.45,6.45,0,0,1,2-2.21c4.53-2.73,9.11-5.36,13.69-8a12.44,12.44,0,0,1,5.8-1.49,40.83,40.83,0,0,0,7.13-.71,12.48,12.48,0,0,1,4.52-.06c4.35.65,8.71,1.31,13,2.28a22.14,22.14,0,0,1,11.53,6.1c2.26,2.36,4.52,4.73,6.73,7.14a7.42,7.42,0,0,1,1.72,3.3,26.75,26.75,0,0,0,1.85,4.94c1.47,3.11,2,6.45,2.75,9.74.95,4,.81,8,.85,12a18.35,18.35,0,0,1-.52,4.1c-.7,3.19-1.49,6.37-2.29,9.54a19.54,19.54,0,0,1-6.26,9.67,41.93,41.93,0,0,1-7.42,5.14,72,72,0,0,1-7.25,3.17,10.49,10.49,0,0,1-4.43.79c-3,0-6.06,0-9.08,0Zm-18.36-71a27.42,27.42,0,0,1-3.29,1.79c-2.72,1-5.39,2.05-7.53,4.12a2.25,2.25,0,0,1-1.31.58,3.21,3.21,0,0,0-2.34,1.75,54.48,54.48,0,0,0-4.09,6.78,17.9,17.9,0,0,0-1.72,6.13c-.35,5-.36,10.06-.46,15.09a8.75,8.75,0,0,0,.25,3c1.7,4.82,2.5,10.1,6.69,13.72.46.4.67,1.07,1.08,1.54a10.46,10.46,0,0,0,1.62,1.57c3.77,2.72,7.55,5.45,11.37,8.11a17.47,17.47,0,0,0,11.3,3.56,105.63,105.63,0,0,1,11,0,46.31,46.31,0,0,0,12.68-1.46,10.8,10.8,0,0,0,4-1.93c1.62-1.2,3.31-2.3,4.84-3.6a11.76,11.76,0,0,0,3-3.32c2.48-4.94,5.32-9.7,6.31-15.3a42,42,0,0,0,.36-12.4,52.42,52.42,0,0,0-2.77-10.16A35.81,35.81,0,0,0,100.75,43a21.27,21.27,0,0,0-9.67-4.85c-4.67-.95-9.41-1.55-14.11-2.4-3.45-.62-6.73.23-10,1.05a8.44,8.44,0,0,0-4.32,2,8.25,8.25,0,0,1,.92,1.75c.1.38-.08,1.14-.32,1.22a1.52,1.52,0,0,1-1.33-.3A12.51,12.51,0,0,1,60.67,39.51Z"/><path class="cls-8" d="M92.56,96.41c-1.09-.8-2.2-1.58-3.25-2.44-.78-.62-1.46-1.36-2.22-2-3.36-2.84-6.76-5.65-10.11-8.52-.85-.73-1.58-1.61-2.37-2.41-1.69-1.7-3.31-3.46-5.08-5a5.84,5.84,0,0,1-2-3.48c-1.35-7.31-2.83-14.59-4.21-21.89-.47-2.48-.25-2.72,2.66-3.75a25.47,25.47,0,0,1,3.48,2.61c2.73,2.83,6,5,8.89,7.59,3.48,3.08,6.8,6.33,10.19,9.51a3.35,3.35,0,0,1,.27.5c0,.82,0,1.82,0,2.82a7.27,7.27,0,0,0,.13,2.25c1.52,4.39,2.16,9,4.11,13.32,1.15,2.51,2.19,5.09,1.75,8A3.27,3.27,0,0,1,92.56,96.41ZM83.22,69.88a3.45,3.45,0,0,0-.88-3.13C81.21,65.4,80,64.09,79,62.64a27.89,27.89,0,0,0-5.2-5.43c-2.11-1.78-4.14-3.65-6.24-5.45a23.47,23.47,0,0,0-2.22-1.43c1.72,8.36,3,16.25,4.94,23.87.54.16.84.36,1,.29C75.13,72.68,79.46,72.14,83.22,69.88Zm8.91,22.94a11.64,11.64,0,0,0,0-2.49A21.61,21.61,0,0,0,91,87.14a50.29,50.29,0,0,1-3.53-11.07,12.7,12.7,0,0,0-1.83-4.54c-2,.8-3.81,1.61-5.69,2.27S76.13,75,74.11,75.56a6.36,6.36,0,0,0,2.34,3.08c.66.58,1.56,1,1.92,1.75.9,1.79,2.52,2.75,3.94,4Z"/><path class="cls-8" d="M52.08,61.39c-.13.21-.21.5-.4.63a3.66,3.66,0,0,1-5.79-1.79,1.58,1.58,0,0,1,.26-1.38c.4-.37,1.23-.79,1.6-.62a40.31,40.31,0,0,1,4.13,2.48C52,60.8,52,61.16,52.08,61.39Z"/><path class="cls-8" d="M105.84,55.74c.24.19.92.45,1.1.91a1.94,1.94,0,0,1-.26,1.68,11.52,11.52,0,0,1-2.62,2,1.42,1.42,0,0,1-2-.57,2.22,2.22,0,0,1-.12-1.73A4,4,0,0,1,105.84,55.74Z"/><path class="cls-8" d="M70.43,95.32a4.88,4.88,0,0,1-1.49,5.45,1.49,1.49,0,0,1-2.2-2A31.81,31.81,0,0,1,69,95.89C69.3,95.59,69.86,95.55,70.43,95.32Z"/><path class="cls-8" d="M48.3,83.35a3.51,3.51,0,0,1,2.3-3,3,3,0,0,1,3.31.55c-.21,1.49-1.48,2.1-2.61,2.78C50.62,84,50.4,84,48.3,83.35Z"/><path class="cls-8" d="M88.8,46.3a13.82,13.82,0,0,1-1.1-1.65,1.45,1.45,0,0,1,.59-1.93,1.7,1.7,0,0,1,1.33-.25,1.57,1.57,0,0,1,.79,1.09C90.57,44.61,90.14,45.47,88.8,46.3Z"/><path class="cls-8" d="M109.36,81.73a1.33,1.33,0,0,1-1.58,1.19,1.36,1.36,0,0,1-1.25-1.18A1.4,1.4,0,0,1,108,80.33,1.36,1.36,0,0,1,109.36,81.73Z"/><path class="cls-8" d="M98.55,101.36c-.4-.27-1.06-.5-1.3-1a2.82,2.82,0,0,1,0-1.73c0-.2.61-.47.89-.42a1.84,1.84,0,0,1,1.24,2.6C99.24,101,99,101.11,98.55,101.36Z"/></svg>