<svg id="Layer_1" data-name="Layer 1" xmlns="http://www.w3.org/2000/svg" viewBox="0 0 128 128"><defs><style>.cls-1{fill:#ded4ac;}.cls-1,.cls-10,.cls-100,.cls-101,.cls-102,.cls-103,.cls-104,.cls-105,.cls-106,.cls-107,.cls-108,.cls-109,.cls-11,.cls-110,.cls-111,.cls-112,.cls-113,.cls-114,.cls-115,.cls-116,.cls-117,.cls-118,.cls-119,.cls-12,.cls-120,.cls-121,.cls-122,.cls-123,.cls-124,.cls-125,.cls-126,.cls-127,.cls-128,.cls-129,.cls-13,.cls-130,.cls-131,.cls-132,.cls-14,.cls-15,.cls-16,.cls-17,.cls-18,.cls-19,.cls-2,.cls-20,.cls-21,.cls-22,.cls-23,.cls-24,.cls-25,.cls-26,.cls-27,.cls-28,.cls-29,.cls-3,.cls-30,.cls-31,.cls-32,.cls-33,.cls-34,.cls-35,.cls-36,.cls-37,.cls-38,.cls-39,.cls-4,.cls-40,.cls-41,.cls-42,.cls-43,.cls-44,.cls-45,.cls-46,.cls-47,.cls-48,.cls-49,.cls-5,.cls-50,.cls-51,.cls-52,.cls-53,.cls-54,.cls-55,.cls-56,.cls-57,.cls-58,.cls-59,.cls-6,.cls-60,.cls-61,.cls-62,.cls-63,.cls-64,.cls-65,.cls-66,.cls-67,.cls-68,.cls-69,.cls-7,.cls-70,.cls-71,.cls-72,.cls-73,.cls-74,.cls-75,.cls-76,.cls-77,.cls-78,.cls-79,.cls-8,.cls-80,.cls-81,.cls-82,.cls-83,.cls-84,.cls-85,.cls-86,.cls-87,.cls-88,.cls-89,.cls-9,.cls-90,.cls-91,.cls-92,.cls-93,.cls-94,.cls-95,.cls-96,.cls-97,.cls-98,.cls-99{fill-rule:evenodd;}.cls-2{fill:#ef8d34;}.cls-3{fill:#f19634;}.cls-4{fill:#ddd3a5;}.cls-5{fill:#bca3a2;}.cls-6{fill:#c3aaa4;}.cls-7{fill:#cbb7b5;}.cls-8{fill:#f9b86c;}.cls-9{fill:#f29b3c;}.cls-10{fill:#f0953e;}.cls-11{fill:#efecdf;}.cls-12{fill:#d3b1b4;}.cls-13{fill:#b39a78;}.cls-14{fill:#c49074;}.cls-15{fill:#a77762;}.cls-16{fill:#b9a27e;}.cls-17{fill:#d9ce9e;}.cls-18{fill:#bba582;}.cls-19{fill:#f2aa5b;}.cls-20{fill:#f2a149;}.cls-21{fill:#ef8331;}.cls-22{fill:#da692c;}.cls-23{fill:#f39f4c;}.cls-24{fill:#f1963c;}.cls-25{fill:#e37730;}.cls-26{fill:#c9582d;}.cls-27{fill:#f39d3e;}.cls-28{fill:#f39c3c;}.cls-29{fill:#ef8a31;}.cls-30{fill:#cabb8c;}.cls-31{fill:#f5bf80;}.cls-32{fill:#f9b975;}.cls-33{fill:#965d40;}.cls-34{fill:#9f827f;}.cls-35{fill:#7c5d53;}.cls-36{fill:#b17357;}.cls-37{fill:#987b65;}.cls-38{fill:#a7665e;}.cls-39{fill:#98716e;}.cls-40{fill:#9f5e4f;}.cls-41{fill:#c2a5a3;}.cls-42{fill:#c4ada6;}.cls-43{fill:#f5be7f;}.cls-44{fill:#f4c488;}.cls-45{fill:#f4c88f;}.cls-46{fill:#e68c40;}.cls-47{fill:#f4b067;}.cls-48{fill:#ee9a48;}.cls-49{fill:#856760;}.cls-50{fill:#ef9339;}.cls-51{fill:#f5b052;}.cls-52{fill:#ed8331;}.cls-53{fill:#f3ad64;}.cls-54{fill:#b49a78;}.cls-55{fill:#d7c699;}.cls-56{fill:#f3d8b7;}.cls-57{fill:#f1a454;}.cls-58{fill:#f8bb78;}.cls-59{fill:#f8b36b;}.cls-60{fill:#f6eddf;}.cls-61{fill:#f4b06a;}.cls-62{fill:#f9b876;}.cls-63{fill:#f2aa5e;}.cls-64{fill:#b9aba8;}.cls-65{fill:#7e6259;}.cls-66{fill:#ae936f;}.cls-67{fill:#a46b56;}.cls-68{fill:#c19d7b;}.cls-69{fill:#b39970;}.cls-70{fill:#aa8c61;}.cls-71{fill:#f7b26a;}.cls-72{fill:#f6b26a;}.cls-73{fill:#f7bb77;}.cls-74{fill:#f9ba77;}.cls-75{fill:#f2a652;}.cls-76{fill:#f2a751;}.cls-77{fill:#f5b165;}.cls-78{fill:#ab9165;}.cls-79{fill:#a3895a;}.cls-80{fill:#bda98b;}.cls-81{fill:#b49f72;}.cls-82{fill:#b9a280;}.cls-83{fill:#fab66f;}.cls-84{fill:#714226;}.cls-85{fill:#8b5446;}.cls-86{fill:#ac8c8b;}.cls-87{fill:#c4844e;}.cls-88{fill:#e79956;}.cls-89{fill:#f4ad61;}.cls-90{fill:#f29941;}.cls-91{fill:#f1973f;}.cls-92{fill:#ee8c34;}.cls-93{fill:#df8640;}.cls-94{fill:#ec974b;}.cls-95{fill:#f9b66a;}.cls-96{fill:#ea7831;}.cls-97{fill:#f29a3d;}.cls-98{fill:#e56c2f;}.cls-99{fill:#cf9351;}.cls-100{fill:#f4c893;}.cls-101{fill:#f29e48;}.cls-102{fill:#f1a555;}.cls-103{fill:#f2a853;}.cls-104{fill:#f6bb75;}.cls-105{fill:#f39f41;}.cls-106{fill:#ab9067;}.cls-107{fill:#ab8b60;}.cls-108{fill:#b79b75;}.cls-109{fill:#c17630;}.cls-110{fill:#b0956b;}.cls-111{fill:#b29973;}.cls-112{fill:#f4ad60;}.cls-113{fill:#f4c890;}.cls-114{fill:#f2a958;}.cls-115{fill:#f2aa5a;}.cls-116{fill:#f39f3e;}.cls-117{fill:#f5c07d;}.cls-118{fill:#f2a54c;}.cls-119{fill:#f4c281;}.cls-120{fill:#f4d2a5;}.cls-121{fill:#f4c58b;}.cls-122{fill:#b18652;}.cls-123{fill:#f4c07c;}.cls-124{fill:#f4c485;}.cls-125{fill:#f8b36c;}.cls-126{fill:#f09436;}.cls-127{fill:#ee9d3c;}.cls-128{fill:#ee8531;}.cls-129{fill:#f2a858;}.cls-130{fill:#f1a450;}.cls-131{fill:#f5b059;}.cls-132{fill:#f29a39;}</style></defs><path class="cls-1" d="M29.24,63.68c0-1.59,0-3.19,0-4.79a40.55,40.55,0,0,1,0-8.46V49.35c.14-.19.22-.46.51-.48a.6.6,0,0,1,.43.54c0,.48-.15.94-.13,1.43-.11.78.48,1.24.86,1.8A1.63,1.63,0,0,1,31,53.79c-.1.39-.5.48-.73.74-.06.12-.12.24-.17.37A4.42,4.42,0,0,0,30,56.21a13.26,13.26,0,0,0,1.28,6.73,1.59,1.59,0,0,1,0,.78A13.76,13.76,0,0,0,30,68c-.1,1.41,1.29,2,1.47,3.22.23,4.12.16,8.24.13,12.36-.07,1.31,0,2.62,0,3.93s0,2.93,0,4.4c0,.2,0,.4,0,.6a4.48,4.48,0,0,1-.15.89,3.58,3.58,0,0,1-.19.55A16,16,0,0,0,30,100c0,.52.47,1.73-1,1.41a9.34,9.34,0,0,1,.15-2.74v-.38a1.57,1.57,0,0,1,0-1.46v-.38a7.08,7.08,0,0,1,0-3.3V90.56c-.29-3-.15-6-.16-8.93,0-5.63,0-11.26,0-16.89A1.63,1.63,0,0,1,29.24,63.68Z"/><path class="cls-2" d="M93.29,44.86a.15.15,0,0,0,.2.09.79.79,0,0,1,.54.34h0c.29.34.86,0,1.09.44l0,0a.7.7,0,0,1,.42.37l0,0a2,2,0,0,1,.41.35h0c1.1.57,2.65.46,3.09,2-.73.41-.41,1.1-.43,1.7,0,.26,0,.51,0,.77.55,2.26-.52,3.85-2.11,5.23-.82-.14-1.65-.45-2.1.69a1,1,0,0,1-1.52.57c-1.23-.79-1.89-.07-2.55.8-.85-.13-.81-.87-1-1.46a1.57,1.57,0,0,1,.12-.8,2.08,2.08,0,0,1,1.94-1.1,2.31,2.31,0,0,0,2.27-1.42c.15-.22.3-.43.46-.63a1.58,1.58,0,0,1,.38-.35c.83-.48,2.09-1,1.77-2a2.65,2.65,0,0,0-2.93-1.95,19.69,19.69,0,0,1-2.18.07,2.32,2.32,0,0,1-1.44-1.1c-.16-.21-.29-.43-.44-.65a19.54,19.54,0,0,0-3-2.84c-.74-.46-.41-1.2-.38-1.8.06-1.07.89-.93,1.62-.85.25.08.52.13.64.41l0,0c.41.05.58.39.82.65h0c.52.5,1.28.63,1.81,1.13h0a5.74,5.74,0,0,1,2.2,1.15l0,0Z"/><path class="cls-3" d="M84.34,62.91a.19.19,0,0,0-.24.1c-.81,1.2-2.29.78-3.35,1.38h0a2.78,2.78,0,0,1-1.34,1c-.44.18-.92.21-1.35.39l-.45.19c-.55.19-1.1.45-1.62-.05-.13-1-1.37-.6-1.74-1.39-.13-.27-.14.22-.22.34-.43.62-.81.72-1.18,0-.06-.1,0-.39-.28-.19-.44.4-.63,1.26-1.51.76a9.53,9.53,0,0,1-.48-1.89c-.31-1.73.42-2.3,2.27-1.85,1.11,1.09,2.17.1,3.25-.08a1.35,1.35,0,0,0,.33,0c-.23-.32-.47,0-.71,0-.56.24-1.22.55-1.61-.11s.35-1,.77-1.39c.66-.59,1.3-1.32,2.34-.73a1.86,1.86,0,0,1,.41.33,6.07,6.07,0,0,0,4.73.2c1.24,0,2.26-1,3.56-.84.53,0,1.07-.13,1.55.21.36.51.68.13,1.06,0,.88-.31,1.4,0,1.3,1-.15.57-.78.58-1.1.95a.57.57,0,0,1-.32.34l.06,0c-.14.33-.52.25-.74.44l0,0c-.52.52-1.29,0-1.83.41h0c-.21.21-.54.16-.76.36h0C85,62.8,84.62,62.77,84.34,62.91Z"/><path class="cls-4" d="M30,49.33,29.58,49a1.55,1.55,0,0,1-.33-.39v0a1.39,1.39,0,0,1,0-1.47v-.37a6.67,6.67,0,0,1,0-3.32.65.65,0,0,0,0-.31.66.66,0,0,0,0-.83c0-.22,0-.43,0-.65a.27.27,0,0,0,.1-.31c0-.1-.07-.14-.11-.14a.66.66,0,0,0,0-.34,1.44,1.44,0,0,1,0-1.46h0c.32-1.21-.4-2.36-.2-3.56.11-.65-.17-1.34.18-2a1,1,0,0,0,0-.35,1,1,0,0,0,0-1.17c0-.36,0-.71,0-1.07a42.85,42.85,0,0,1-.58-7.5,4.09,4.09,0,0,1,.57-2.06l0-1.08a.38.38,0,0,1,.56.1A4.2,4.2,0,0,1,30.45,23c.09,5.48.85,10.94.78,16.43,0,2.62-.07,5.24,0,7.86C31.2,48.17,31.32,49.22,30,49.33Z"/><path class="cls-5" d="M28.85,107.14v-.38a.84.84,0,0,1,0-1.09v0a.33.33,0,0,1,.5,0,1.8,1.8,0,0,1,.29.81c.13,2.59.08,5.2.36,7.79a15.63,15.63,0,0,1-.29,3.06c0,.36,0,.71,0,1.07-.42,1.19.73,1.77,1.05,2.68a1.3,1.3,0,0,1-.72.38,2.15,2.15,0,0,1-.56.07,19.78,19.78,0,0,0-2.18.13c-1.86.28-2.3-.2-2-2.08.05-.41.32-.79.24-1.12A2.48,2.48,0,0,1,23,119.76a.28.28,0,0,1,0-.47v0c.19-.22.12-.57.39-.75l0,0c.16-.56.72-.53,1.11-.74v0a.44.44,0,0,1,.73,0l.72,0a1.13,1.13,0,0,1,.87-.19c1.51.09,2-.65,2-2.11A57.18,57.18,0,0,1,28.85,107.14Z"/><path class="cls-6" d="M36.21,107.57a.2.2,0,0,0,0,.22,23.62,23.62,0,0,0,0,6.34l0,0a5.23,5.23,0,0,1,.06,3,1,1,0,0,1-1.39-.25c-.9-1.43-.58-3-.64-4.58-.06-1.38,0-2.76,0-4.14,0-.22,0-.43,0-.65,0-.43,0-.86,0-1.29,0-1.39,0-2.79,0-4.18a2.79,2.79,0,0,1,.33-1.27c.33-.34.66-.83,1.18-.62s.44.78.36,1.26a16.78,16.78,0,0,0-.08,2.35A21.71,21.71,0,0,0,36.21,107.57Z"/><path class="cls-7" d="M35.89,103.86v-3.39l-1.07.38a.51.51,0,0,1-.17-.46,5.33,5.33,0,0,0,.21-4.32c-.37-1.06,0-2.2-.37-3.27a2.49,2.49,0,0,1,0-.77c-.09-1.22,1.26-2.21.55-3.52A1.15,1.15,0,0,1,35,88c-.18-.51,1.09-.9.11-1.47a1,1,0,0,1-.24-.4,8.46,8.46,0,0,0,0-2.93,1.21,1.21,0,0,1,1.53-1.54,8.47,8.47,0,0,1-.17,2.61c0,.25,0,.5,0,.75a6.86,6.86,0,0,1,0,3.31.73.73,0,0,0,0,.36,3.93,3.93,0,0,1,0,2.58.92.92,0,0,0,0,.37.21.21,0,0,1,.09.24c0,.08,0,.13-.09.13v.73a1.48,1.48,0,0,1,0,1.47c0,.62,0,1.23,0,1.85a.53.53,0,0,1,0,.73V98.3a1.57,1.57,0,0,1,0,1.46v.38a1.57,1.57,0,0,1,0,1.46l0,2.18C36.15,104,36,104,35.89,103.86Z"/><path class="cls-8" d="M65.33,70.7a14.49,14.49,0,0,0-3.46,1.42c-.13.09-.35,0-.53.08-.77-.22-1.63,0-2.36-.42a.72.72,0,0,1,0-.52C60.72,70,63,70,64.76,68.9a6.38,6.38,0,0,0,4-1.06,10.24,10.24,0,0,1,3-1.1,1.57,1.57,0,0,1,.48.05,1.85,1.85,0,0,1,.81.5c.17.49-.21.68-.51.92a2.93,2.93,0,0,1-.39.21,2.87,2.87,0,0,1-.82.24,1.59,1.59,0,0,0-.56.14l-.16.1a1.75,1.75,0,0,1-.35.2l-.77.27a1.15,1.15,0,0,1-.41,0,.76.76,0,0,0-.77.22,1.52,1.52,0,0,1-.58.26l-.13,0-.11.06c-.23.23-.57.18-.83.34a.34.34,0,0,0-.29.09c-.31.25-.79-.05-1.07.32Z"/><path class="cls-9" d="M89.59,60.34a1.62,1.62,0,0,0,0-.54.6.6,0,0,0-1-.34l-.26.25c-.24.24-.12.9-.56.79-.59-.15-.29-.8-.37-1.23a2.77,2.77,0,0,0-.6-.41c-.74-.43-1.56-.81-1.26-1.94s1.17-.43,1.79-.51c.79-.1,1.58-.36,2.27.28.36.44.24,1.11.74,1.48l.18.14c.17.24.29.52.48.76s.6.49.54.94a.93.93,0,0,1-.59.31l-.11,0-.1,0c-.25,0-.31.32-.53.38l-.1-.05-.1,0a.44.44,0,0,1-.36-.15A1.07,1.07,0,0,1,89.59,60.34Z"/><path class="cls-10" d="M53.54,20.16a.18.18,0,0,0,.22.12,1.12,1.12,0,0,1,.52.31h0c.26.38.81,0,1.07.42h0a1.54,1.54,0,0,1,.36.36,2.53,2.53,0,0,1,.19.48l-.06.26a2.15,2.15,0,0,1-2.38.77c-1.83-.66-2.29-2.52-3.32-3.87-.23-.31,0-.68.44-.82a.73.73,0,0,1,.73.28l0,0A8.67,8.67,0,0,1,53.54,20.16Z"/><path class="cls-11" d="M36.26,117.06a3.34,3.34,0,0,1-.06-2.91l.76,0c.11.13.26.23.38.36l.37.38c.22.19.13.54.36.73v1.1A.22.22,0,0,0,38,117q0,.12.09.12a.35.35,0,0,1,.1.31c0,.1-.05.15-.08.15a1.06,1.06,0,0,1-.75.2A1.4,1.4,0,0,1,36.26,117.06Z"/><path class="cls-12" d="M37.33,117.45l.75,0a.48.48,0,0,1,.72,0h0c.44.38,1.06,0,1.5.36a.63.63,0,0,0,.27,0,.26.26,0,0,1,0,.46,7.11,7.11,0,0,1-2.41.67C36.94,119.19,36.74,118.77,37.33,117.45Z"/><path class="cls-9" d="M88.52,61.11a1.21,1.21,0,0,1,1.07-.77l.09.11c0,.42-.24.52-.55.62H89l-.11.09A.24.24,0,0,1,88.52,61.11Z"/><path class="cls-13" d="M35.13,88a2.17,2.17,0,0,0,0,.36c.34,1.27-.32,2.45-.36,3.68,0,.25,0,.5,0,.75,0,2.21.71,4.41.1,6.64-1.14,0-1-1-1.25-1.6,0-2.2-1.14-4.18-1.09-6.33-1,0-.68,1.08-1.43.92,0-1.6,0-3.2,0-4.79.35-.6.74-.77,1.27-.17.18.2.07,1.15.74.36.34-.4.54-.82,0-1.21a3.86,3.86,0,0,1-2-3c0-4.3,0-8.59,0-12.89a4,4,0,0,1-.28-3.05.65.65,0,0,1,.41-.37c1.1.63.54,1.71.72,2.59s-.11,1.88,1.48,1.47c.83-.22,1.26.87.72,1.64a2.32,2.32,0,0,1-1,.8c1.24.31.93,1.76,1.77,2.36a.89.89,0,0,1,0,.75c-.64.44-1.44-.33-2.12.34a1.86,1.86,0,0,1,2.27.32,2.72,2.72,0,0,1,.22,1.16c.22,2.62-.62,5.21-.14,7.83h0A1.09,1.09,0,0,1,35.13,88Z"/><path class="cls-14" d="M29.17,105.6c0-1.33.09-2.66.13-4,.47-.58.28-1.27.29-1.92a16.06,16.06,0,0,1,.77-5,2.05,2.05,0,0,1,.72-1.22,1.19,1.19,0,0,1,.31.36,3.2,3.2,0,0,1,.3.92c-.06,1.07,0,2.15,0,3.23-.28,1.54.05,3.13-.3,4.68a3.17,3.17,0,0,0-1.24,2.39c0,.52-.08,1.22-.88,1.33C29.26,106.15,29.22,105.88,29.17,105.6Z"/><path class="cls-15" d="M31.11,93.84a1.84,1.84,0,0,0,0-.33h0a.68.68,0,0,1,.52-.2l.16,0a1.11,1.11,0,0,0-.07-.16c-.33.06-.44-.2-.59-.4a.88.88,0,0,1,0-.36c.51-.39.21-1,.42-1.47.41-.24.74,0,1.09,0s.63.27.46.73a2.06,2.06,0,0,0,.08,1.39c.13.41.41.72.06,1.14a.33.33,0,0,0,0,.32c1,.82.78,1.95.78,3-.86-.44-1.71.51-2.56,0-.52-1-.16-2,0-3C31.22,94.39,31.3,94.06,31.11,93.84Z"/><path class="cls-16" d="M31.43,67.36h-.34c-.89-1.22,0-2.45,0-3.68,0-.25,0-.49,0-.74a12.72,12.72,0,0,1-.37-5.38c.15-.32.42-.84.73-.42.52.68.87.61,1.42.11.34-.32,1-.35,1,.18-.17,1.08.47,1.92.54,2.89a1,1,0,0,1-.5.91A4.81,4.81,0,0,0,32,64.86C31.88,65.71,32.14,66.65,31.43,67.36Z"/><path class="cls-17" d="M31.1,57.06l0,5.89a1.15,1.15,0,0,1-.55-.91.58.58,0,0,0-.49-.62c-.29-.09-.36-.29-.19-.56.07-.1.2-.24.17-.29-.82-1.48-.21-3.08-.4-4.61.6-.39.28-2.05,1.74-1.24A2.25,2.25,0,0,1,31.1,57.06Z"/><path class="cls-17" d="M31.05,63.69c0,1.23,0,2.45,0,3.68s0,2.2,0,3.31c-.46-.38-1.16-.67-1.33-1.15a6.26,6.26,0,0,1-.06-2.89c.07-.48,0-1.16.76-1.26,0,0,.15-.26.11-.29-.65-.64.17-.88.35-1.29C30.92,63.75,31,63.73,31.05,63.69Z"/><path class="cls-18" d="M31.11,83.57a.91.91,0,0,1,.34.8c0,.26.12.46.42.47a.53.53,0,0,1,.55.4c.12.74.71.88,1.26,1.12s.56.47.35,1c-.09.24-.16.49-.39.59-.56.22-.6.86-1,1.22-.52-.22-.44-.67-.5-1.09-.11-.81-.12-.8-1.06-.48Z"/><path class="cls-17" d="M30,49.33a1.13,1.13,0,0,0,.72-1c0-.49,0-1,0-1.47-.1-2.49,0-5,0-7.49a.38.38,0,0,1,.53.08,4.93,4.93,0,0,1,.33,2.34,4,4,0,0,1,0,.6c0,.52,0,1,0,1.54,0,.21,0,.43,0,.64-.05,3.12.31,6.26-.3,9.36a.44.44,0,0,1-.59.17V52.64a1.78,1.78,0,0,1-.41-1.36c.17-.78-.07-.85-.68-.5A2.38,2.38,0,0,1,30,49.33Z"/><path class="cls-4" d="M29.62,50.78l.46-.27c.43-.22.61-.17.62.17,0,.65,0,1.31,0,2A1.46,1.46,0,0,1,29.62,50.78Z"/><path class="cls-4" d="M30.71,54.11h.36a.3.3,0,0,1,0,.37c-.5.48-.78,1.19-1.47,1.48.05-.51-.17-1.09.36-1.48h0C30.09,53.9,30.09,53.9,30.71,54.11Z"/><path class="cls-13" d="M32.19,93.5H31.08c0-.24,0-.48,0-.73a2.19,2.19,0,0,0,.63.2c.42,0,.44.25.45.54Z"/><path class="cls-19" d="M94.05,53.38a4.45,4.45,0,0,0-.26.48c-.69,1.45-.68,1.43-2.19,1.34a3.09,3.09,0,0,0-2,.76,32.32,32.32,0,0,0-5.09.54,2,2,0,0,0-1.38.68c-.29.42-.48,1.43-1,1.07-.93-.68-2.47.33-3-1.19.08-1.19,1.65-.31,1.86-1.34,0-1.93.28-2.26,2.06-2s2.92-1,4.25-1.71c.34-.19.52-.65,1-.79,1.31-.42,1.32-1.29.71-2.29-.49-.81-.6-1.48.45-1.91a.56.56,0,0,1,.48.13,2.39,2.39,0,0,0,1.1,1.1c.76.35,1.74.37,2,1.43-.45,1.28.19,2.81-1,4,1-.2,1-1.82,2.3-1.42a.33.33,0,0,1,.09.3q0,.15-.09.15c0,.12,0,.24,0,.36S94.17,53.26,94.05,53.38Z"/><path class="cls-20" d="M79.31,57.06a7.21,7.21,0,0,0,.77.5.69.69,0,0,0,.51,0c.76-.26.75-.27,1.31.32.18.19.62.12.58-.08-.16-.84.39-1.18,1-1.59.37-.28.64-.52,1.08-.13a.92.92,0,0,0,1,0,7.89,7.89,0,0,1,1.54-.58c.67-.14,1.27-.28,1.83.3.12.14.46.07.71.1,0,.24,0,.48,0,.73a5.92,5.92,0,0,0-2.5.29c-.3.14-.58,0-.64-.38,0-.05-.22-.13-.28-.1-.33.2-.49,1-.23,1.27a10.83,10.83,0,0,0,1,.75.9.9,0,0,1,.42.75c-.65,0-1.36-.21-1.9.39a.33.33,0,0,1-.33,0c-.77-.61-1.2-.23-1.56.49-.27.52-.55.23-.85,0-.12-.1-.34-.1-.51-.15-.29-.82.69-.86.86-1.4-.38.48-1.67.11-1.25,1.4.06.2-.62.14-1,.18a2.15,2.15,0,0,1-1-.26c-.74-.76-1.69.13-2.48-.3h0c-.68-.68,1.08-1.42,0-2.09a.62.62,0,0,1,0-.5,1.06,1.06,0,0,1,.43-.29,2.1,2.1,0,0,1,.79-.06A1.07,1.07,0,0,1,79.31,57.06Z"/><path class="cls-21" d="M92.56,60h-1.1l-.74-.71c-.33-.3,0-.82-.37-1.1h0c.15-1.73.53-2.23,2.45-1.18.11.06.23.09.34.15.34.16.66.07.75-.25a6.45,6.45,0,0,1,1.28-1.83l1.08.89c1,1.21,1.94,1.26,2.93,0a1.32,1.32,0,0,1,.95-.48,1.09,1.09,0,0,1,.85,1.38,11.35,11.35,0,0,1-3.15,1.31,5.07,5.07,0,0,0-1.28.63c-1.07.06-2,.63-3.11.63C93.14,59.44,92.85,59.8,92.56,60Z"/><path class="cls-22" d="M101,49.39a3.06,3.06,0,0,0,1.46,1.12,3.28,3.28,0,0,0,.64.6c.62.33,1.27.6,1.91.89.05.16.11.32.16.47a2,2,0,0,0,.19.51c.29.64,2.19.44,1,1.86s-3,1.72-4,.95a2,2,0,0,1-.74-1c.35-2.79.36-2.8-2.46-4a2.94,2.94,0,0,1-1-.72c0-.36,0-.73,0-1.1,0-.62.37-.46.72-.39Z"/><path class="cls-23" d="M87,41.23l.4.35c-.31,0-.61,0-.91.05s-.37.11-.32.35a2.66,2.66,0,0,1-.08,1.58c.47.1.5-.18.58-.38s.17-.33.38-.29a.4.4,0,0,1,.26.21c.17.53.32,1,.45,1.59.07.26.2.49.47.44.64-.1.89.2,1,.77a4.67,4.67,0,0,0,.35.84l-.16.17A1,1,0,0,1,89,47a1.63,1.63,0,0,1-.44-.21L88,46.31c-1.72-1.47-4-2.16-5.48-4-.78-1-2.19-2.06-1.24-3.27.83-1.06,2.07.26,3.12.59a2.27,2.27,0,0,1,.48.27C85.35,40.74,86.4,40.64,87,41.23Z"/><path class="cls-24" d="M93,49.68l-1.86-1.46c1-.55,2.14,0,3.2-.29a1.27,1.27,0,0,1,1.21.7,7,7,0,0,0,1.79,1.72c-.49.61-.94,1.17-1.4,1.72a1.6,1.6,0,0,1-1.48.57c0-.12,0-.24,0-.36A1,1,0,0,0,94,50.89C93.53,50.58,93,50.3,93,49.68Z"/><path class="cls-25" d="M100.3,55.59a5.61,5.61,0,0,0-1.38,1.19,3.06,3.06,0,0,1-1,.73.57.57,0,0,1-.67-.07c-.44-.42-1-.78-1-1.49a18.27,18.27,0,0,1,1.93-2.54.58.58,0,0,0,.12-.67,4.74,4.74,0,0,1-.21-1.94c1.8.16,1.37,1.44,1.3,2.55,0,.84,1.09,1.14,1,2Z"/><path class="cls-26" d="M98.83,53.74a1.89,1.89,0,0,1,0-.72c.56-1.05.16-1.72-.79-2.22v-.74a7.78,7.78,0,0,1,4.69,2.57l-1,1.84a.77.77,0,0,1-.75.23C100.28,54.42,99.55,54.09,98.83,53.74Z"/><path class="cls-24" d="M96.76,48.69s0-.11-.05-.16.13-.05.14,0S96.91,48.7,96.76,48.69Z"/><path class="cls-24" d="M94.05,53.38,94.4,53Z"/><path class="cls-23" d="M90,47.12h-.37c-.09-.08-.12-.15-.09-.23s0-.12.07-.12l0,0Z"/><path class="cls-27" d="M72.69,61.84c-.54-.34-1,.12-1.52.11-.45.34,0,.81-.22,1.21s.26.74.36,1.12a4.08,4.08,0,0,1-.1,1.24L71,65.7c-.67.35-.87,1.65-2,1-1.42-2.55-1.37-3.2.36-4.65-.92.11-2.39,1.17-1.78-1.17.16-.62-1-1.08-.63-1.95s1.24-.77,1.78-1.26a2,2,0,0,1,.64-.37.91.91,0,0,1,.49,0,2.2,2.2,0,0,1,.87.84c.24.59.81.65,1.32.8a1.17,1.17,0,0,1,.38.28,4.34,4.34,0,0,0,1.45,1.91C74,62.25,73.39,62.17,72.69,61.84Z"/><path class="cls-28" d="M72.69,61.84a3.09,3.09,0,0,0,.53,0c.47-.09.49-.19.2-.71a10.53,10.53,0,0,0-1.09-1.83l0,0a5.44,5.44,0,0,1,5.14-1.85,1.79,1.79,0,0,1,.53.13c1,.57,1,.87,0,1.39a.82.82,0,0,0-.47.71l-.87-.22a.55.55,0,0,0-.65.17,4.6,4.6,0,0,1-1.5,1.28.36.36,0,0,0-.1.31c.12.11.3.26.42.24a10.5,10.5,0,0,0,1.23-.3c.29.16.57.33.37.73a2.15,2.15,0,0,0-.69.22,1.78,1.78,0,0,1-1.67.45.74.74,0,0,0-.51.05c-.21.12-.4.33-.63.14S72.71,62.14,72.69,61.84Z"/><path class="cls-29" d="M71.21,65.52a1.36,1.36,0,0,0,.74-.73,1.34,1.34,0,0,1,.73-.73l.14,0a.52.52,0,0,1,.2.19l0,.14a1.29,1.29,0,0,0,.1.35.29.29,0,0,0,.54,0c.25-.41-.11-1,.39-1.35.4.1.2.51.4.74.46.52.89,1,1.59.3.11-.1.37,0,.47.15a.38.38,0,0,1,0,.34c-.17.32-.37.62-.57.92h0c-1.26.28-2.27,1.4-3.7,1.11h0c-.53-.38-1.68-.29-1.1-1.49Z"/><path class="cls-28" d="M77.47,59.63a14,14,0,0,1,1.35-.42c.61-.23.88.14,1.23.43.16.29.51.21.74.36.18,0,.36,0,.54,0s.36-.11.37-.31a.35.35,0,0,0-.15-.29c-.32-.16-.72-.18-.91-.55a.43.43,0,0,1,0-.33.38.38,0,0,1,.27-.18,1.15,1.15,0,0,1,.35.07c1.25.31,1.25.31,2.24-.42a4.24,4.24,0,0,0,0,.72c0,.26.06.5-.25.57a1.22,1.22,0,0,0-.95.76c-.1.23-.23.48-.48.5a1.94,1.94,0,0,0-1.14.3c-.37.27-.88.19-1.08-.49-.13-.41-.49-.36-.79,0-.07.09-.07.24-.14.32-.46.42-.93.3-1.11-.3A3.49,3.49,0,0,1,77.47,59.63Z"/><path class="cls-27" d="M76.37,61.84c-.13-.24-.25-.49-.37-.73.16-.3.41-.17.64-.14.42.05.56.27.43.74S76.62,61.9,76.37,61.84Z"/><path class="cls-27" d="M72.68,64.06c.06-.1.09-.23.17-.29a2,2,0,0,1,.42-.19c0,.15.12.32.08.46s-.19.26-.3.38a2.1,2.1,0,0,0-.37-.36Z"/><path class="cls-27" d="M72,63l-.3.07a1.45,1.45,0,0,1,.06-.3s.11-.06.16,0S72.14,62.84,72,63Z"/><path class="cls-30" d="M31,39.41l-.32,0c-.08-1.51.22-3.05-.31-4.53a.28.28,0,0,1,0-.18,14.32,14.32,0,0,0,0-4.48,7.56,7.56,0,0,0-.3-2.16,2.45,2.45,0,0,1-.09-.9,31.25,31.25,0,0,0-.38-6.55l0-8.43a9,9,0,0,0-.22-2.37,7.43,7.43,0,0,1-.09-1.64A2.51,2.51,0,0,0,30.4,6.66a1.87,1.87,0,0,1,2.06-1.13,5.11,5.11,0,0,0,1.26-.18c.36,0,.55.2.69.5-.35.47-.91.44-1.4.58-1.07.48-.54,1.82-1.32,2.46a4.92,4.92,0,0,0-.69.68c-.25.52-.32.78.22,1.39.78.86.49,2.24.47,3.42a4.62,4.62,0,0,0-.23,3.17c.26,3,.07,5.93.15,8.89,0,.76-.05,1.52,0,2.28,0,1,0,2,0,3-.1,1.35.05,2.7,0,4C31.4,37,32,38.31,31,39.41Z"/><path class="cls-31" d="M84.79,40.16a1.94,1.94,0,0,1-1.2-.37,4.4,4.4,0,0,0-1.86-.71c-.22-.06-.52.23-.45.44A4.33,4.33,0,0,0,81.89,41a11.51,11.51,0,0,0,3.73,3.17,9.6,9.6,0,0,1,2.9,2.16,2.67,2.67,0,0,0,.37.38h0c.14.26,0,.43-.18.57a4.67,4.67,0,0,1-.82.37c-.13.07-.28.13-.42.19a2.31,2.31,0,0,1-.68.2,2.73,2.73,0,0,1-.5-.05,2.18,2.18,0,0,1-2-1.65A5.11,5.11,0,0,0,82.4,44C81.15,42.68,80,41.58,78,43.08c-1,.78-1.75-.09-2-1-.85-2.73-2.92-3.34-5.41-3.3a10.72,10.72,0,0,0-2,.08,2.18,2.18,0,0,1-.51,0c-.56-.18-1.15-.35-1-1.13a.64.64,0,0,0,.12-.18.45.45,0,0,1-.3.19c-.91-1.7-2.26-1.94-4-1.32-.38.14-1-.16-.92-.62.28-1-1.46-1.64-.31-2.64a1.52,1.52,0,0,0,.5-2c-.29-.52-.89-.94-.32-1.58s1.24-.36,1.89-.22a3.14,3.14,0,0,0,.81.24c-.91-1.14.31-1.88.44-2.83a2.63,2.63,0,0,1,1.48.63c.57.35,1.17.65,1.76,1l.4.33a1.54,1.54,0,0,1,0,.37c.06.84-1.43,1.61.07,2.6.69.45.63,1.8,1.77,2.13s1,.8.15,1.38c1.15-.67,1.9-1.88,3.16-2.39A3.34,3.34,0,0,1,76,33.92a5.47,5.47,0,0,0,2.09,1.4,2.66,2.66,0,0,1,1.43,1.06,2.26,2.26,0,0,0,.65.62,12.36,12.36,0,0,0,3.17,1.68h0a2.16,2.16,0,0,1,.38.36h0c.43.28,1.14.21,1.21.94A1.33,1.33,0,0,1,84.79,40.16Z"/><path class="cls-32" d="M73.78,32.8c-.06.17-.06.38-.18.5a14.42,14.42,0,0,0-1.95,1.82c-.31.47-1.11.62-1.71.88-.07,0-.24,0-.3-.13a.34.34,0,0,1,0-.32A3.14,3.14,0,0,1,71,34.42a2.11,2.11,0,0,0-.32-.17,1.94,1.94,0,0,1-2-1.9,1.13,1.13,0,0,0-.36-.8c-.28-.24-.56-.14-.86,0s-.4,0-.45-.16a.65.65,0,0,1,.12-.5c.5-.6,1-1.18,1.55-1.77a3.14,3.14,0,0,1,1.47.73.43.43,0,0,0,.41.3c.29,0,.54-.13.74.29a7.39,7.39,0,0,0,1,1.3,1.31,1.31,0,0,0,.89.55C73.35,32.28,73.56,32.6,73.78,32.8Z"/><path class="cls-33" d="M34.75,106.4l0,1.1c-.08.13-.16.26-.23.4l-.2.09c-.32,0-.51.19-.49.54,0,1.85-.28,3.72.48,5.5a1.77,1.77,0,0,1,0,.51c-.78.91.44,1.8,0,2.71a2.22,2.22,0,0,1-1.21.27,8.77,8.77,0,0,0-1.15,0,1.3,1.3,0,0,0-.66.54c-.83.59.65,1.56-.35,2.12-1.48.36-1.32-.91-1.68-1.67,0-.37.05-.73.08-1.1,1.26-1.14,1.34-2.62,1.26-4.18a40.25,40.25,0,0,1,.12-6.21,12.58,12.58,0,0,0,.47-3c.07-1.16.55-1.69,1.74-1.47a1.35,1.35,0,0,1,.7.83,4.82,4.82,0,0,1,.14,1.06C33.54,105.38,34.07,105.92,34.75,106.4Z"/><path class="cls-34" d="M22.33,123.26l-.41-.69A4.45,4.45,0,0,1,23,119.66a1.74,1.74,0,0,0,1-.42,13,13,0,0,1,1.27-.69,3,3,0,0,1,.64-.15c-.11.83-.23,1.58-.3,2.33a.63.63,0,0,0,.8.71,10.92,10.92,0,0,1,3.22-.32.39.39,0,0,1,0,.47,14.58,14.58,0,0,1-2.83,1.47c2,.39,4.11.25,6.08.84.23.95.73.11,1.09.15a7.41,7.41,0,0,1,1-.07,4.34,4.34,0,0,1,.51,0h1a4.84,4.84,0,0,0,1.74-.16,3,3,0,0,1,.52-.13c.54,0,1.09-.11,1.5.39a9.36,9.36,0,0,1-4.19,1.09c-2,.06-3.92,0-5.87,0a29.73,29.73,0,0,1-4.72-.61A6.37,6.37,0,0,1,22.33,123.26Z"/><path class="cls-35" d="M32.9,124.09a12,12,0,0,1-3.43-.32,4.85,4.85,0,0,0-1.25,0c-.9,0-1.84,0-2.43-.89a.38.38,0,0,1,0-.49c.06-.08.23-.17.3-.14a2,2,0,0,0,2.28-.59c.26-.24.8-.17,1.22-.23a3.07,3.07,0,0,1,.38-.34l.71,0a1.4,1.4,0,0,1,1.31-.32c1.74.78,3.78.62,5.38,1.82.53.4,1.26.58,1.08,1.47h0c-.57.39-1.27,0-1.84.31H35.5a.28.28,0,0,0-.37,0l-1.12,0C33.68,124.11,33.2,124.43,32.9,124.09Z"/><path class="cls-36" d="M31.09,106.77c0,1.35-.06,2.69-.06,4s0,2.68,0,4c0,.31,0,.61,0,.92a1.16,1.16,0,0,1-.94,1.36,4,4,0,0,0-.82.37c.53-2.16.06-4.33.05-6.49,0-1.52,0-3-.06-4.55a2.81,2.81,0,0,0,.47-2c-.19-.66.43-1,.81-1.45.05-.06.32.07.49.12.26.28.19.64.22,1a.83.83,0,0,0,0,.86C31.19,105.54,31.42,106.18,31.09,106.77Z"/><path class="cls-37" d="M32.18,121.12H30.69c-1.41-.79-1.41-.79-1.46-2.55.11.13.3.24.32.39.16.88.72,1.14,1.53,1.06s1.1.36,1.54.74C32.62,121.05,32.57,121.28,32.18,121.12Z"/><path class="cls-37" d="M30,121.14l-.38.34c0-.12,0-.24,0-.36Z"/><path class="cls-38" d="M34.4,117.07c-.12-.13-.25-.25-.37-.37-.86-1-.85-1,0-2.21h0a.85.85,0,0,0-.06-.36,6.59,6.59,0,0,1-.58-4.46,8.44,8.44,0,0,0-.09-1.44c.27-.42.78-.12,1.1-.37a.21.21,0,0,1,.33,0c0,1.57.06,3.14,0,4.7A13,13,0,0,0,35.2,117l-.16.17A.55.55,0,0,1,34.4,117.07Z"/><path class="cls-39" d="M35.2,117l.62.07c1,.89.67,2,.37,3a.52.52,0,0,1-.06.16l-.06.16c1.14-.11,2.24.28,3.38.2a.69.69,0,0,1,.31.43c-.54,1.89-1,2.18-2.62,1.33A19.46,19.46,0,0,0,34.27,121a1.19,1.19,0,0,1-.06-.53c.8-1,.4-2.28.87-3.35Z"/><path class="cls-40" d="M33.29,103.45c-.13-.24-.25-.49-.37-.73.32-.89-.87-2.85,1.58-2.22.19.48-.09,1,.23,1.49l0,4.41a.61.61,0,0,0-.17-.07c-1.35,0-1.1-.22-1.28-1.08a3.28,3.28,0,0,1,0-.7C33.57,104.18,33.81,103.81,33.29,103.45Z"/><path class="cls-41" d="M35.9,120.38a1.9,1.9,0,0,1,0-.53,5.34,5.34,0,0,0-.07-2.75l.44,0,1.07.39a4.5,4.5,0,0,0-.15.88.47.47,0,0,0,.33.35,1.67,1.67,0,0,0,.69-.14,6.17,6.17,0,0,1,2.48-.38.9.9,0,0,1,.32.09.32.32,0,0,1,0,.46c-.63.35-1.39.33-2,.67C37.91,119.68,37.27,121.15,35.9,120.38Z"/><path class="cls-13" d="M34.73,102c-.44-.41-.25-1-.37-1.47s-.17-.75.39-.81a.61.61,0,0,1,0,.8,1.3,1.3,0,0,0,0,.34C34.79,101.23,34.76,101.61,34.73,102Z"/><path class="cls-40" d="M34.72,107.86h-.33c.12-.12.23-.25.34-.37A.63.63,0,0,1,34.72,107.86Z"/><path class="cls-42" d="M35.12,86.52c-.5-.42-.35-1-.35-1.53,0-2.19,0-4.38,0-6.56.56-.2.67.29.92.59a2.4,2.4,0,0,0,.66.94c.16.17.33.34.16.59s-.2.54-.31.81-.35.48-.54.7a1.32,1.32,0,0,0,0,2c.39.4.43.9-.31,1.24C35,85.5,35.17,86.12,35.12,86.52Z"/><path class="cls-6" d="M34.79,100.51l0-.75c-.1-.08-.13-.15-.1-.23s.07-.11.1-.11a6.13,6.13,0,0,0,.09-2.66c0-1.32,0-2.66,0-4a1,1,0,0,1,.33.81c0,.68,0,1.35,0,2,0,.24,0,.5.27.61.68.27.48.73.26,1.18-.07.15-.32.29-.18.44.9,1,0,1.66-.44,2.41A1.22,1.22,0,0,1,34.79,100.51Z"/><path class="cls-42" d="M34.78,92c0-.71,0-1.43,0-2.14a2.87,2.87,0,0,1,.38-1.54c.65.36.79.67.7,1.25s-.69.7-.69,1.26S35.19,91.74,34.78,92Z"/><path class="cls-42" d="M35.13,88c0-.49,0-1,0-1.46a2.57,2.57,0,0,1,.4-.34.47.47,0,0,1,.28,0C35.93,86.9,35.94,87.6,35.13,88Z"/><path class="cls-43" d="M50.18,76.5c-.38-.15-.69-.15-.78.35a18.25,18.25,0,0,0-2.2.72,17,17,0,0,1-4,.84l-.15-.21c0-.08,0-.17.05-.25a1.55,1.55,0,0,1,.33-.39,1.37,1.37,0,0,1,.46-.21,3.36,3.36,0,0,0,3-1.77,8.1,8.1,0,0,1,2.49-.82c1.59.24,3-.51,4.57-.66a.81.81,0,0,1,.41.32L52,75.77C51.34,75.87,50.61,75.8,50.18,76.5Z"/><path class="cls-44" d="M59.08,71.81a2.69,2.69,0,0,0,.87-.14c.49-.26.72-.12.9.36,0,.1.32.11.49.17a4.22,4.22,0,0,1-3.32.72,1.81,1.81,0,0,1-1.46.09c-.34-.63.19-.73.56-.84C57.75,72,58.44,72,59.08,71.81Z"/><path class="cls-45" d="M56.47,72.88l1.55,0c-1.14.69-2.22,1.53-3.66,1.5l-.15-.08c-.07-.86.65-1,1.17-1.33a5.32,5.32,0,0,1,.66-.26A.47.47,0,0,1,56.47,72.88Z"/><path class="cls-46" d="M65,69.22l-1.47.72a6.92,6.92,0,0,1-2.38.81,9,9,0,0,0-2,.69c-1,1-2.59.78-3.77,1.47-.72,0-1.47.1-1.54-.94.15-.44.54-.53.91-.66l.8-.25c2.86-.8,5.48-2.34,8.41-3a9.09,9.09,0,0,0,1.27-.21,2.27,2.27,0,0,1,.52-.09c.3,0,.64,0,.75.39s-.2.51-.46.65S65.23,69,65,69.22Z"/><path class="cls-47" d="M55.39,72.53l3.67-1.09c0,.12,0,.25,0,.37-.07.52-.4.68-.89.71s-1.24-.18-1.72.36l-.35,0a3.06,3.06,0,0,0-.36.36,3.44,3.44,0,0,0-1.55,1.08,2.48,2.48,0,0,0-1.22.3,3.91,3.91,0,0,1-3,.47,2.52,2.52,0,0,0-.55,0c-.11-.75.44-.79.94-.88.33.2.49.1.5-.27C52.24,72.92,53.89,73,55.39,72.53Z"/><path class="cls-48" d="M65,69.22c.24-.5.91-.48,1.18-1-.24-.23-.54-.14-.82-.17-.07-1,.67-1,1.33-1.19.65,0,1.29-.32,1.95,0A1.35,1.35,0,0,1,69,68.12c-.6.75-1.67.64-2.33,1.28-.19.18-.45,0-.68,0S65.31,69.27,65,69.22Z"/><path class="cls-3" d="M69,68.12c-.44-.27-.38-.71-.39-1.12a.46.46,0,0,1,.37-.37c.49,0,.93,0,1.11-.64s.27-.73,1.1-.47a1.19,1.19,0,0,0,.57,1,3.82,3.82,0,0,1,.53.45A17.22,17.22,0,0,0,69,68.12Z"/><path class="cls-3" d="M72.31,67c.83-.3,1.67-.58,2.49-.9A2.65,2.65,0,0,1,76,65.9a8.43,8.43,0,0,1-3,1.45C72.74,67.32,72.46,67.3,72.31,67Z"/><path class="cls-3" d="M71.15,68.38l-.67.11C70.65,68.16,70.86,68,71.15,68.38Z"/><path class="cls-49" d="M34.35,120.7c.14.12.27.33.41.34a5.64,5.64,0,0,1,3.06,1.3.76.76,0,0,0,1.21-.25,2.74,2.74,0,0,0,.53-1.32.45.45,0,0,1,.46.07c.27.8,1.33,1.51.26,2.45.22.2.57.13.73.41A1.67,1.67,0,0,0,41,124l-.65.1H38.46A1.8,1.8,0,0,0,36.93,123a1.41,1.41,0,0,1-1.19-.73c-.31-.52-.57-.42-1-.11a.56.56,0,0,1-.52,0,11.51,11.51,0,0,1-2.09-1l.36-.36a.55.55,0,0,1,.39-.14,1,1,0,0,0,.62-.11A.86.86,0,0,1,34.35,120.7Z"/><path class="cls-50" d="M42.86,78.43a.87.87,0,0,1-.73.36c-.27-.43,0-.79.12-1.17A3.91,3.91,0,0,0,42.76,76c.26-1.07-1-1.84-.6-2.93-1,.21-.72-1.39-1.72-1.14a.62.62,0,0,1-.35-.34A30.44,30.44,0,0,1,42,63.14c.58-1.58.38-2.56-1.15-3.29-.88-.42-1.2-1-.81-1.69.85-1.49,0-2.67-.66-3.71a6.46,6.46,0,0,1-.89-3.05,3.28,3.28,0,0,1,1.33-2.88c.66-.08.88.43,1,.89.18,1.2.69,2.35.79,3.53a3.41,3.41,0,0,0,1.25,2.28c2,2,3.57,4.2,2.67,7.29-.42,1.43-1.58,2.42-2.12,3.8-.37,1-.89,1.61-.31,2.83,1,2.07.79,2.16,2.08,3.18a2,2,0,0,1,.44.91c0,.54-.59,1-.39,1.55-.08.57-.62.93-.67,1.51a1.89,1.89,0,0,1-.93,1.37h0a4.17,4.17,0,0,1-.37.36h0A1.48,1.48,0,0,1,42.86,78.43Z"/><path class="cls-51" d="M36.51,80.55l-.35-.3a4,4,0,0,1-.3-2.53c.19-1.09,1.44-.55,1.89-1.25a.6.6,0,0,1,.48.16,2.05,2.05,0,0,1,.3,1A10.12,10.12,0,0,0,38.9,80,2.49,2.49,0,0,1,36.51,80.55Z"/><path class="cls-52" d="M38.9,80a1.36,1.36,0,0,1-.82-1.42c0-.29,0-.58,0-.87a.52.52,0,0,1,.44-.15c.76.28,1.6,0,2.36.29.61.56.84-.74,1.42-.29l.19.15c-.12.37-.25.74-.37,1.11Z"/><path class="cls-53" d="M42.86,78.43c.12-.13.24-.26.35-.4,0,.13,0,.26,0,.38l-.18,0Z"/><path class="cls-2" d="M90.35,58.17c.44.26.36.69.37,1.1C90.29,59,90.37,58.57,90.35,58.17Z"/><path class="cls-54" d="M32.59,5.92l1.82-.07c.68.26.76,1,1.11,1.47a2.52,2.52,0,0,1,.24,2.38c-.52.66-.83.08-1.2-.19-.55-.65-1.12-1.29-1.62-2C32.6,7.07,32.08,6.59,32.59,5.92Z"/><path class="cls-55" d="M35.52,9.93V7.32l.71.43a2.79,2.79,0,0,1,.35.34,2,2,0,0,1,.06.35c.14.36.34.7.48,1.07a1.6,1.6,0,0,1,0,.49,14.32,14.32,0,0,1-.63,3,1.12,1.12,0,0,1-.36.39.58.58,0,0,1-.48-.2,3.2,3.2,0,0,1-.3-1.61A6.22,6.22,0,0,1,35.52,9.93Z"/><path class="cls-56" d="M37,8.82c0,.25,0,.49,0,.74-.44-.27-.37-.7-.33-1.12Z"/><path class="cls-56" d="M36.58,8.09l-.35-.34A.39.39,0,0,1,36.58,8.09Z"/><path class="cls-57" d="M56.12,21.7l.35.46a6.17,6.17,0,0,0,1.91,1.61c.41.24.95.42.8,1s-.67.61-1.15.68a4.38,4.38,0,0,1-3.53-1c-.27-.19-.56-.37-.83-.57a1,1,0,0,1-.3-.38.87.87,0,0,1,0-.48l.16-.18a8.85,8.85,0,0,1,1.18-.36,1.37,1.37,0,0,0,1.09-.79A.8.8,0,0,1,56.12,21.7Z"/><path class="cls-57" d="M49.9,17.64a1.3,1.3,0,0,1,.76.71c-.21.14-.43.43-.24.56a4.29,4.29,0,0,1,1.35,1.86,2.17,2.17,0,0,0,1.47,1.44c.24.05.26.36.3.6h0a.87.87,0,0,1-.72.24,3,3,0,0,1-.52-.11c-1.73-.86-3.17-2-3.4-4.07C48.81,18.19,48.64,17.29,49.9,17.64Z"/><path class="cls-57" d="M55.4,21.3a.48.48,0,0,1,.41.37A.47.47,0,0,1,55.4,21.3Z"/><path class="cls-58" d="M65,26.78c0,.12.07.24.11.35.19.45.49.93-.33,1.08-.09,0-.16.17-.23.27-.25.37-.11.7.37.76.22,0,.54-.17.61.17s-.25.33-.46.44a5.79,5.79,0,0,0-.58.43c-.26.19-.4.09-.58-.15a1.87,1.87,0,0,0-1.69-.46.74.74,0,0,0-.27.45.3.3,0,0,0,.26.39c.29.08.67,0,.76.39s-.11.47-.13.71-.07.73-.09,1.09a.76.76,0,0,1-.62.78c-.64.21-.67.37-.25.76.17.16.39.28.58.44s.16.41.08.66c-.21.68-.15.74.38.73a1.54,1.54,0,0,0,1.27-.59c.36-.43.41-.4.81.18.15.21.37.43.49.09.19-.53.54-.43.88-.34s.31.44.22.75a3.4,3.4,0,0,0-.12.71c0,.46.31.63.71.67,0,.73.64.84,1.11,1.11,1.9.63,1.15,2.39,1.55,3.67a.74.74,0,0,1-.69.21c-.49-1-1.49.36-2-.43a.89.89,0,0,1-.12-.45,1.67,1.67,0,0,1,.39-.8,2.48,2.48,0,0,0-2.26-1.7c-1.37-.77-3.24-.78-3.87-2.67-.17-.48-.81-.45-1.25-.61-1.28-.61-.64-1.71-.68-2.63s.76-1.85.15-2.86c-.13-.22.11-.83.26-.79,1.1.31.85-.75,1.24-1.14s.34-.28,1.58-.19A7.8,7.8,0,0,1,60,26.92a1.26,1.26,0,0,1-.11-1c.84-1.6,1.93.13,2.87-.21a1.83,1.83,0,0,1,1.34.46,1.2,1.2,0,0,0,.82.35Z"/><path class="cls-59" d="M62.79,25.69a1.49,1.49,0,0,1-.18.3c-.48.48-.64.54-1,.08a1,1,0,0,0-1.49-.31c-.21,0-.41.07-.62.1s-.4.16-.6.25c-.91.18-1.14-.27-1-1.07l.37,0c.24,0,.5,0,.56-.34s-.12-.32-.28-.41A5.71,5.71,0,0,1,57,23.12a1.71,1.71,0,0,1-.49-1,1.14,1.14,0,0,1,.32,0l.43.29a.87.87,0,0,0,.68.44,2.31,2.31,0,0,0,1.71.89A5.48,5.48,0,0,1,62.79,25.69Z"/><path class="cls-25" d="M101,54.48h.74c1.45,1.85,2,1.94,3.87.64a4.78,4.78,0,0,0,.42-.34c.49-.43.47-.75-.15-1a1.08,1.08,0,0,1-.76-1.27c.55.36,1,1,1.71,1a1.05,1.05,0,0,0,.74.36.88.88,0,0,0,.71.36.78.78,0,0,1-.6.34,1.43,1.43,0,0,0-1.12.45,11.72,11.72,0,0,1-2.3,1.64,2.55,2.55,0,0,0-2.32.29.84.84,0,0,1-1,0c-.23-.42-.45-.85-.68-1.28v0C100.61,55.25,100.6,54.71,101,54.48Z"/><path class="cls-31" d="M87,41.23l-1.72-.42c-.34-.08-.44-.36-.53-.65a.64.64,0,0,0,.13-.15.54.54,0,0,1,.65.12l1.45.75C87,41,87,41.11,87,41.23Z"/><path class="cls-60" d="M83.72,39a.48.48,0,0,1-.38-.36Z"/><path class="cls-61" d="M49.9,17.64c-.45.08-.83.24-.7.82A10.34,10.34,0,0,0,49.61,20c.24.6.42,1.32,1.34,1.21.09,0,.28.1.28.15-.08,1.15,1.11.89,1.57,1.42a2.21,2.21,0,0,1-.08.35c-.62,2.81,0,2.23-2.88,2.53-.71,1-.36,2.27-.76,3.36-.2.53-.24,1.09-1,.83-1-.95-.19-2.55-1.29-3.46-.13-1.27.65-2.17,1.35-3.07.4-.53.54-.78.09-1.48-1.06-1.66-1.32-3.64-1.76-5.54-.06-.25-.05-.65.45-.5h.38a.84.84,0,0,0,.69.42.47.47,0,0,0,.39.34Z"/><path class="cls-56" d="M37,9.56l1.47.74a1.31,1.31,0,0,0,1.47.74l.38.36a1.26,1.26,0,0,1,0,.28,4.92,4.92,0,0,1-4.09,1.16A15.89,15.89,0,0,1,37,9.56Z"/><path class="cls-62" d="M46.9,15.83c0,.1-.17.23-.14.31.55,1.62.81,3.31,1.46,4.9.34.82.31.83,1.48,1.27a9,9,0,0,0-2.79,4.19c.3.73-.14,1.31-.45,1.87s-.64,1.33-1.5,1a1.66,1.66,0,0,1-1.21-1.66c.06-1.16.13-2.32.11-3.48a4,4,0,0,0-.67-2.62,3.71,3.71,0,0,1-.73-3.75,2,2,0,0,0-.55-2.4,2.13,2.13,0,0,1-.15-3l1,.46.44.29a.8.8,0,0,0,.71.39l.4.33,2.49,1.56C46.86,15.63,46.88,15.73,46.9,15.83Z"/><path class="cls-63" d="M41.76,12.5a5.44,5.44,0,0,0-.22.5c-.08.28,0,.51.33.5s.62,0,.4.46c-.11.22-.29.4-.39.62a.56.56,0,0,0,.42.83c.18,0,.37,0,.55.06.68.14.91.48.55,1-.66,1-.3,2.14-.84,3.12-.15.27.06.61.3.81a4.63,4.63,0,0,1,1.47,4.15,10.43,10.43,0,0,1-.19,3.1.71.71,0,0,0,.36.93c.32.17.46.59,1,.6a25,25,0,0,0,1.42-2.67c.17-.07.33-.15.51-.21s.58.09.51.3c-.36,1.09.25,2.15.09,3.22a1.34,1.34,0,0,0,0,.2,2.21,2.21,0,0,1,.23.36,1.31,1.31,0,0,1,.07.44c0,.92-.86,1.78-.18,2.75a3.62,3.62,0,0,1,.24.43,1.28,1.28,0,0,1,.23.65c-.11,1.17.43.32.71.24.13-.1.26-.18.38-.28l.35-.3a.74.74,0,0,1,.65-.16,2.9,2.9,0,0,0,1.52,0c.5-.19.16-.63.27-.94a1.35,1.35,0,0,1,.18-.47.73.73,0,0,1,.44-.21c.18-.28.42.59.57,0a10.49,10.49,0,0,0,0-2.17,1.22,1.22,0,0,1,.24-.45c2-.7,2.43-.48,2.41,1.43.62-.8,0-2,1-2.49.62-.31,1.19-.67,1.88-.33s.33.95.4,1.47c.14,1-.67,2.13.17,3.13a3.22,3.22,0,0,1-.11,1.22c-.37.7.2.95.49,1.35A1.3,1.3,0,0,1,60.45,37c-.62.63.2,2.06-1.23,2.25-.91-.18-1.22-1-1.66-1.62-1.12,0-1.12-.89-1.34-1.61.37,1.09-.26,2-.54,3-.34,1.16-1.79,1.25-2.62.29a2,2,0,0,1-.2-.3,1.32,1.32,0,0,0-1.37-.73c-.59.07-.59.55-.57,1,0,.65-.11,1.41.66,1.77s2.08-.21,1.38,1.32c-.53,1.15-1.34,2.07-2.68.75-.81,2.27-2.88,3.5-4.63,2.89a21,21,0,0,1,.48-7.15,7.83,7.83,0,0,0-.58-6c-.57.71-.06,2.29-1.27,2.17s-.42-1.62-.85-2.31c-1.08-1.75-.45-4-1.76-5.66a2.81,2.81,0,0,1,0-3c.27-.53.68-1,.26-1.76-1.05.3-.88,2.25-2.41,1.76A2.69,2.69,0,0,1,40,20.69c.35-.38.67-.74.33-1.28-.16-.26-.37-.58-.7-.49s-.54.64-.7,1a4.17,4.17,0,0,0-.13,3c.17.45.4,1-.12,1.34s-1,0-1.45-.39a17.54,17.54,0,0,1-.14-3.76c.2-1.26-.71-2-1.26-2.93-.11-1.36-.47-2.74.36-4,0-.13,0-.26,0-.39.18,0,.41,0,.53-.08a2.55,2.55,0,0,1,1.64-.61c.66,0,1.23-.5,1.92-.47l.63.16.43.38a1.72,1.72,0,0,1,.37.28Z"/><path class="cls-62" d="M41.76,12.5l-.37-.28A.33.33,0,0,1,41.76,12.5Z"/><path class="cls-39" d="M39.92,120.77h-.36l0,0c-.54-.48-1.23-.91-.7-1.8a3,3,0,0,1,2.17-.36c.13-.18.24-.18.33,0l.71.4c.07.73.75,1,1.15,1.44s.18.62-.16.83c-1,.27-1.39-1.23-2.42-.68a2.18,2.18,0,0,1-.45.16Z"/><path class="cls-64" d="M42.88,121.12c.28-.14.28-.41.31-.68l.41-.06a1,1,0,0,0,.69.42,3.21,3.21,0,0,1,0,1.38l-.39.33a1.14,1.14,0,0,0-.7.4l-.72,0C42.05,122.2,42.38,121.65,42.88,121.12Z"/><path class="cls-65" d="M42.88,121.12c.17.68-.35,1.19-.41,1.81h0a.56.56,0,0,1-.38.31c-.36.16-.71.31-1.07.45-.84-.1-.86-.11-.72-.73.06-.3.18-.57-.09-.82-.42-.39-.24-.91-.28-1.38h0l.36-.37A1,1,0,0,1,41,120c.31-.08.56-.14.78.2A2.23,2.23,0,0,0,42.88,121.12Z"/><path class="cls-64" d="M42.08,123.25a.37.37,0,0,1,.38-.31c0,.13,0,.26,0,.38Z"/><path class="cls-12" d="M41.33,118.6h-.16l-.17,0a1.82,1.82,0,0,0,0-.33,1.47,1.47,0,0,1,.36,0Z"/><path class="cls-66" d="M31.43,67.36l0-2.93c1.14-.91,2-2.4,3.81-2,1,2.72.8,5.5.38,8.29a6.86,6.86,0,0,1-.14.79c0,.17-.07.34-.11.51,0,1.16-.17,2.31-.15,3.47,0,.32.12.78-.49.73-.53-.28-1.16-.48-1.1-1.27s-.4-.94-1-1c-.09,0-.18-.14-.27-.22A13.87,13.87,0,0,0,34,72.49.33.33,0,0,0,34,72c-.19-.23-.39-.48-.74-.43s-.3.34-.37.56a1.61,1.61,0,0,1-.22.48s-.3,0-.31,0c-.29-1-1.14-1.71-1-2.86A13.51,13.51,0,0,0,31.43,67.36Z"/><path class="cls-67" d="M34.74,99.42a1.93,1.93,0,0,1,0,.34,1,1,0,0,0-.38.76,6.27,6.27,0,0,0-.84.26c-.31.13-.48.33-.21.67a1.54,1.54,0,0,1,.27.46c.13.54-.17.76-.66.81-.23.06-.46.14-.69.19-.66.15-.72.19-.65.79a7.71,7.71,0,0,1-.37,2.94c0,.06-.08.09-.12.13l0-2.25a.2.2,0,0,1-.08-.21c0-.07.06-.11.09-.11v-1.12c0-1.26,0-2.53,0-3.79a3.16,3.16,0,0,1,.37-1.73,8.29,8.29,0,0,1,.85-.25c.41-.06.54-.76,1-.53.29.14.47.51.7.78A4.35,4.35,0,0,0,34.74,99.42Z"/><path class="cls-68" d="M34.76,76.21c.21-.7-.21-1.43.05-2.09a3.9,3.9,0,0,0,0-1.92c0-.13.2-.27.31-.41a1.09,1.09,0,0,1,.75.95c.15,2.16.36,4.33-.42,6.43l-.7-.74c0-.38,0-.75,0-1.12-.13-.08-.17-.16-.13-.24s.08-.13.12-.13C34.76,76.7,34.76,76.45,34.76,76.21Z"/><path class="cls-66" d="M34.75,76.94c0,.13,0,.25,0,.37-1.53,0-1.53,0-2.46.81-.21-.56.16-.94.35-1.34a.56.56,0,0,1,.75-.32Z"/><path class="cls-13" d="M31.11,93.84a.9.9,0,0,1,.32.77A.72.72,0,0,1,31.11,93.84Z"/><path class="cls-13" d="M32.18,93.51a1.55,1.55,0,0,1,.15.08c0,.12-.09.09-.14-.09Z"/><path class="cls-69" d="M35.14,62.58c-.59,0-1,.73-1.65.44-.22-.09-.5.14-.51.39,0,1.1-.79,1-1.52,1,.09-.29.19-.57.26-.86s0-.47.06-.49c1-.35.79-1,.55-1.77-.1-.32.16-.54.55-.5a5.11,5.11,0,0,1,.53.13c.4.1.57-.15.59-.48s0-.8-.11-.85c-.87-.38-.42-1-.36-1.56,0-.17.06-.35.07-.53s-.05-.13-.09-.14-.26-.05-.31,0c-.33.34-.63.72-1,1.06a.79.79,0,0,1-.5.16c-.21,0-.25-.21-.27-.39,0-.41.05-.87-.36-1.16,0-.86,0-1.72,0-2.58,0-.12,0-.24,0-.37q0-5,0-9.94a.55.55,0,0,1,.62.25c.75,1,1.4,1.2,2.2,0s1.23-.85,1.39.38c-.37.93-1.38,1.85-.06,2.82.64,2.21,0,4.45.16,6.68s-.07,4.23.26,6.33C35.79,61.35,35.85,62.07,35.14,62.58Z"/><path class="cls-13" d="M32,86.26c-.05,0-.09.1-.14.11s-.39-.25-.32-.53a.26.26,0,0,1,.11-.14C31.73,85.66,32,86.06,32,86.26Z"/><path class="cls-70" d="M35.13,44.9a3.75,3.75,0,0,0-.22-.67c-.08-.16-.35-.25-.41-.06a5,5,0,0,1-.94,1.52.86.86,0,0,1-1.14.15,5.2,5.2,0,0,1-1.31-1.67c0-.12,0-.24,0-.37a1.6,1.6,0,0,0,0-1.46c0-.13,0-.26,0-.38a23,23,0,0,0,0-6.26v-4c1.49.41,1.21,2.15,2.21,2.92.66.68.73.11.88-.39s-.47-1.48.42-2c.6,0,.8.38.93.86.54,2.72.09,5.44-.07,8.16-1.58.31-2.1-.42-1.87-1.89-.38-.65.18-1.3,0-1.94-.11-.43-.53-.13-.55-.1-.2.32.17.09.25.21a1,1,0,0,1,.07,1,1.24,1.24,0,0,0,.15,1.25,9.45,9.45,0,0,1-.07,1.07C33.23,43,33.22,43,35.32,43a1.19,1.19,0,0,1,.1,2Z"/><path class="cls-69" d="M31.1,35.7a2.41,2.41,0,0,1,.45,2c-.08,1.14-.05,2.28-.1,3.42a1.1,1.1,0,0,1-.34.8c0-.85-.05-1.7-.08-2.55C31.06,38.17,31.08,36.94,31.1,35.7Z"/><path class="cls-69" d="M31.13,42.34a.93.93,0,0,1,0,1.46Z"/><path class="cls-17" d="M30,54.48a.84.84,0,0,1,.15.08c0,.13-.09.1-.15-.08Z"/><path class="cls-71" d="M60.16,37.18c0-.49,0-1,0-1.48.29-.07.57-.16.87-.22s.52.05.48.34c-.06.53.26.55.63.66.56.17.54.27-.06.74a1.21,1.21,0,0,0-.11.21A8.27,8.27,0,0,1,65.32,39a2.51,2.51,0,0,1,2,1.75c.4.37-.84.4-.17.82V42c.35,1.46,1.19.43,1.84.37h.74c1.71.64,1.11,2.39,1.71,3.64,0-1.56.3-1.82,1.73-1.4.65.19,1.24.53,1.77-.26.31-.48.76-1.25,1.4-.76s-.24,1.15-.35,1.77c-.14.18.3.22.08.11,0,0,0-.06,0-.14a1.11,1.11,0,0,1,1.47-.74,8.44,8.44,0,0,1,2.77,1.73,1.43,1.43,0,0,1-.09.5,1.94,1.94,0,0,1-2.45.85,7.84,7.84,0,0,0,4,1.23,5.5,5.5,0,0,1,1.21.38c2,.8,2,.8,3.12-1.16.13-.22.31-.37.59-.23H87c.12-.13.26-.23.38-.36h.36c.19-.22.55-.13.74-.36l.39-.38.69,0c0,.11,0,.23,0,.35-.82.91-.84,1.1.13,1.79.33.24.41.38.18.67s-.15.66-.08,1c.14.72,0,.82-.72.91-.25,0-.49,0-.73,0s-.45.07-.43.26c.11,1-.8,1-1.29,1.23-.66.29-1.4.29-1.64,1.17-.06.21-.42.27-.65.16a6.6,6.6,0,0,0-2-.37c-.76-.12-1.08.24-1,1l.09.91c-1,.13-1.71-.62-2.54-1a10.55,10.55,0,0,0-4.78-3.73c-.47.79-.42,2.16-1.86,2.25a1.15,1.15,0,0,1-.52-.06,1.39,1.39,0,0,1-.52-.58c-.8-1.09-.47-2.48-1.19-3.71a6.87,6.87,0,0,0-3.65-3.49,2.56,2.56,0,0,1-1.37-1.14c-.34-.47-.18-1.24-.92-1.47a2.1,2.1,0,0,1-.42-.22,1,1,0,0,1-.41-.6.57.57,0,0,1,.22-.43c.33-.21,1.19-.2.41-.91-.4-.37-.94-.54-1.34-.93-.39-1-1.12-.53-1.78-.37a.87.87,0,0,1-.45-.22c-.34-.44-.14-1-.41-1.48A.66.66,0,0,1,60.16,37.18Z"/><path class="cls-72" d="M93,49.68c.63.46,1.27.9,1.89,1.38.23.17.52.38.44.72s-.5.46-.86.5-.52.12-.64.28a4.87,4.87,0,0,0-.93,1.53.57.57,0,0,1-.75.35c-.73-.27-.25-1-.57-1.53-.12-.18,0-.48.34-.52s.36.07.53,0a.35.35,0,0,0,.14-.65c-.52-.32-.22-.56-.13-1S92.34,49.87,93,49.68Z"/><path class="cls-44" d="M79,54.86c1.07-.13,1.76.61,2.57,1.1.11.34.28.68-.34.73s-1.34-.21-1.87.37h-.73a.49.49,0,0,0-.74,0l-.37,0a.66.66,0,0,1-.15-.71C77.78,55.78,78.14,55.08,79,54.86Z"/><path class="cls-73" d="M77.48,56.34c0,.24,0,.49,0,.73a1.76,1.76,0,0,1,0,.33,5.77,5.77,0,0,0-1.4.22,28.2,28.2,0,0,0-3.74,1.63c-.23,0-.46,0-.69,0-1,0-1,0-1.13-1.1-.11-.55.25-.53.61-.51a1.15,1.15,0,0,0,1.33.3,34.29,34.29,0,0,0,4.11-1.83A.83.83,0,0,1,77.48,56.34Z"/><path class="cls-3" d="M80.79,60c-.63.22-.63.22-.74-.36A.78.78,0,0,1,80.79,60Z"/><path class="cls-73" d="M77.84,57.05c.25-.37.49-.37.74,0Z"/><path class="cls-74" d="M88.89,46.74l-.37-.38Z"/><path class="cls-22" d="M101,54.48c0,.89,0,.89-.72,1.09a2.7,2.7,0,0,0-1.07-1.29c-.18-.11-.28-.36-.41-.54A2.45,2.45,0,0,1,101,54.48Z"/><path class="cls-75" d="M69,66.63c-.12.13-.24.25-.37.37-.63,0-1.18.48-1.84.36-.1-1.37-1.31-1.91-2.15-2.69-.27-.25-.82-.29-1-.68-.47-.85-1.11-.69-1.89-.53-1,.21-2.09.6-2.79-.62-.21-.35-.42-.7-.65-1a2.22,2.22,0,0,1-.25-.42,1.42,1.42,0,0,1-.14-1.19c-.06-1.34-1-2.55-1.9-2.42-.31.39-.3,1-.72,1.27s-.72.46-1,.16c-.58-.63-.64-1.56-1.18-2.25-.34-.43-.06-.93.31-1.31.68-.06,1.23,0,1.57-1,.49-1.28,1-1.24,1.85-.07.51.73,1.29,1.31,1.26,2.44A4.31,4.31,0,0,1,59.76,56a.45.45,0,0,0,0-.53,1.08,1.08,0,0,1-.13-.66c.46-.82.94-.5,1.43,0,.23.7.39,1.46,1.47,1.1.27-.09.44.31.51.6A1.73,1.73,0,0,1,63,57a3.22,3.22,0,0,1-.3.71c-.76.83.09,1.56.14,2.33,0,.13-.29.26-.15.37s.42,0,.64,0a3.4,3.4,0,0,1,.46.09c1.13-.52,2-1.66,3.37-1.58a1.21,1.21,0,0,0,.58,1.22c.89.57.86.62.18,1.37-.12.13-.26.27-.16.45a.29.29,0,0,0,.46.06,2.7,2.7,0,0,1,1.87-.42c.12,0,.27.22.32.37a.27.27,0,0,1-.25.38c-1-.12-1.43.6-1.66,1.35a2,2,0,0,0,.31,2C69.13,66,69.2,66.27,69,66.63Z"/><path class="cls-76" d="M71.2,57.77a.8.8,0,0,0-.72.39,1.24,1.24,0,0,1-.74-.73L69,57.8a6.12,6.12,0,0,1-.57-2,.56.56,0,0,1,.25-.35c.48.27.2-.27.36-.35.26-.34,1-.31,1-.7,0-.55-.72-.44-1.11-.64s-.77-.92-1.49-.29c-.34.3-.79-.12-1.07-.44a5.43,5.43,0,0,0-2-1.25,1,1,0,0,1-.34-.38c-.22-1.67-.4-3.35-.61-5A2.2,2.2,0,0,1,64,44.58c.39-.33.73-.87,1.36-.41A2.24,2.24,0,0,0,67,45.4,2.82,2.82,0,0,1,69.14,47a1.81,1.81,0,0,0,1.27.95c.19.05.34.3.24.41-.75.78-.08.94.47,1.2a.62.62,0,0,1,.32.77,6.36,6.36,0,0,0,.1,1.81,6.78,6.78,0,0,1,0,.91c.13.11.24.25.37.36h0c.81.4,2,.53,1.24,1.94a1.77,1.77,0,0,1-.41.26c-.73.22-.78.88-1,1.46A1.32,1.32,0,0,1,71.2,57.77Z"/><path class="cls-77" d="M68.64,55.6s0,.13,0,.17a1.91,1.91,0,0,1,.34,2c-.05.4-.22.7-.66.71a2.93,2.93,0,0,0-1.19.39l-.35.07c-.42.11-.28.67-.62.8a5.24,5.24,0,0,1-1,.24c-.55.09-.51.59-.7.94-.07.15-.22.33-.39.23s-.15-.29-.21-.45a3.65,3.65,0,0,1-.11-1.94c1.16-1.31,2.54-2.42,3.73-3.71A1.36,1.36,0,0,1,68.64,55.6Z"/><path class="cls-3" d="M72.33,59.28c.21.11.44.21.65.33.61.36.6.36.48,1.14,0,.12,0,.24,0,.36-.76,0-.88-.72-1.23-1.17C72.1,59.82,72.27,59.51,72.33,59.28Z"/><path class="cls-3" d="M72.68,64.06l.37.36Z"/><path class="cls-78" d="M31.09,28.7c0-.73,0-1.47,0-2.2.82-2.08.16-4.26.39-6.38.06-.57-.32-1.25.58-1.47A1.8,1.8,0,0,1,33,19c.44.35.88.88.72,1.36-.54,1.54.42,1.88,1.53,2.18a1.75,1.75,0,0,1,.27,1c-.07,1.59-.82,1.19-1.81.28,1.23,2.25,1.12,3.06-.38,4.28-.44-.34-.84-1.17-1.36,0C31.84,28.35,31.67,28.84,31.09,28.7Z"/><path class="cls-79" d="M31.09,28.7a20.79,20.79,0,0,1,1.26-1.85c.24-.29.35-.25.5,0A1.93,1.93,0,0,1,33.29,28c1,.84.93,1.92.67,3-1.27.38.09.78,0,1.18a2.07,2.07,0,0,1,0,.5,9.39,9.39,0,0,1-.46,1.73l-.18.18c-.24,0-.47.09-.71.11-.08,0-.16-.1-.24-.16.75-.79-.6-.73-.54-1.31a1.81,1.81,0,0,0-.7-1.58C31.1,30.67,31.1,29.69,31.09,28.7Z"/><path class="cls-80" d="M32.59,5.92c0,.76.59,1.17,1,1.7s.8,1,1.21,1.57c.19,2-.21,2.85-1.84,3.3-.93.26-.37,1-.74,1.42a1.29,1.29,0,0,1-.25.44.46.46,0,0,1-.48,0c0-.95-.59-1.84-.22-2.82a.47.47,0,0,0-.34-.55c-.22,0-.13.47-.55.4.1-.73-.28-1.53.37-2.18.63-.06.89.49,1.32.81.12-.57-.43-.78-.58-1.19a3.19,3.19,0,0,0,.38-1.37A1.64,1.64,0,0,1,32.59,5.92Z"/><path class="cls-81" d="M32.18,18.77c-.33.18-.73.4-.47.82a2.24,2.24,0,0,1,0,2.24A.88.88,0,0,0,31.94,23c.39.37.13.79-.06,1.17s-.37.78.28,1c.22.06.13.3,0,.43-.35.33-.71.65-1.07,1,0-2.25,0-4.49,0-6.73a10.29,10.29,0,0,1,0-2.48c.27-1-.46-2.2.73-2.94h0c1-1,1.27-.07,1.48.57A5,5,0,0,1,33.12,18a2,2,0,0,1-.28.44,1.4,1.4,0,0,1-.41.3Z"/><path class="cls-82" d="M31.45,8.82c.59,0,1.09.08,1.12.84a2.88,2.88,0,0,0,.18.7c.07.26,0,.48-.25.58a.57.57,0,0,1-.66-.15c-.42-.5-.55-1.2-1.13-1.59A.79.79,0,0,1,31.45,8.82Z"/><path class="cls-82" d="M31.81,14.35a3.24,3.24,0,0,0-.41,2.36c.07.23-.1.44-.32.58-.29-1-.7-2.08.37-2.94Z"/><path class="cls-83" d="M80.05,46.38c0-.24,0-.52-.39-.47s-.61.37-.89.61a.35.35,0,0,1-.49,0,.77.77,0,0,1-.2-.47c0-.34.36-.65.13-1a1.58,1.58,0,0,0-.36-.09c-1.32,0-1.31,0-1.38,1.39a.53.53,0,0,1-.15.26c-.16-.06-.37-.11-.45-.24a1.4,1.4,0,0,1,0-1.7,3.47,3.47,0,0,0,.34-.42.37.37,0,0,0-.08-.49c-.06,0-.24,0-.33.09-.54.36-.65,1-1.08,1.55a3.08,3.08,0,0,1-2.16-.61c-.28-.24-.58-.07-.79.2a.42.42,0,0,0,.1.63c.09.08.2.14.29.22s.35.37.19.62a1.13,1.13,0,0,1-.7.55.37.37,0,0,1-.32-.11A5.14,5.14,0,0,1,70.72,45a4.5,4.5,0,0,0-1-2.67c-.39-.64-1-1.2-.49-2.07.12-.21-.07-.45-.22-.64s-.51-.65-.76-1c.67-.52,1.55.24,2.2-.37.49,0,1,0,1.46,0a2.8,2.8,0,0,1,2.41,1,.53.53,0,0,0,.13.13,4.32,4.32,0,0,1,2,2.58c0,.11.09.23.15.34.35.75.79.9,1.4.33a14.51,14.51,0,0,1,2-1.2c.73.52,1.47,1,2.22,1.56a1,1,0,0,1,.43.75C82.93,45.84,82.22,46.56,80.05,46.38Z"/><path class="cls-74" d="M80.05,46.38a1.12,1.12,0,0,1,.32-.14c1.51-.12,2.12-1.05,2.26-2.44a3.31,3.31,0,0,1,2.16,2.47c.19.78.49,1.2,1.28,1.23a.84.84,0,0,1,.61.35c-.42.29-.37.73-.38,1.14a1.52,1.52,0,0,1-.58,1.08.9.9,0,0,1-1,.26c-.71-.3-1.56-.2-2.17-.8-.27-.26-.68-.2-1-.2-.32-1-1.52-1.41-1.47-2.58Z"/><path class="cls-32" d="M74.39,35a.62.62,0,0,1-.62.51c-.25-.06-.52-.47-.44-.69s.35-.26.58-.23S74.38,34.74,74.39,35Z"/><path class="cls-58" d="M70.47,38.28c-.17.33-.35.6-.8.51s-.94-.09-1.4-.14a.89.89,0,0,1,.77-.36Z"/><path class="cls-58" d="M67.59,37.06c.09.07.35.2.33.28-.07.31-.37.15-.57.21s-.24,0-.18-.19S67.29,37,67.59,37.06Z"/><path class="cls-74" d="M88.52,47.12a.76.76,0,0,1-.74.36A.75.75,0,0,1,88.52,47.12Z"/><path class="cls-74" d="M87.42,47.49l-.38.36Z"/><path class="cls-84" d="M32.93,120.76h-.39c-.66.09-1.05-.34-1.46-.75a1.63,1.63,0,0,0-.65-1.19c-.37-.4-.19-.58.26-.7.15,0,.26-.21.39-.33s.15-.52.37-.71h1.48c2,1,2.37,1.81,1.48,3.3,0,.11,0,.22,0,.33-.37,0-.73,0-1.09.06A.21.21,0,0,1,32.93,120.76Z"/><path class="cls-85" d="M34.41,120.38a1.29,1.29,0,0,0-.16-1.8,17.06,17.06,0,0,1-1.32-1.5H34.4l.68.06a4.55,4.55,0,0,1,0,2.78A.69.69,0,0,1,34.41,120.38Z"/><path class="cls-40" d="M34.39,107.87c-.26.43-.7.35-1.1.37,0-.12,0-.24,0-.35s0-.49.28-.58.39.18.54.34A2.88,2.88,0,0,0,34.39,107.87Z"/><path class="cls-67" d="M33.29,103.45c.21,0,.45-.27.63,0a.6.6,0,0,1,0,.51,1,1,0,0,1-.64.61Z"/><path class="cls-85" d="M31.45,117.08a.71.71,0,0,1-.37.71A.72.72,0,0,1,31.45,117.08Z"/><path class="cls-49" d="M36.61,124.39c.54-.53,1.22-.25,1.84-.31C37.91,124.63,37.24,124.38,36.61,124.39Z"/><path class="cls-49" d="M32.9,124.09c.4,0,.81-.09,1.11.28a4.59,4.59,0,0,0-.51.1C33.15,124.58,33,124.43,32.9,124.09Z"/><path class="cls-49" d="M35.13,124.39c.12-.17.24-.18.37,0Z"/><path class="cls-14" d="M31.07,104.2c0,.11,0,.22,0,.32s-.19-.12-.13-.23A.48.48,0,0,1,31.07,104.2Z"/><path class="cls-33" d="M34,114.5s.15.06.15.08-.09.09-.14-.09Z"/><path class="cls-86" d="M38.83,118.94a1.21,1.21,0,0,0,.3.83,1.35,1.35,0,0,1,.4,1,2.32,2.32,0,0,1-1.74.33c-.64-.12-1.28-.26-1.92-.39a.18.18,0,0,1-.06-.15c0-.06.06-.1.09-.15.64,0,1.26.1,1.57-.76C37.65,119.12,38.38,119.2,38.83,118.94Z"/><path class="cls-87" d="M35.14,62.58a4.56,4.56,0,0,0-.09-2.83A15.48,15.48,0,0,1,34.89,58a5,5,0,0,0-.07-1.77A1.66,1.66,0,0,1,34.91,55a3,3,0,0,0,0-2.13,2.78,2.78,0,0,1-.09-1.43A9.11,9.11,0,0,0,35,48a1.55,1.55,0,0,1,.14-.53l.26-.07c.64.44.79,1.2,1.19,1.8a13.1,13.1,0,0,1,.19,3.19c0,.3,0,.6,0,.9v.62c0,.32,0,.63,0,1,0,2.33.12,4.66,0,7,.05,1.71,0,3.41,0,5.12,0,2.49.09,5,0,7.47a10.81,10.81,0,0,1-.12,2,3.18,3.18,0,0,1-.42.87c0,1,0,2-.07,3-.7-.06-.62-.62-.69-1.08,0-1.82,0-3.63,0-5.45a3.67,3.67,0,0,0-.37-1.93h0a.5.5,0,0,0,0-.75,15.08,15.08,0,0,0,.2-5.64A5.85,5.85,0,0,0,35.14,62.58Z"/><path class="cls-88" d="M50.61,74.39a2.16,2.16,0,0,0-1.12.71l-2.57.76c-.4.11-.71.74-1.23.25-.22-1,.54-1.24,1.2-1.55,1.63-.76,3.52-1,4.61-2.76.34-.53,1.08-.52,1.69-.62.38,0,.81,0,.72.62a.7.7,0,0,0,.79.72c.23,0,.46,0,.69,0a10.07,10.07,0,0,1-2.64,1.06c-.6.26-1.29.28-1.79.77A.24.24,0,0,1,50.61,74.39Z"/><path class="cls-53" d="M45.79,76.18a2.63,2.63,0,0,1,1.13-.32,2.21,2.21,0,0,1-2.79,1.82,4.87,4.87,0,0,0-.54,0c.36-.43.24-1.1.74-1.46A1,1,0,0,1,45.79,76.18Z"/><path class="cls-53" d="M43.22,78l.37-.36Z"/><path class="cls-44" d="M55.76,73.26c.12-.12.23-.24.36-.36C56,73,55.88,73.14,55.76,73.26Z"/><path class="cls-89" d="M53.91,71.8a.75.75,0,0,0-.73-.39l-.25,0a1.27,1.27,0,0,1-.43-.23.56.56,0,0,1,0-.7c1.11-1.35,2.16-2.73,3.89-3.4a2,2,0,0,0,1.49-2.38c-.17-.93.4-1.45,1-2l.22-.13c.47.48.93,1,1.71.61.63-.27,1.46.06,1.95-.68.14-.21.46,0,.6.17s.38.76.6,1.12c.31.53.48.56,1.18.29s.88-.11.82.56c0,.12-.11.23-.11.34,0,.74.43,1,1.26.83.2,0,.35,0,.45.13s.27.45,0,.64a1.89,1.89,0,0,0-.74.77c-.62,0-1.19.07-1.47.74-.31.33-.81,0-1.12.36A32.89,32.89,0,0,0,59,70.32a12.7,12.7,0,0,1-3.59,1.11,4.24,4.24,0,0,1-.39.33Z"/><path class="cls-48" d="M64.2,68.46c.28-.41.71-.35,1.12-.36C65.05,68.54,64.61,68.46,64.2,68.46Z"/><path class="cls-88" d="M55,71.76l.39-.33Z"/><path class="cls-43" d="M50.61,74.39a2.07,2.07,0,0,1,.35,0C50.86,74.55,50.75,74.6,50.61,74.39Z"/><path class="cls-37" d="M32.93,120.76a1.29,1.29,0,0,1,.34,0C33.15,121,33,121,32.93,120.76Z"/><path class="cls-90" d="M36.24,52.64l-.06-3.7A1,1,0,0,1,36,48.2c.24-.59.27-1.42,1.28-1.16a.81.81,0,0,1,.24.34,1.39,1.39,0,0,1-.09.54.32.32,0,0,0,.23.19,2.44,2.44,0,0,0,.35-.43,2.77,2.77,0,0,0,0-2.29A6.21,6.21,0,0,1,38.05,42c.11-.42.29-1,.78-.84.92.29.42-.06.17-.31a.77.77,0,0,1,0-1.15c.95-.77-.56-2.67,1.38-2.93.25.2.51.47.47.75-.3,2.25.83,4.33.67,6.55,0,.56.28.12.36.12,1.49,0,1.79.34,1.33,1.72a2.19,2.19,0,0,0,.21,2.06c1.13,1.72,1.94,3.51,1.07,5.63-.21.51.25.9.45,1.33.33.69,1,1.29.63,2.18a.69.69,0,0,1-.68.15c-.84-.35-3.7-4.21-3.55-5.12.25-1.67,0-3.36-1.39-3.52-.39,1-1.16,1.8-1.1,2.95,0,.07,0,.14,0,.22a1.31,1.31,0,0,1-.26.62,2.3,2.3,0,0,1-.37.32C37.51,53.08,36.85,53.63,36.24,52.64Z"/><path class="cls-91" d="M39.91,48.59c.16-.18.27-.42.46-.54.38-.25.81-.19,1,.13.41.94.8,1.89,1.13,2.86.16.46-.27.74-.52,1.08s-.09.78.34.75c.65-.06.92.22.94.79s.07,1.21.71,1.55a.58.58,0,0,1,.28.61c0,.84.5,1.15,1.24,1.24.63-.1.71.41.76.79.39,2.95,1.17,5.86.4,8.89-.34,1.32,0,2.78-1.32,3.8-.51.41,0,1,.22,1.52,0,.32,0,.54-.44.46a4.33,4.33,0,0,0-2.72-.79c0-.64-.25-1.21.22-1.64.63-.59.37-.82-.27-1.12A.71.71,0,0,1,42,68c.35-.64.39-1.43,1-1.92a1.16,1.16,0,0,0,.38-.62,2.42,2.42,0,0,1,1.3-2.06.21.21,0,0,0,.12-.14c.12-1.23.87-2.41.31-3.7-.63-.34,0-1.2-.71-1.58s-.63-1-1-1.52A4.57,4.57,0,0,0,42,55.12a1.49,1.49,0,0,1-.81-2c.17-.41,0-.65-.25-1a1.82,1.82,0,0,1-.36-1.55A2.5,2.5,0,0,0,39.91,48.59Z"/><path class="cls-92" d="M36.24,53.75c0-.13,0-.25,0-.38a2.6,2.6,0,0,0,2.19-1.1h0c.23-.19.16-.53.37-.73h0a.7.7,0,0,1,.24,1,.66.66,0,0,0,.25.93,1.8,1.8,0,0,1,.85,1.71c0,.22.11.29.23.42a1.57,1.57,0,0,1,.29,2.19,1.71,1.71,0,0,0-.37,1.17c0,.16,0,.49.26.33.52-.35.74-.09,1,.31s.57.64.82,1c.89,1.25.91,1.27.13,2.56a6,6,0,0,0-.44,1.18c-.3.78-.18,1.71-.83,2.38a.73.73,0,0,0-.17.51c.2,1.62-.59,3.07-.79,4.62-.81,0-.9-.68-1.23-1.14-.18-1.89-.61-3.83,1-5.42,1.32-1.17.68-2.5.21-3.74a12.91,12.91,0,0,0-.85-1.76c-.19-.62-.46-1.17-1.22-1.22-.74-.21-1-.8-1.07-1.47a4,4,0,0,1-.12-.91c0-.21,0-.43-.05-.64s-.06-.27-.1-.4a3.12,3.12,0,0,1-.15-.39A2,2,0,0,0,36.24,53.75Z"/><path class="cls-93" d="M45.06,72.52l.38-.37c.35-.44.89-.45,1.37-.62s1-.19,1.43-.37c.31-.13.61-.26.93-.38a2.83,2.83,0,0,1,.5-.13A9,9,0,0,1,52,70.39a.91.91,0,0,1,.42.3l.39.36a2.09,2.09,0,0,0,.37.36h0c-.14.11-.28.31-.42.32A1.41,1.41,0,0,0,51.24,73a1.45,1.45,0,0,1-1.26.92c-1.26.24-2.29,1-3.52,1.32-.46.1-.62.53-.67,1l-1.46,0c-.28-.51-.2-.88.37-1.12a1.73,1.73,0,0,0,.37-.35c.46-.87,1.52-.79,2.25-1.37-.67-.3-1.32.51-1.88-.1A.81.81,0,0,1,45.06,72.52Z"/><path class="cls-52" d="M39.19,70.69a.71.71,0,0,1,.73.56,2.54,2.54,0,0,0,.36.54c.25,2,2.52,2.58,2.95,4.42a2.05,2.05,0,0,1-.73,1.47h0a8,8,0,0,0-4.35-3.5.63.63,0,0,1-.13-.86c.56-.06.33-.42.26-.72C38.39,71.87,38.31,71.05,39.19,70.69Z"/><path class="cls-92" d="M43.23,76.21a4.9,4.9,0,0,1-.45-.57c-.28-.48-.53-.93-1.21-1s-.94-.56-1.06-1.11a15.1,15.1,0,0,1-.23-1.79c.4,0,.63-.32,1-.43.06.41.12.81.18,1.18.37.18.62,0,.89-.14s.72-.43.92,0-.33.43-.57.59-.51.49-.2.87A3.17,3.17,0,0,1,43.23,76.21Z"/><path class="cls-94" d="M45.44,73.27C46,73.12,46.5,73,47,72.82s.56,0,.65.38c.16.58.15.73-.35.77-.82.08-1.42.74-2.25.77-.7-.3-.77-.5-.31-.92C45,73.63,45.21,73.45,45.44,73.27Z"/><path class="cls-95" d="M36.23,77.3c0-.24,0-.48,0-.73a1,1,0,0,0,0-1.83c0-2.58,0-5.16,0-7.74.93-.46.36-1.38.62-2,.2-.5-.09-1.41,1-1.18a1.76,1.76,0,0,1,.29.77,61.71,61.71,0,0,1-.24,8.81,3.11,3.11,0,0,0,.21,1.25A3.1,3.1,0,0,1,38,76.08a2.45,2.45,0,0,1-.34.5,1.63,1.63,0,0,1-.18,1c-.17.21-.41.35-.5,0C36.88,77,36.57,77.18,36.23,77.3Z"/><path class="cls-96" d="M37.75,76.18c0-.48,0-1,0-1.42.2-.21.07-.58.35-.76a2.14,2.14,0,0,1,2.23.84,2.12,2.12,0,0,0,1.19.81c1,.23,1,.88,1,1.66,0,.12,0,.24,0,.36a1.33,1.33,0,0,0-.91.37c-.18.17-.38.24-.56,0-.62-.63-1.68-.75-2-1.81-.3.49-.11,1.12-.6,1.44h-.35L38,76.6C37.93,76.46,37.83,76.32,37.75,76.18Z"/><path class="cls-97" d="M37.75,76.18l.28.42-.33,0C37.72,76.44,37.73,76.31,37.75,76.18Z"/><path class="cls-98" d="M38.44,77.67c0-.66.05-1.32.13-2,0-.13.23-.25.38-.32s.22.12.25.22a2.49,2.49,0,0,0,1.48,1.65c.29.09.31.48.34.79a6.59,6.59,0,0,0-1.77.14C38.81,78.32,38.61,78,38.44,77.67Z"/><path class="cls-82" d="M32.55,18.4a6,6,0,0,0,.34-3.63c-.12-.54-.29-.58-1.07-.42-.21-.91.58-1.74,0-2.64.22,0,.29-.06.33,0,.36.18.76.57,1.07.51.57-.11.78-.73,1-1.24s.36-1.16.53-1.75l.76.74c.49.4.3,1,.33,1.47-1.5.08-1.17,1.14-.86,1.91.86,2.14-.71,3.77-1.06,5.65-.06.36-.6.3-.93,0A.82.82,0,0,1,32.55,18.4Z"/><path class="cls-54" d="M32.92,18.77c.79.17,1,.07,1-.47,0-.3-.07-.6-.07-.9s0-.43.09-.51c.53-.4.91-.78.36-1.46-.15-.17.13-.26.27-.36.52-.4.6-.63.36-1a4.22,4.22,0,0,0-.47-.56.91.91,0,0,1-.21-1.16c.31-.61.6-1.24.89-1.86.47.23.28.78.69.91,0,.59,0,1.18,0,1.77a.43.43,0,0,1,.13.32q0,.18,0,.18c-.17,2.42-.42,4.83-.4,7.26a1.72,1.72,0,0,1-.45,1.51c-.48.38-1,0-1.58.19s-.66-.18-.6-.62a1.24,1.24,0,0,1,.12-.52,1.91,1.91,0,0,0-.14-2.36c-.1-.08-.13-.16-.1-.24S32.89,18.77,32.92,18.77Z"/><path class="cls-99" d="M35.84,13.63l0-.46a1.07,1.07,0,0,0,.35.06c0,1.48,0,3,.05,4.44.84,1.88.66,3.58-.47,4.39-.76-1.89-.1-3.82-.16-5.74A6.31,6.31,0,0,1,35.84,13.63Z"/><path class="cls-58" d="M49.49,25a7.93,7.93,0,0,0,2.53,0c0-.52,0-1.05.07-1.59s.33-.59.71-.65h0a2.61,2.61,0,0,1,.74.74c.19.23.54.15.74.36.18,0,.43,0,.52.13A3.49,3.49,0,0,0,58,25a3.13,3.13,0,0,1,.25.48c.18.49.5.43.86.24.25,0,.24-.25.37-.36a.74.74,0,0,1,.74.36v1.11c-.79.53-1.77.31-2.63.64a2.38,2.38,0,0,0-1.32.84c-1,1.41-1.44,1.37-2.72-.11,0,.69.7,1.21.41,1.94-.29.28-.73.49-1,.28-1-.83-1.95-1.45-3.31-.55-.42.28-.78-.38-.64-.81C49.41,27.77,49,26.34,49.49,25Z"/><path class="cls-61" d="M53.54,23.55a1.26,1.26,0,0,1-.74-.74h.73C53.53,23.07,53.54,23.31,53.54,23.55Z"/><path class="cls-61" d="M54.28,23.91a.74.74,0,0,1-.74-.36A.78.78,0,0,1,54.28,23.91Z"/><path class="cls-59" d="M53.91,30.18a3.24,3.24,0,0,1-.81-2.32c.27-.22.45,0,.59.15a2.71,2.71,0,0,0,.92.86c.49.24,1,.17,1.13-.43a2.13,2.13,0,0,1,.28-.85.8.8,0,0,1,.88-.49,2.22,2.22,0,0,0,.72.06c.47-.07.73-.72,1.3-.52a3.34,3.34,0,0,0,1.25.23,10.25,10.25,0,0,1,3,1.36,1.18,1.18,0,0,1,.37.4.29.29,0,0,1,0,.3.35.35,0,0,1-.32.09c-.38-.18-.72-.44-1.11-.6a.78.78,0,0,0-1,.88,6.89,6.89,0,0,1,.15.89.65.65,0,0,1-.31.41c-.21.12-.29-.07-.36-.25a1.69,1.69,0,0,0-.23-.49.61.61,0,0,0-.32-.11s-.1.07-.11.12c0,.52-.29,1.11.44,1.4.13.05.43.22.12.33-.81.29-.58,1-.64,1.53a2,2,0,0,0-.53-.49c-.31-.13-.77,0-.79-.55s.36-.45.55-.67A2.68,2.68,0,0,0,59.27,29a.63.63,0,0,0-.64-.27c-.68,0-1.08.53-1.54.91-.1.07-.07.33-.05.5a7.19,7.19,0,0,1,.15.89.77.77,0,0,1-1.12.75c-.32-.11-.83,0-.9-.49s.33-.55.71-.62c.19,0,.23-.27.17-.45S55.9,30,55.84,30C55.2,30.07,54.5,29.71,53.91,30.18Z"/><path class="cls-83" d="M69,42.33c0,.23.42.67-.15.61a1.66,1.66,0,0,0-1.13.37.6.6,0,0,1-.68,0,.53.53,0,0,1-.16-.65,4.21,4.21,0,0,1,.28-.66c.32.13.61.29,1,0S68.81,42,69,42.33Z"/><path class="cls-100" d="M67.18,40.83A6.82,6.82,0,0,0,65.32,39c0-.31.11-.69.51-.37.85.66,1.64,1.39,2.45,2.1.06,0,0,.2.06.3a.89.89,0,0,1-.32,0,4.25,4.25,0,0,1-.49-.21C67.39,41,67.28,41,67.18,40.83Z"/><path class="cls-83" d="M67.18,40.83l.35,0a.73.73,0,0,1-.37.72c-.41,0-.85.1-1.22-.17a.45.45,0,0,1-.12-.63.37.37,0,0,1,.46-.15C66.58,40.73,66.78,41.26,67.18,40.83Z"/><path class="cls-58" d="M59.43,25.4c-.09.15.18.68-.37.36Z"/><path class="cls-59" d="M49.49,25A12.26,12.26,0,0,1,49.16,29a.49.49,0,0,0,.24.61.44.44,0,0,0,.61-.21c.26-.54.76-.5,1.21-.63.75-.21.92-.22,1,.41.08.8.45,1.05,1.16,1h.55c.15.82.61,1.61.09,2.47a1,1,0,0,0,.11.88c.07.16.09.35-.13.4s-.23-.1-.28-.19-.15-.47-.27-.68-.38-.27-.63-.3c-.24-.2.28-.79-.41-.77a8.61,8.61,0,0,1-2.13-.63c-.4.42-.19,1-.46,1.61,1-1.15,2-1.5,3-.21v.37c-.46.49-1.22.6-1.55,1.26a.59.59,0,0,1-.66-.16l-.37.37a4.21,4.21,0,0,0-.36.37c-1,.21-1.26-.69-1.85-1.11h0A2.27,2.27,0,0,1,48,31.67c.16-.5.45-1,.07-1.49h0a.24.24,0,0,1-.08-.24c0-.09.05-.13.08-.13.39,0,.78-.2.66-.66a1.29,1.29,0,0,1,.3-1.48A.82.82,0,0,0,49,26.8,1.36,1.36,0,0,1,49.49,25Z"/><path class="cls-101" d="M46.91,71.79c-.39.53-1,.31-1.47.36-.85-.45-1.19-1-1.06-1.65a.8.8,0,0,1,.29-.44c.2-.13.47-.16.67-.29a1.36,1.36,0,0,0,.58-2,1,1,0,0,1,.06-1,6.19,6.19,0,0,0,.46-3.88,17.3,17.3,0,0,1-.28-2.35c-.11-1.09-.31-2.16-.49-3.24,0-.1-.15-.18-.23-.27a7.65,7.65,0,0,0-1.14-2.24A4.65,4.65,0,0,1,44,54.2.89.89,0,0,1,44.12,53c.46-.41.69-.85.17-1.4a.7.7,0,0,1-.21-.48c.24-1.27-.49-2.15-1.15-3.07a4.86,4.86,0,0,1-.42-.59,1,1,0,0,1,0-1.34c.33-.39.85-.92.44-1.42s-1-.2-1.57-.13c-.24,0-.47.16-.71.16s-.3-.18-.31-.38,0-.3.29-.36c.72-.18.75-.25.48-.72a4,4,0,0,0-.43-.58c-.13-.14-.23-.36-.08-.45.9-.53.29-.92-.06-1.4a2.45,2.45,0,0,1-.19-2.12,3.88,3.88,0,0,0-.08-1.95,2,2,0,0,1-.66-1.26c-.23-1.29-.23-2.65-1.57-3.47-.36-.21-.22-.79-.36-1.17s0-1.29-.87-1.36a.69.69,0,0,1-.46-.88,8,8,0,0,0,.18-3.92c-.08-.43.17-.67.54-.82l.25,0a4.69,4.69,0,0,1,.54.11c.23.07.47.23.68.08s.12-.45,0-.66A4.18,4.18,0,0,1,38.93,19a5.69,5.69,0,0,0,.4-1.09,4.33,4.33,0,0,1,1.72,1.51c.31.34,0,1.3-.53,1.5s-.74.56-.75,1.22a16.33,16.33,0,0,0-.22,1.78.91.91,0,0,1,.11.7c-.16.8-.16.8.51,1.28a1.18,1.18,0,0,1,.45.77c.49,2.74,1.76,5.32,1.67,8.19,0,1.41.43,2.77.51,4.17.07,1.13.53,1.46,1.52.76.33-.23.68-.68,1.11-.31s.1.79,0,1.2a4,4,0,0,0,.12,3c.44.8-.37,1.63-.16,2.49A15.5,15.5,0,0,1,46,53.74a3.12,3.12,0,0,0,.73,2.39,4.33,4.33,0,0,1,.81,3.62,9.31,9.31,0,0,0,.26,3.57A15.94,15.94,0,0,1,46.91,71.79Z"/><path class="cls-102" d="M45.07,46c-.35-.49,0-.92.15-1.36a1.32,1.32,0,0,0-.07-1A3.51,3.51,0,0,1,45.29,40c0-.06,0-.2-.07-.31-.5,0-.63.5-.91.79a1,1,0,0,1-1.69-.13,1.38,1.38,0,0,1-.27-.67c0-2.12-.73-4.17-.6-6.3,0-.78-.57-1.5-.22-2.32-.39-.53-.83-1-.65-1.78a3.16,3.16,0,0,1-.61-2.41,1.42,1.42,0,0,0-.13-.53.49.49,0,0,0-.25-.24.32.32,0,0,0-.28.14c-.19.37-.35.76-.55,1.22a1.62,1.62,0,0,1-.26-1.64c.28-.61.5-1.25.75-1.87a1.14,1.14,0,0,0,1.12-.79c.17-.46.28-.93.43-1.39a.61.61,0,0,1,.77-.3,1.37,1.37,0,0,1,.61,2.24,3.05,3.05,0,0,0-.74,2.16,2.61,2.61,0,0,0,.7,1.65,2.77,2.77,0,0,1,.62,2.7.88.88,0,0,0,.62,1.27c.32.1.27.5.28.81,0,.73,0,1.46.07,2.19,0,.09.13.2.22.25s.35-.09.38-.26c.19-.83.34-1.66.53-2.49a.47.47,0,0,1,.51-.41c.27,0,.4.27.45.51a4.48,4.48,0,0,1,.05.73c0,.24,0,.54.09.72.5.75,1.12,1.46.47,2.43.41.82-.15,1.68.12,2.52a.92.92,0,0,1-.25.65,2.16,2.16,0,0,0-.35,2.09c.18.63.16,1-.42,1.38a.32.32,0,0,0-.11.48c.68.78.38,1.58.12,2.41a1.61,1.61,0,0,0,0,.54.31.31,0,0,1,.09.28c0,.09,0,.14-.07.14C45.42,46.57,45.27,46.25,45.07,46Z"/><path class="cls-103" d="M45.81,46.38V46c.23-.06.51-.23.69-.15.79.33,1.15-.1,1.4-.72a1,1,0,0,1,1.26-.73c.38.07.52-.3.34-.77-.29-.75-.28-.77.18-1,.69-.37.8-.34,1.31.33s.75.59,1,0a2,2,0,0,1,.77-1c.13-.08.17-.19.08-.31s-.19-.19-.28-.18c-.6,0-1.36.45-1.72-.09a3.45,3.45,0,0,1-.42-2.42c0-.41.07-.82.1-1.23.41-.1.79.17,1.24,0a1.06,1.06,0,0,1,1.4.81,5.22,5.22,0,0,0,.39.83.59.59,0,0,0,.27.22,1.31,1.31,0,0,0,1.57-1.4c-.09-.32-.25-.55.14-.74a.94.94,0,0,0,.28-.24c.4-.48.32-.68-.38-.88-.2-.06-.35-.13-.31-.36a.45.45,0,0,1,.51-.41c.48.11,1.08.29,1.05.85,0,.93.55.75,1.06.77H58a14.37,14.37,0,0,0-1.11,2.69,1.83,1.83,0,0,0-1.4,2c.1.85-.84,1.4-.53,2.41.15.5-.76.75-1.42.72a19.6,19.6,0,0,0-2.12-.37c-.91.76-.42,1.79-.48,2.69-.08,1.07,1.34,2.57-1,2.86A2.55,2.55,0,0,1,50,51c-.21.5-.61.54-1.08.44-.76-.5-1.19-1.37-2-1.83a1.84,1.84,0,0,1-.31-.38,3.41,3.41,0,0,1-.36-.86,2,2,0,0,1,0-.9.94.94,0,0,1,.2-.33.5.5,0,0,0-.18-.27L46,46.63A.41.41,0,0,1,45.81,46.38Z"/><path class="cls-104" d="M35.9,22.11a1.19,1.19,0,0,0,.33-1c0-1.16,0-2.3,0-3.45.5,0,1,0,1,.69a1.65,1.65,0,0,0,.51,1.31c.09.07.09.36,0,.49s-.5.44-.53.68.3.49.37.77a5.66,5.66,0,0,1-.35,2.3h0a1.23,1.23,0,0,1-1,.15,2,2,0,0,1-.58-1.48A.66.66,0,0,1,35.9,22.11Z"/><path class="cls-105" d="M56.85,39.75c0-.48.43-1.13-.5-1.26a1.59,1.59,0,0,1,0-.29c.78,0,1.12-.59,1.6-1l.48.17c-.51.75.19,1.06.55,1.5,0,0,0,.11.08.16a.4.4,0,0,1-.08.45,2.85,2.85,0,0,1-1.93.42Z"/><path class="cls-61" d="M48,33.86a1.49,1.49,0,0,1,1,.43c.26.25.57.45.86.68a3.47,3.47,0,0,0-1.39,1.27s-.12,0-.17,0-.12-.1-.11-.13A3.8,3.8,0,0,0,48,33.86Z"/><path class="cls-58" d="M51.33,34.23a5.16,5.16,0,0,1-.21-.49c-.09-.26,0-.55.28-.48a6.46,6.46,0,0,0,1.4-.13c0,.33.06.66.12,1s-.21.43-.49.48C52.15,34.23,51.62,34.58,51.33,34.23Z"/><path class="cls-61" d="M48,30.18a.91.91,0,0,1,.28,1.15A6.42,6.42,0,0,0,48,33.86a1,1,0,0,1-.57-1.46A5.71,5.71,0,0,0,48,30.18Z"/><path class="cls-76" d="M59.06,39.38c0-.12,0-.24,0-.37.72-.31.78-.32.57-1s0-.79.52-.84c0,.24,0,.49,0,.73.39.43-.05,1.06.37,1.47h.36A.47.47,0,0,1,61,40a.63.63,0,0,1-.38.25,2.27,2.27,0,0,1-.88-.28,2,2,0,0,1-.57-.39A1.37,1.37,0,0,1,59.06,39.38Z"/><path class="cls-61" d="M51.33,34.23c.41,0,.84-.06,1.1.37a3.33,3.33,0,0,0-1.2.2c-.48.17-.58-.2-.64-.57Z"/><path class="cls-62" d="M40.53,13.28c-.08.07-.15.19-.23.2s-.2-.1-.12-.24a.28.28,0,0,1,.13-.11C40.45,13.07,40.53,13.13,40.53,13.28Z"/><path class="cls-61" d="M48,29.81v.37C47.77,30.06,47.77,29.94,48,29.81Z"/><path class="cls-61" d="M49.86,35l.36-.37Z"/><path class="cls-49" d="M40.28,120.39l-.36.37Z"/><path class="cls-68" d="M35.13,71c.37.25.4.5,0,.75Z"/><path class="cls-106" d="M33.25,52.31a1.53,1.53,0,0,0,.24,2c.06.08-.06.34-.15.48a4.89,4.89,0,0,1-.46.56c-.23.23-.2.84-.67.67-.23-.09-.37-.57-.45-.9a14.51,14.51,0,0,1-.29-1.75c0-.25.09-.4.39-.49.59-.18.59-.23.11-.6-.15-.11-.32-.18-.26-.4a1.3,1.3,0,0,1,.58-.88c.19-.1.4-.08.48.09C33,51.46,33.08,51.87,33.25,52.31Z"/><path class="cls-107" d="M35.1,47.49c-.34-.12-.68-.22-1-.37s-.44-.46-.21-.72c.43-.49.56-1.23,1.24-1.5l0,0a2,2,0,0,1,0,2.57Z"/><path class="cls-108" d="M33.67,31.28A9.28,9.28,0,0,0,33.29,28a1.69,1.69,0,0,0,.6-.88c.44-1,.66-2-.55-2.64A.77.77,0,0,1,33,24a.92.92,0,0,1,0-.52c.07-.19.25-.21.45-.19.6.07,1.23.05,1.32.9a.12.12,0,0,0,.23,0,1,1,0,0,0,.08-.34c0-.12,0-.24,0-.37a.37.37,0,0,1,.51.07,6.59,6.59,0,0,1,.29,4c-.18,1.71-.1,3.4-.17,5.1-.11.3-.27.52-.63.47a.68.68,0,0,0-.73-.76.33.33,0,0,1-.43.07C33.8,32.09,33.83,31.66,33.67,31.28Z"/><path class="cls-109" d="M35.13,33.15l.36-.4a.63.63,0,0,1,.9.08c.73,2.07.41,4.22.34,6.32-.08,3,.29,6.08-.48,9.07,0,.24,0,.48-.07.72a.64.64,0,0,1-.68-.67.91.91,0,0,0-.36-.78c0-.86,0-1.71,0-2.57a1.37,1.37,0,0,0,0-1.87.89.89,0,0,1-.31-.4,1.82,1.82,0,0,1-.07-.77,1,1,0,0,1,.38-.65c.18-.22.07-.44.05-.68a17.47,17.47,0,0,1,.09-3.82,4,4,0,0,0-.08-2.5A3.19,3.19,0,0,1,35.13,33.15Z"/><path class="cls-110" d="M35.12,42.69l0,.36c-.68.68-1.48.29-2.21.36-.11-.5-.19-.91-.29-1.31a.76.76,0,0,1,.22-.83c.52-.41.39-1,.42-1.52a.85.85,0,0,1,.74-.37c.07.09.22.18.22.26a1.67,1.67,0,0,0,.51,1.24l.39.35,0,.74A.48.48,0,0,0,35.12,42.69Z"/><path class="cls-69" d="M34,39.38a.75.75,0,0,1-.74.37c-.58-.35-.61-.38-.92,0-.15.19-.26.28-.4.09a.62.62,0,0,1-.06-.5c.17-.45.67-.5,1-.76a.64.64,0,0,0,.31-.61c-.13-.92,0-1.25.4-1.64a.36.36,0,0,1,.15-.1.59.59,0,0,1,.35,0,.37.37,0,0,1,.12.3,17.6,17.6,0,0,1-.44,1.77C33.67,38.75,33.9,39.05,34,39.38Z"/><path class="cls-111" d="M34,32.39h.38a5.16,5.16,0,0,1,.22,2.12c-.2.75-.46,1.16-1.24,1.12-.27,0-.4-.24-.3-.53s.14-.33.21-.5h0c.45-.55-.06-1.29.36-1.84,0-.13,0-.25,0-.37S33.9,32.21,34,32.39Z"/><path class="cls-112" d="M73,55.19c.13-.28.24-.53-.07-.79a14.17,14.17,0,0,1-1-1c.25-.16.49-.44.76-.48.63-.09.79-.41.73-1a2.18,2.18,0,0,1,.4-1.2c.1-.21.25-.47.52-.41a1.24,1.24,0,0,1,.57.4.77.77,0,0,1,.14.5c0,.4.25.59.58.47a1,1,0,0,1,1.26.41c.41.44,1.23.51,1.08,1.45,0,.33.45.49.82.6s.19.47.14.73c-.25.34-.51.68-.73,1a1,1,0,0,1-.74.45H76.36a1.2,1.2,0,0,1-1.17.3,2,2,0,0,1-.46-.18C74.23,56,73.51,55.74,73,55.19Z"/><path class="cls-83" d="M80.05,46.75a2.3,2.3,0,0,0,.45.56,2.08,2.08,0,0,1,1,2,1.24,1.24,0,0,0-.87-.13,1.09,1.09,0,0,1-.69,0c-1-.46-1.94-.95-2.9-1.44a.37.37,0,0,1-.16-.47.45.45,0,0,1,.54-.34.53.53,0,0,1,.18.05A1.74,1.74,0,0,0,80.05,46.75Z"/><path class="cls-76" d="M63.48,42v.37c.13.12.24.25.37.36h.36c.74.43.43,1,.16,1.5s-1.09.39-1.56.74c-1.33-1.34-1-2.73-.13-4.13C63.53,40.79,63.49,41.39,63.48,42Z"/><path class="cls-63" d="M63.48,42c-.47-.22-.27-.88-.73-1.11a.7.7,0,0,1-.28-.55,1.19,1.19,0,0,1,.11-.41l.17-.14a5.71,5.71,0,0,1,2,1.2c.21.22.52.42.36.75a.82.82,0,0,1-.93.41Z"/><path class="cls-63" d="M60.9,40.12v-.73c.58-.19.82-.9,1.49-1,.11.47,0,1,.36,1.36h0a2.6,2.6,0,0,1-.65.53,1.91,1.91,0,0,1-.41.11,1.05,1.05,0,0,1-.63-.12Z"/><path class="cls-63" d="M64.21,44.17c0-.49.4-1,0-1.47.86.09.85.09.94,1a2.27,2.27,0,0,0,.17.5c-.58-.07-.71.53-1.11.74A.51.51,0,0,1,64.21,44.17Z"/><path class="cls-63" d="M60.54,39.38c-.55-.38-.32-1-.37-1.47C60.7,38.3,60.48,38.87,60.54,39.38Z"/><path class="cls-112" d="M72,53.37,71.58,53Z"/><path class="cls-63" d="M63.85,42.69l-.37-.36Z"/><path class="cls-113" d="M74.91,56.31l1.45,0c.07.27.31.69-.17.69a4,4,0,0,0-1.85.63,28.77,28.77,0,0,1-2.85,1.08c-.18.07-.4.09-.48-.1a1,1,0,0,1,.06-.51c0-.12.09-.23.13-.35a.86.86,0,0,1,.37-.73c.49-.37-.26,1.26.72.41A8,8,0,0,1,74.91,56.31Z"/><path class="cls-114" d="M48.75,51.17c.41,0,.84.06,1.11-.37.9-.59,1.47-.46,1.57.72.07.77.62,1.43.49,2.28-.17,1.13,1.14.91,1.53,1.54,0,.08.06.17.09.24l-.21.87c0,.19,0,.41.14.47.81.25.84.88.82,1.56,0,.23,0,.53.34.5a.65.65,0,0,0,.67-.49c0-.23-.06-.47,0-.7s.26-.34.5-.36c1.14,1,.89,1.86-.1,2.74-.11.13-.23.24-.35.36l-.18.18c-.83,1.1-2.24,1.79-2.41,3.37-.5,1.66-2,2.62-2.86,4a6.5,6.5,0,0,1-.46.61A.82.82,0,0,1,49,69a1.2,1.2,0,0,1-.49-.14,1.11,1.11,0,0,1-.61-1.07c.86-3.43-.61-6.91.24-10.32.16-.62-.21-.7-.62-.89a2.47,2.47,0,0,1-1.36-3.49,2.18,2.18,0,0,1,.24-.42,1.8,1.8,0,0,1,.81-.39.94.94,0,0,0,.56-.53,1.76,1.76,0,0,1,.23-.37C48.2,51.16,48.43,50.94,48.75,51.17Z"/><path class="cls-115" d="M64.21,44.17v.74c-.36.21-.34.6-.46.93a.57.57,0,0,0,.25.78c.58.31.53.72.23,1.19a6.14,6.14,0,0,0-.49.76c-.07.14.54-.08.61,0,.17.27-.26.58-.06.44a1.3,1.3,0,0,1,.15-.1c.11,0,.25-.1.33-.06a.32.32,0,0,1,.11.47,5.28,5.28,0,0,0-.67,2.19A2.88,2.88,0,0,1,66.8,53c.15.21.4.39.61.2.5-.45.86-.2,1.26.13.08.07.23,0,.35.07.53,1.42-.08,1.94-1.46,1.85a10.44,10.44,0,0,1-3.71,3.67c-1.17-.28-.87-1.2-.67-1.87s-.38-.12-.43-.32c-.29-.67-.35-.71-.66-.44a1.58,1.58,0,0,0-.22.29c-.16.19-.35.37-.6.31s-.35-.45-.36-.75,0-.85,0-1.27c-.25-.49.23-.94.09-1.42-.79-1.64.75-1.15,1.5-1.58a4.6,4.6,0,0,0-1.15-2.32c-1-.82-.78-1.57-.27-2.46a1.49,1.49,0,0,1,.12-.46,1.73,1.73,0,0,1,.31-.35,2.42,2.42,0,0,1,.39-.21,2.82,2.82,0,0,0,.74-.36,3.33,3.33,0,0,0,.25-.28,3.37,3.37,0,0,0,.19-.32c0-.06-.66-.87-.64-.93,0-.3.72.2,1.14.21A2.25,2.25,0,0,0,64.21,44.17Z"/><path class="cls-116" d="M60.53,56c-.07.16-.13.46-.2.46-.89,0-1.71.13-1.92,1.23,0,0-.23.12-.31.08s-.38-.17-.41-.29c-.08-.36-.06-.73-.11-1.09,0-.16-.08-.43-.18-.46-.91-.27-.81-1.31-1.45-1.85-.55.55-1.15,1-.8,2,0,.11-.1.35-.22.45s-.46.08-.61-.14a1.82,1.82,0,0,0-.78-.75h0c-1.18-1.23-1.27-2.49-.26-3.65a4.35,4.35,0,0,1,1-.71c.82-.53.84,1,1.6.53a1.82,1.82,0,0,1,2,.31c.58,1.06,1.65,1.85,1.83,3.16l.37.36C60.3,55.7,60.4,55.85,60.53,56Z"/><path class="cls-89" d="M52.43,64.05c0-.55-.42-1.2.44-1.52.36-.13.53-.47.72-.78A3.76,3.76,0,0,1,55,60.37a.9.9,0,0,1,.25.93c-.06.26-.34.4-.37.7.17-.15.25-.36.43-.48a2.4,2.4,0,0,1,.37-.28,4.6,4.6,0,0,0,.78-.52c.46-.29.86-.83,1.49-.33a2.24,2.24,0,0,1,.36,1.09h0a1.1,1.1,0,0,1,.74,1.1h0C57.1,64.21,55,65,52.43,64.05Z"/><path class="cls-117" d="M55,61.48V60.37h0a4.17,4.17,0,0,0,.36-.37,4.2,4.2,0,0,1,.54-.7c.4-.36.36-.64,0-1-.17-.18-.11-.56-.16-.85.41-.16.37-.77,1-.85a4.7,4.7,0,0,0,1.85,2.66c.47.34.43.49-.15.89a3.5,3.5,0,0,1-.47.25c-.64-.06-1,.52-1.47.73-.2.22-.55.14-.74.37h0A.52.52,0,0,1,55,61.48Z"/><path class="cls-118" d="M59.8,55.22a.71.71,0,0,1-.73-.81c0-.61-.16-1-.88-1-.39,0-.28-.22-.14-.44s0-.44-.09-.66l.19-.15c1-.34,2-.49,2.54.81.15.35.67.2,1,.45.07.65-.54,1-.74,1.47l-.32-.14C60,54.51,60,54.52,59.8,55.22Z"/><path class="cls-119" d="M62.75,56.71c.17-.25.33-.49.5-.76a.17.17,0,0,1,.22.17c0,.43,0,.85,0,1.27s-.14,1.1.37,1.51a1.52,1.52,0,0,1,0,1.83h-.36c-.26-.23-.68-.3-.74-.73a.8.8,0,0,1-.08-.16c-.18-.51-1-.49-1-1.17s.55-.77.7-1.23c.13-.12.23-.26.36-.38S62.75,56.82,62.75,56.71Z"/><path class="cls-77" d="M62.75,60a1.39,1.39,0,0,1,.74.73,5.74,5.74,0,0,1-.71,0c-.29,0-.67.56-.84,0-.1-.34.21-.66.63-.72Z"/><path class="cls-115" d="M62.74,57.06l-.36.38Z"/><path class="cls-118" d="M60.53,56l-.36-.37Z"/><path class="cls-120" d="M74.91,56.31a1.9,1.9,0,0,1-1.66,1.15,3.39,3.39,0,0,0-.83.28c-.72.26-.72.26-.85-.7,0-.29,0-.58,0-.87.07-.82.07-.82,1.07-.92a6.5,6.5,0,0,1,2.22,1.06Z"/><path class="cls-121" d="M67.56,55.23A1.62,1.62,0,0,0,69,53.38a2.43,2.43,0,0,1,.68.18c.47.3,1.37.31,1.27,1-.07.45-.91.41-1.38.64a6.36,6.36,0,0,0-.59.37h-.18l-.18,0C68.25,55.57,67.81,55.67,67.56,55.23Z"/><path class="cls-113" d="M74.9,56.31a4.38,4.38,0,0,1-2.22-1.06l.36-.06A1.86,1.86,0,0,1,74.9,56.31Z"/><path class="cls-27" d="M70.38,56.76c.18,0,.34.14.27.35s-.46.27-.73.32-.21,0-.16-.18S70,56.72,70.38,56.76Z"/><path class="cls-27" d="M69,55.59s.15.06.15.08-.09.09-.15-.08Z"/><path class="cls-122" d="M35.5,23.54h-.37c0-.36,0-.73,0-1.1,0-.54,0-1.09,0-1.63a4.38,4.38,0,0,1,.12-2.3A1,1,0,0,0,35.3,18c-.28-1.27.32-2.48.22-3.73a.74.74,0,0,1,.32-.62l.06,8.48c0,.11,0,.23,0,.35C36.18,23,36,23.3,35.5,23.54Z"/><path class="cls-81" d="M32.92,18.77v.36a.78.78,0,0,1-.74-.36h0a2.45,2.45,0,0,0,.36-.36h0Z"/><path class="cls-70" d="M34,32.39h-.36a1,1,0,0,0-.29-.64c-.14-.13-.59,0-.39-.36.07-.13.45-.08.69-.11C34.09,31.55,34,32,34,32.39Z"/><path class="cls-70" d="M33.65,32.76c-.07.62.24,1.32-.36,1.84C33.37,34,33.05,33.28,33.65,32.76Z"/><path class="cls-82" d="M32.55,18.4l-.36.36Z"/><path class="cls-95" d="M37.32,55.25v.67a.93.93,0,0,0,0,1.14c.06.08.19.18.17.25a.76.76,0,0,0,.56.88c.57.3,1,.66.75,1.43a13.12,13.12,0,0,1-1.34,3.07c-.59,0-.86-.49-1.23-.84V54.49c.42-.24.52.16.72.36h0A4.36,4.36,0,0,1,37.32,55.25Z"/><path class="cls-123" d="M36.25,61.85a1.12,1.12,0,0,1,1.09.73,1.6,1.6,0,0,1,.27.25,2,2,0,0,1,.23.52.43.43,0,0,1-.15.33c-.62.85-.33,1.86-.43,2.8,0,.24,0,.48,0,.73a.37.37,0,0,1-.34.36c-.1,0-.21-.11-.3-.19a4.64,4.64,0,0,1-.39-.38C36.25,65.29,36.25,63.57,36.25,61.85Z"/><path class="cls-124" d="M36.24,74.74c1,.16,1.07.23,1.09.83,0,.3,0,.66-.25.82a2.63,2.63,0,0,1-.86.18C36.23,76,36.24,75.35,36.24,74.74Z"/><path class="cls-50" d="M38.44,52.27l-.77,1.52c-.5,0-.87-.61-1.42-.42v-.73a1,1,0,0,0,1.41-.08A2.31,2.31,0,0,1,38.44,52.27Z"/><path class="cls-50" d="M37,54.85l-.72-.36c0-.25,0-.49,0-.74A1.09,1.09,0,0,1,37,54.85Z"/><path class="cls-125" d="M52.43,64.05c.61-.3,1.25-.6,1.87-.1A1.24,1.24,0,0,0,56,63.81a1.94,1.94,0,0,1,1.3-.5c.71,0,1.09-.78,1.81-.73,0,.24,0,.54-.08.71a2.48,2.48,0,0,0-.67,1.63,10.47,10.47,0,0,1-.19,1.25c0,.12,0,.3-.09.33-.88.4-1.46,1.3-2.43,1.48a1,1,0,0,0-.74.38c-.57.7-1.18,1.39-1.8,2a2,2,0,0,1-.65.28,2.11,2.11,0,0,1-.35,0c-1-.56-1.72.18-2.57.37l-.36,0c-.8.08-.67-.51-.54-.91s.36-.87.53-1.31v-.37c.14-.11.24-.25.37-.37a4.62,4.62,0,0,1,1-1.51A10.41,10.41,0,0,0,52.43,64.05Z"/><path class="cls-88" d="M53.17,71.41l-.37-.36Z"/><path class="cls-126" d="M37,29.44a1.28,1.28,0,0,1,.08-.35.24.24,0,0,1,.43,0,3.41,3.41,0,0,1,.73,2.2c-.06.63.09.95.77.86a.46.46,0,0,1,.53.37,10.54,10.54,0,0,1,.31,1.23c.17,1,.31,2,.46,3.05-.33.17-.76.44-.6.8A2.09,2.09,0,0,1,39,40.18c.38.64,1,1.07.81,1.84a.58.58,0,0,1-.36.36c-.22.06-.26-.17-.29-.34s0-.24-.07-.36a.38.38,0,0,0-.09-.15c0-.05-.11-.11-.14-.1s-.29.08-.3.14c-.22,1.35-.74,2.67,0,4.06a3.71,3.71,0,0,1,.18,1.77c0,.59-.51.78-1,.82a.24.24,0,0,1-.37,0,.23.23,0,0,1-.09-.24c0-.08.06-.13.09-.13v-.36a6.92,6.92,0,0,0-.52-3.39,3.83,3.83,0,0,1-.12-2,57.35,57.35,0,0,0-.1-11.57A1.32,1.32,0,0,1,37,29.44Z"/><path class="cls-127" d="M37,30.54a3.41,3.41,0,0,1,.37,2.12c0,.54-.28,1.17-.08,1.6s-.19,1,0,1.51a9.22,9.22,0,0,1,.27,1.6c.13.65-.24,1.28-.22,2A8.82,8.82,0,0,1,37,42.76a1.94,1.94,0,0,0,.46,1.71,2.69,2.69,0,0,1-.16,3c-.22-.29-.48-.37-.67,0s-.14.57-.42.74A8.17,8.17,0,0,0,36,45.86a.82.82,0,0,1-.06-.53,13.16,13.16,0,0,0,.16-3.25c.22-3.11,0-6.22.06-9.32-.34-.8-.84-1.59,0-2.4A.87.87,0,0,1,37,30.54Z"/><path class="cls-50" d="M38.81,51.54a.75.75,0,0,1-.37.73A.75.75,0,0,1,38.81,51.54Z"/><path class="cls-127" d="M37.34,47.85v.37C37.09,48.1,37.09,48,37.34,47.85Z"/><path class="cls-127" d="M37.34,48.22h.37C37.58,48.47,37.46,48.47,37.34,48.22Z"/><path class="cls-97" d="M38.09,74a.93.93,0,0,1-.35.76c0-.91,0-1.82-.13-2.71s.3-1.68,0-2.51.32-1.68.1-2.59a11.77,11.77,0,0,1,0-2.52c.58-.51-.43-1.58.67-1.91,1,.76,2.54,1.2,1.9,3a4.65,4.65,0,0,0-1.08,2.58,1,1,0,0,0,.19,1c.67.64,0,1.06-.2,1.56l-.74,2.21c.1.08.13.16.09.23s-.08.11-.12.11A.77.77,0,0,0,38.09,74Z"/><path class="cls-128" d="M40.28,65.53c0-.49,0-1-.46-1.3a5.48,5.48,0,0,1-1.38-1.65c0-.07,0-.15,0-.22A7.52,7.52,0,0,1,38.48,61c.14-.35.15-.77.44-1.06a1.37,1.37,0,0,1,.38-.29l.23-.05a1.22,1.22,0,0,1,.71.78c.09.39,0,.89.58,1,.09,0,.18.29.19.45A5.44,5.44,0,0,0,41.3,64a.76.76,0,0,1-.19.84C40.85,65.09,40.56,65.3,40.28,65.53Z"/><path class="cls-129" d="M39.18,60c-.12.37-.24.74-.37,1.11-.49.4-.19,1-.37,1.47h0a1,1,0,0,0-.37.92,1,1,0,0,1-.36.93c0-.25,0-.5,0-.75v-.35a2.55,2.55,0,0,0-.35-.38v-.37c.63-.37-.07-.88.14-1.32s.93-.5.69-1.16a.37.37,0,0,1,.08-.35c.66-.61.13-1.07-.18-1.57h.35c1,.07,1,.07,1.11,1.09,0,.12,0,.23,0,.35h0C39.41,59.74,39.31,59.89,39.18,60Z"/><path class="cls-50" d="M37.34,57.06c-.46-.53-.46-.54,0-1.14C37.32,56.3,37.33,56.68,37.34,57.06Z"/><path class="cls-50" d="M37.32,55.25l-.35-.4Z"/><path class="cls-130" d="M48,51.54v.36c-.24.19-.16.54-.37.74H46.54c-.18,0-.22.08-.12.23s.09.14.12.14a4.2,4.2,0,0,1-.17.7,1.4,1.4,0,0,0,.2,1.69c.41.42.74,1,1.51.77.15-.05.35,0,.52.11a.49.49,0,0,1,.34.71,8.87,8.87,0,0,1-.62.89.45.45,0,0,0,.07.64c.43.46.15.77-.22,1s-.21.36.1.46.6.43.38.68a1.09,1.09,0,0,0-.1,1.46,1.47,1.47,0,0,1-.06,1.57,1.67,1.67,0,0,0-.08,1.67c.26.76.62,1.5-.19,2.17-.08.06,0,.35,0,.49a5.58,5.58,0,0,0,.49.77v.25a2.08,2.08,0,0,1-.11.48,2.44,2.44,0,0,0-.25,1.85c-.4.52-1,.31-1.48.37a1.85,1.85,0,0,1-.44-.32c-.36-.5-.38-.86.09-1.07a1.08,1.08,0,0,0,.73-1.11c0-.65.39-1.27.06-2a1.07,1.07,0,0,1,.26-1.19c.43-.45.28-.83,0-1.29a2.15,2.15,0,0,1-.29-2.08A2.27,2.27,0,0,0,47,60.69c-.17-.27-.34-.51-.13-.82a2.49,2.49,0,0,0-.39-3.17,7,7,0,0,1-1-2.15,2.6,2.6,0,0,1,.06-1.8c.2-.5.55-1,0-1.5a.37.37,0,0,1,0-.34c.54-1.19-.14-2.25-.36-3.36-.57-.46-.17-1-.17-1.54l.74.37h.36c.12.14.25.24.37.37a.23.23,0,0,1,.09.24c0,.09-.06.13-.09.13v1.1c-.24.43.09.57.37.74v.37C47.39,50,48.66,50.29,48,51.54Z"/><path class="cls-89" d="M48.39,71.42c-.38-.07-.75-.15-.57-.68s.37-1,.56-1.53a4.31,4.31,0,0,0,.37-.37h.37c.09.28.56.36.46.7-.06.19-.34.31-.52.47-.42.38-.34.73.07,1A.81.81,0,0,1,48.39,71.42Z"/><path class="cls-89" d="M49.49,71a3.06,3.06,0,0,1,1.75-.86c.46-.14.65.16.82.49C51.19,70.66,50.39,71.18,49.49,71Z"/><path class="cls-96" d="M38.42,73.24l0-.34c.08.06.2.11.24.2s0,.19,0,.29Z"/><path class="cls-59" d="M52.1,27.35c.08.08.2.15.2.24s-.1.2-.24.12a.31.31,0,0,1-.11-.14C51.89,27.44,52,27.36,52.1,27.35Z"/><path class="cls-58" d="M60.54,28.23a.33.33,0,0,1-.16.07.79.79,0,0,1-.82-.56.31.31,0,0,1,0-.16s.11-.09.13-.08c.29.19.58.39.86.6C60.58,28.11,60.55,28.19,60.54,28.23Z"/><path class="cls-58" d="M52.8,32.76c-.29-.09-.58-.16-.86-.26l-.67-.26A5.15,5.15,0,0,0,50,33.8a.36.36,0,0,1-.46.17.83.83,0,0,1-.35-.39.81.81,0,0,1,0-.53A2.88,2.88,0,0,0,49.55,31a.46.46,0,0,1,.41-.52.63.63,0,0,1,.46.2,2.42,2.42,0,0,0,2.75.84,2,2,0,0,1,.55,0c0,.71-.84.72-.92,1.29Z"/><path class="cls-131" d="M37,30.54l-.71,0c-.73-.76-.45-1.69-.38-2.56.11-1.35-.23-2.74.37-4h1.09c-.1.33-.67.41-.34,1,.41.78-.06,1.74.23,2.61.12.37-.33.61-.48.93a.69.69,0,0,0,.23,1C37,29.81,37,30.17,37,30.54Z"/><path class="cls-101" d="M40.06,24.55s.13,0,.13.05a.49.49,0,0,1,0,.16s-.13,0-.13-.05A.58.58,0,0,1,40.06,24.55Z"/><path class="cls-105" d="M51.33,44.17c.11-.15.33-.32.43-.2.55.62,1.32.51,2,.69a.69.69,0,0,0,.67-.13.88.88,0,0,0,.28-.44c0-.22-.19-.25-.36-.29a2.15,2.15,0,0,1-.51-.15c-.07,0-.08-.2-.09-.31s.07-.11.12-.12a1.09,1.09,0,0,1,.36,0,.63.63,0,0,0,.74-.62C55,42,55,41.49,55,41c.06-.82.27-1,1.1-1.18a5.93,5.93,0,0,1,.73,0h0a6.66,6.66,0,0,0,1.87.36c.7.18,1.25.51.46,1.28a1.82,1.82,0,0,1-.52.08c-.48,0-.94.12-1,.63a2.76,2.76,0,0,1-.94,1.9c-.46.51.17.54.39.75.23,1.28.77,2.53.32,3.86a2.23,2.23,0,0,1-.46.46c-.35.31.08.35.19.5a.65.65,0,0,1,.14.42,1.38,1.38,0,0,1-.38.62c-.13.11-.26.22-.4.32-.64.51-1.15.24-1.51-.35A1.46,1.46,0,0,0,53,50c-.44.19-.81.1-.82-.32C52.2,47.76,51.08,46.08,51.33,44.17Z"/><path class="cls-118" d="M51.33,44.17a5.13,5.13,0,0,1,.72,2.32c0,.3,0,.69.2.87.58.59.39,1.2.21,1.85a1.88,1.88,0,0,0,.08.61l1.16-.93c.33.19.1.58.35.85.45-.09.38-.69.75-.86a1,1,0,0,1,.49.88c0,.18-.06.4,0,.52a1.46,1.46,0,0,0,.64.57c.11,0,.35-.27.53-.42.75.42,1.79.58,1.48,1.84h0c-.47-.11-.93-.26-1.41-.34s-.72.12-.68.61c0,.14,0,.27-.17.26s-.2-.13-.25-.22,0-.24-.09-.35c-.27-.66-.91-.89-1.4-.47a3.21,3.21,0,0,0-1,2.75c0,.39.62.58.58,1.07a3.38,3.38,0,0,0-1.56-.4c-.44,0-.63-.32-.63-.73a2.9,2.9,0,0,1,.1-.88.79.79,0,0,0-.18-1A1,1,0,0,1,51,51.16c.11-.16-.07-.32-.27-.34s-.6,0-.9,0c-.45-.32-.43-.8-.48-1.25.28-.22.47,0,.68.06s.56.4.8,0a.69.69,0,0,0,0-.85c-.63-.6-.1-1.56-.73-2.15a.55.55,0,0,1,.18-.44c.7-.38.37-.73,0-1.09a1.82,1.82,0,0,1-.2-.38Z"/><path class="cls-102" d="M48,51.54c-.12-.64-.24-1.26-1-1.49-.43-.13-.17-.47-.11-.72a2.13,2.13,0,0,1,1.84,1.84Z"/><path class="cls-102" d="M46.91,49c-.22,0-.47.29-.64,0s0-.58.27-.76C46.67,48.47,46.79,48.71,46.91,49Z"/><path class="cls-102" d="M46.54,46.75c-.12-.13-.24-.25-.37-.37Z"/><path class="cls-102" d="M46.54,47.12v-.37C46.79,46.87,46.79,47,46.54,47.12Z"/><path class="cls-99" d="M36.24,23.92q0,3.3,0,6.6c0,.16-.19.34-.15.47a4.41,4.41,0,0,1,.07,1.77h-.68c-.05-.7-.58-1.35-.11-2.1a.84.84,0,0,0,0-.69,2.47,2.47,0,0,1,0-1.4A15.24,15.24,0,0,0,35.55,25c0-.49,0-1,0-1.45l.39-1.08C36.37,22.86,36.15,23.43,36.24,23.92Z"/><path class="cls-132" d="M58.69,41.23a1.29,1.29,0,0,0,.35-.1c.09-.06.2-.17.2-.26a.33.33,0,0,0-.18-.27c-.41-.06-.83-.09-1.24-.13a1.13,1.13,0,0,1-1-.71c.47-.33,1.13,0,1.58-.52.07-.08.41.09.62.14h0c.19.24.54.15.74.37a.79.79,0,0,1,.74.37,7.32,7.32,0,0,0,1.13.86,2,2,0,0,1,.35.36c.6,1.34-.14,2.59-.36,3.86a1.2,1.2,0,0,1-1.53.95c-1-.29-2.15-.35-2.91-1.24a5.77,5.77,0,0,1-.72,0c-.33,0-.81.14-.9-.35s.43-.33.62-.53.32-.91.94-1c.21,0,0-.26,0-.41a1.71,1.71,0,0,1,.25-1.21,1.08,1.08,0,0,1,.54-.44A.61.61,0,0,1,58.69,41.23Z"/><path class="cls-118" d="M57.22,44.91c.83.35,1.77.25,2.58.81s1.5-.14,1.53-1.07a1.28,1.28,0,0,1,.19-.87,2.1,2.1,0,0,0,.12-2.56h0a1,1,0,0,1-1.1-1.1h.36a.48.48,0,0,0,.74,0H62a.5.5,0,0,1,.73,0c0,.25,0,.49,0,.73-.1.71-.17,1.42-.31,2.11a2,2,0,0,0,.67,1.95h0a.5.5,0,0,1,0,.73c-.35.27-.76.45-1.1.74h-.37c-.12.13-.25.24-.37.37a.73.73,0,0,1-1,.46s-.22-.27-.18,0c.28,1.51-1.1,1.31-1.81,1.81a1.28,1.28,0,0,1-.47.18c-.34,0-.75,0-.57-.57a1.32,1.32,0,0,0,0-1.22A3.23,3.23,0,0,1,57.22,44.91Z"/><path class="cls-105" d="M59.8,39.75a.75.75,0,0,1-.74-.37A.79.79,0,0,1,59.8,39.75Z"/><path class="cls-70" d="M35.12,42.69q-.55-.36,0-.72Z"/><path class="cls-76" d="M62.74,40.12H62a.72.72,0,0,1,.73-.36Z"/><path class="cls-76" d="M61.64,40.12c-.25.38-.49.38-.74,0Z"/><path class="cls-102" d="M47.65,52.64A.75.75,0,0,1,48,51.9.78.78,0,0,1,47.65,52.64Z"/><path class="cls-102" d="M46.54,53c-.1-.11-.29-.23-.28-.34,0-.27.17-.16.28,0Z"/><path class="cls-125" d="M55.37,60l-.36.37Z"/><path class="cls-89" d="M49.49,68.1c-.12.13-.25.25-.37.37C49.24,68.35,49.37,68.23,49.49,68.1Z"/><path class="cls-76" d="M57.22,48.59A.76.76,0,0,0,58,49c.49.36.22,1,.48,1.44a1.49,1.49,0,0,1,0-1c.1-.13.1-.37.36-.32-.1-.11-.18-.09-.25.07A.47.47,0,0,1,58,49c0-.41.23-.74.68-.72.86,0,1.23-.33,1.17-1.2,0-.34.19-.38.45-.17s.68,0,1-.12c.16.25.32.51.48.79,0,.44-.44.28-.66.43s-.42.53-.05.65c1,.31,1,1.32,1.51,1.93-.13.64.4,1,.71,1.39-1,.62-1,.63-1.79.6-.18,0-.4-.09-.38.17s.21.26.32.39l.23.28c-.66,0-1.32.1-1.6-.79a.62.62,0,0,0-1-.27c-.33.24-.69-.1-1,0A2.58,2.58,0,0,0,56.9,51c-.18-.1-.28-.35-.42-.53h.37l.37-.37V49.7c-.2-.21-.6-.32-.37-.74C57,48.83,57.1,48.71,57.22,48.59Z"/><path class="cls-76" d="M62,46.38a1.12,1.12,0,0,1,1.1-.74A1.1,1.1,0,0,1,62,46.38Z"/><path class="cls-76" d="M63.11,45.64v-.73C63.49,45.15,63.49,45.4,63.11,45.64Z"/><path class="cls-76" d="M61.27,46.75l.37-.37Z"/><polygon class="cls-76" points="64.22 51.53 64.13 51.69 64.06 51.62 64.22 51.53"/><path class="cls-125" d="M55,61.48h.74c-.51.32-.47.86-.55,1.36,0,.11-.26.24-.41.25a.3.3,0,0,1-.31-.35C54.6,62.3,54.55,61.78,55,61.48Z"/><path class="cls-125" d="M55.75,61.48a.76.76,0,0,1,.74-.37A.79.79,0,0,1,55.75,61.48Z"/><path class="cls-75" d="M58.32,61.48c0,.05-.06.14-.08.14s-.09-.08.08-.14Z"/><path class="cls-95" d="M37.34,63c.12.12.23.25.35.38C37.57,63.2,37.46,63.07,37.34,63Z"/><path class="cls-97" d="M38.44,62.58c-.37-.9-.37-.9.37-1.47C38.76,61.62,39,62.19,38.44,62.58Z"/><path class="cls-92" d="M39.18,60l.36-.38Z"/><path class="cls-114" d="M48.75,68.84c-.12.12-.24.25-.37.37C48.51,69.09,48.63,69,48.75,68.84Z"/><path class="cls-118" d="M53.32,46.79c.11,0,.27,0,.32.11a4.12,4.12,0,0,1,.38.79c0,.07-.07.22-.14.29a.35.35,0,0,1-.49.06,1.15,1.15,0,0,1-.46-.94C52.94,46.91,53.12,46.82,53.32,46.79Z"/><path class="cls-118" d="M56.85,49c.12.24.25.49.37.74-.31,0-.61,0-.91-.05s-.37-.1-.36-.33A.34.34,0,0,1,56.3,49,5.09,5.09,0,0,1,56.85,49Z"/><path class="cls-118" d="M57.22,50.06l-.37.37Z"/><polygon class="cls-105" points="58.69 41.23 58.61 41.38 58.54 41.31 58.69 41.23"/><path class="cls-76" d="M62.28,44.93l-.14.09c0-.11-.09-.21-.12-.31s0-.24.13-.08A1,1,0,0,1,62.28,44.93Z"/><path class="cls-76" d="M61.64,41.22a1.09,1.09,0,0,1,.08-.14c.13,0,.1.08-.08.14Z"/><polygon class="cls-76" points="62.01 44.54 61.85 44.45 61.92 44.39 62.01 44.54"/><path class="cls-118" d="M58.69,49a5.21,5.21,0,0,0,.15,1.76c.09.21.21.5-.15.51a.75.75,0,0,1-.58-.34A5,5,0,0,1,58,49Z"/><polygon class="cls-118" points="58.69 48.96 58.78 48.8 58.84 48.87 58.69 48.96"/></svg>