<svg id="Layer_1" data-name="Layer 1" xmlns="http://www.w3.org/2000/svg" viewBox="0 0 128 128"><defs><style>.cls-1{fill:#ddded7;}.cls-1,.cls-3{fill-rule:evenodd;}.cls-2{fill:#b2c4c1;}.cls-3{fill:#4f471a;}</style></defs><path class="cls-1" d="M45.11,52.63c-.51-.07-.85-.35-.74-.86a32,32,0,0,0,.84-3.55,6,6,0,0,1,2.89-4.41c.85-.64,1.37-.6,2.3.13.27.21.56.38.84.57l-.08-.1c.47,1.23,1.05,2.37,2.48,2.75l2.06,2.62c.55.69,1,1.42,1.65,2.06a4.72,4.72,0,0,0,1.09.66l.21.25a2.75,2.75,0,0,0,1.92,2.42l.22.19a2.06,2.06,0,0,0,1.13,2l-.09-.11c.14.48.27,1,.4,1.45L58.1,60.86c-.32.18-.53.42-.38.82-.71,0-.71,0-.9.63l.85-.69a7.58,7.58,0,0,0,2.21-.75,5.13,5.13,0,0,1,4.46-.77,1.78,1.78,0,0,0-.2.45c0,.08.13.18.2.26a1,1,0,0,1,0-.24,3.42,3.42,0,0,1,0-.46c-.59-.36-.7-.85-.12-1.21,2.32-1.41,4.66-2.77,7-4.13a1.21,1.21,0,0,1,1.65.24c.24.26.51.48.76.71l-.07-.1.86,1.15.21.28.66,1.32.42.46c.29.38.57.76.85,1.15a3.62,3.62,0,0,1,.2.33l.87,1.27c.06.08.14.17.2.26.22.45.44.89.65,1.34.15.15.3.3.44.46l.58,1.15-.07-.08,0,1c0,.07-.06.14-.08.2a.39.39,0,0,0,0,.15l.06-.43.71,1c-.57,1.55-1.15,3-1.66,4.52a18.3,18.3,0,0,0-1.15,5.69c0,2.4-.33,4.78-.58,7.17a14,14,0,0,1-.61,2.2l-2.66,1.06-5-6.46c0,1.73,1.06,2.59,1.83,3.63s1.46,2.2,2.2,3.34l-2.24,3.34c-4.11.79-6.31,0-7.83-2.76a4.42,4.42,0,0,1,2.62,0l1.24.26,0-.35-1.33.15c-.13-.2-.21-.52-.39-.58a3.83,3.83,0,0,0-1.29-.24q-5.59,0-11.19.05a13.46,13.46,0,0,0-1.34.29c3.69.43,6.82.07,10.09.32a11.15,11.15,0,0,0,4.61,4.1c1.65.69,3.49.29,5.32.23l2.5-3.25a21.77,21.77,0,0,1,4.41,4.54c.69.81,1.23,1.74,1.94,2.53a9.12,9.12,0,0,0,1.67,1.14c-1.17-2.74-3-5.11-6.65-8.81a4.06,4.06,0,0,1,1-.66,12.44,12.44,0,0,1,1.83-.28A6.52,6.52,0,0,0,79,87.54c1.46-.62,2.87-1.34,4.31-2a11.31,11.31,0,0,0,3.42-2.49,7.43,7.43,0,0,1,4.77-2.52c0,.55-.09,1.11-.13,1.66.46.19.93.36,1.38.58.15.07.22.27.36.37a4.42,4.42,0,0,0,.7.31c-.69-1.16-1.28-1.88-2.45-1.27a1.16,1.16,0,0,0,.08-1.6c-.18-.68.24-1,.75-1.21,1.22-.5,2.46-1,3.73-1.46.21.53.46,1.19.74,1.84a2.65,2.65,0,0,0,1.78,1.48,3.73,3.73,0,0,0,4.39-1.47c.5-.62,1-1.21,1.64-2,.59.61,1.14,1.17,1.68,1.74,1.86,2,3.85,3.91,4.69,6.66.27.91,1.12,1.59,1.23,2.62a7.32,7.32,0,0,1-2.35,1.72c-2.09,1.34-4.29,2.51-5.94,4.46a5.36,5.36,0,0,1-2.16,1.51,27.66,27.66,0,0,0-5.06,2.93c-1,.63-1.92,1.29-2.88,1.93-2,1.38-4.2,2.6-6,4.71a17.56,17.56,0,0,0-1.06-1.64,13.42,13.42,0,0,0-1.33-1.18,4.69,4.69,0,0,0-.57,1.26,12.69,12.69,0,0,0,.17,2,13.72,13.72,0,0,0-4,0,16.15,16.15,0,0,1-3.69.19,27.73,27.73,0,0,0-4,.17c-4.51.83-9,.23-13.66.5-.58-.71-1.16-1.36-1.66-2.08-1.46-2.12-3-4.18-4.32-6.4-3-5.28-7.46-9.5-10.8-14.53a7.63,7.63,0,0,0-.85-1,36.47,36.47,0,0,1-5.5-7.83,2.28,2.28,0,0,0-.26-.46c-3.26-4.13-5.59-8.85-8.54-13.18-1.59-2.33-3.56-4.42-5.3-6.65-2.56-3.28-5.3-6.39-7.42-10A48.93,48.93,0,0,0,7.42,34.91a19.39,19.39,0,0,1-1.36-1.64c0-.06,0-.18,0-.43a5.7,5.7,0,0,1,1.17,0c5.45,1.28,10.88,2.62,16.35,3.83a35.25,35.25,0,0,0,6.06.77,10.12,10.12,0,0,0,5.52-1.71,18.69,18.69,0,0,1,3.38-1.54c1.59-.56,3.14-1.22,4.71-1.85.32-.13.65-.28,1-.39l10.14-3.25L62.72,26c.34-.11.67-.24,1-.34a3,3,0,0,1,3,.61,17.46,17.46,0,0,1,3.2,3.17l8.25,11.8a5.38,5.38,0,0,1,.35.85l-4.1,1.6A26.65,26.65,0,0,1,69,42.2a17.64,17.64,0,0,0-4.85-1.39c-1-.07-.95-.16-1.74-1.83a32.05,32.05,0,0,1,4-1.89c1.37-.56,2.36-1.89,4.16-1.86-1.32-.71-1.32-.71-2.23-.25l-4.5,2.29c-.23.12-.48.22-.72.34-1.09.56-2.05.55-2.78-.57a.73.73,0,0,0-.73-.45c.18.42.37.83.62,1.41a43.69,43.69,0,0,1-5,1.66,11.49,11.49,0,0,0-3,1,16,16,0,0,1-2.48.94c-1.2-.75-1,.78-1.65,1-.83.29-1.64.65-2.54,1l.66.4A19,19,0,0,0,45,46.17a17.82,17.82,0,0,0-.61,2.31c-.22.86-.45,1.71-.72,2.78a5.89,5.89,0,0,1-1.14-.68c-1.12-1.13-2.2-2.32-3.32-3.47a14.33,14.33,0,0,1-4.24-7.25,8.21,8.21,0,0,0-.43-1.18c-.73-.06-.91.37-.8.82.34,1.46.77,2.9,1.19,4.43-.19.1-.47.35-.61.29-1.42-.64-2.92-.37-4.39-.47s-2.83-.45-4.23-.43a3.25,3.25,0,0,1-3.26-1.82L20.59,38c-.64,0-.55.46-.43.76.5,1.31,1,2.61,1.62,4L18.22,43a6.45,6.45,0,0,0,.9.25c4.43.27,3.87.7,5.81,3.36,2.41,3.3,4.66,6.72,7,10.07a4.73,4.73,0,0,1,1.2,3.41c-.15,1.11.65,1.54,1.69,2.1-.86.17-1.47.31-2.08.44,0,.11,0,.23,0,.34l3,.21L39.36,68a3.38,3.38,0,0,0,.59.2c1.42.16,8.2,2.68,9.11,3.45a4.94,4.94,0,0,1,1.7,2.63A18.7,18.7,0,0,0,52,77.54a5.93,5.93,0,0,0,1.19,1.73,14.64,14.64,0,0,1,3.25,4.83c.2.46.48.89.91,1.68a4.47,4.47,0,0,0,0-1.11,17.26,17.26,0,0,0-3.1-5.85A10.37,10.37,0,0,1,52.6,75.5l1.54-.33c-.65-.38-1.19-.54-1.46-.9s-.26-1-.51-1.43a10.36,10.36,0,0,0-2.6-3.31l.06.07L49,68.43l.07.1-.6-1.17.08.1c-.56-.82-1.12-1.64-1.67-2.47l-.21-.22L45.3,63l-.21-.36-.87-1.15.08.11c0-.48,0-1-.61-1.18l.08.11c0-.49,0-1-.61-1.18l.08.11a3.2,3.2,0,0,0-1.69-2.24l.09.11a2,2,0,0,0-1.15-1.72l.09.1c-.28-.63-.57-1.26-.85-1.87,1.06-.71,1.91.33,2.75.17l2.62-1.4a2.9,2.9,0,0,0-.16.47c0,.08.12.17.19.26,0-.09,0-.17,0-.25S45.1,52.78,45.11,52.63Zm38.87,48c0,.17,0,.33-.08.5,0-.16.07-.33.1-.49a1.31,1.31,0,0,1-.21-.08c-.14-.1-.28-.2-.41-.31,0,.08,0,.21,0,.22A5.69,5.69,0,0,0,84,100.64ZM60.36,82.79c.13.39.27.79.41,1.18l.35-.16c-.28-.32-.55-.65-.82-1-.27-.62-.43-1.33-1.32-1.41C59.37,82,59.52,82.74,60.36,82.79Zm12.75-13.2a8.2,8.2,0,0,0-2.74.57c-2.22,1.41-4.42,2.84-6.76,4-.32.17-.71.57-.18,1.08a4.6,4.6,0,0,0,1.2-.5,37.72,37.72,0,0,1,7.29-4.25,5.93,5.93,0,0,0,1.14-1c.52,0,1-.11,1.07-.75C73.63,68.88,73.11,68.91,73.11,69.59ZM97.59,90.92a24.42,24.42,0,0,1-2.85,1.32A12.34,12.34,0,0,0,91.46,94c-.64.44-1.21,1.1-2.13.83A9.06,9.06,0,0,1,85.9,96c-.18,0-.29.34-.54.66a10.13,10.13,0,0,0,1.74.1c1.64-.17,3.23-.3,4.57-1.57a10.77,10.77,0,0,1,3.73-2.49,3.81,3.81,0,0,0,2.13-1.88l2.54-.17c.27-1-.58-.89-1-1.1ZM48,57.32a5.4,5.4,0,0,0-.24-.92c-.07-.15-.33-.21-.51-.31l-.18.24,1,.94a10,10,0,0,0,.93,1.88c1.17,1.55,2.43,3,3.67,4.55a20.73,20.73,0,0,0,1.76,2c1.81,1.71,3.65,3.38,5.5,5,.35.32.57.93,1.25.76,0-.15.05-.37,0-.45q-2.64-2.62-5.31-5.23c-.63-.62-1.34-1.17-1.91-1.84-1.76-2.1-3.47-4.26-5.23-6.37C48.51,57.43,48.19,57.41,48,57.32Zm13.7,42.75c-.06.23-.23.5-.16.69A13.72,13.72,0,0,0,65,105.68c.06.07.35,0,.47-.08a.63.63,0,0,0,.2-.45,1.58,1.58,0,0,0-.2-.75c-1.07-1.41-2.16-2.8-3.27-4.19C62.13,100.11,61.9,100.13,61.66,100.07Zm11.25,1.21c-.13-.81-.08-1.36-.26-1.46-1.07-.57-1.29-2-2.82-2.57a27.45,27.45,0,0,0,1.38,3C71.44,100.64,72.06,100.79,72.91,101.28Zm-4.1-1.56a1,1,0,0,0,0-.14H64.67v.14ZM60.1,97.18c-.09-.14-.15-.37-.27-.41s-.58-.12-.67,0a6.66,6.66,0,0,0-.81,1.29c-.05.1.06.34.16.45s.33.23.45.19A1.56,1.56,0,0,0,60.1,97.18Zm-1.71-22-.09-.34L56.17,75v.19ZM69,96.64c-.14-.75.19-1.8-1-1.83ZM47.78,40.5c.25-.61-.13-.85-.58-1C47,40.05,47.33,40.29,47.78,40.5Zm-31.57,2,0,.14.19-.07ZM67.43,79.77h.12l-.06-.16Zm27.71,5.58-.06.22.29,0a.94.94,0,0,0-.06-.24S95.2,85.36,95.14,85.35ZM65.36,62.47l-.1.18.15,0ZM86.83,92.63a.55.55,0,0,0-.14-.19s-.11.07-.17.11l.24.29C86.78,92.77,86.81,92.7,86.83,92.63Zm1.36,1.23s-.11-.16-.12-.16a1.45,1.45,0,0,0-.29.19A.58.58,0,0,0,88,94,.62.62,0,0,0,88.19,93.86ZM46.13,38.26l.09-.16-.14,0ZM60.51,100c.07,0,.16-.07.18-.13a.69.69,0,0,0,0-.24l-.29.16C60.42,99.9,60.47,100,60.51,100Z"/><path class="cls-1" d="M104.78,64.83c1.21.18,1.2.19,1.75.92,1.6,2.12,3.34,4.15,4.8,6.37a51.94,51.94,0,0,1,4,6,41,41,0,0,0,2.54,4.06,6.64,6.64,0,0,1,.73,1.11c1.38,3.5,3.75,6.4,5.81,9.48a4.87,4.87,0,0,1,.36.91c-.31.32-.59.82-1,1-1.92.91-3.87,1.76-5.82,2.61a16.06,16.06,0,0,0-1.71.69c-1.89,1.15-3.75,2.36-5.63,3.52a11.18,11.18,0,0,1-1.64.87c-.65.27-1.33.46-2,.69a15.32,15.32,0,0,1-2.37-3.1,38.76,38.76,0,0,1,4.4-3.54c1.14-.69,2.19-1.5,3.29-2.25.65-.45,1.33-.85,2-1.32a12.4,12.4,0,0,0,1.59-1.38,1.2,1.2,0,0,0,0-1.69c-1.62-2.32-3.21-4.66-4.85-7-1.34-1.87-2.73-3.71-4.11-5.56a1.59,1.59,0,0,0-.52-.59c-1.7-.76-2.19-2.46-3.11-3.71.28-2,2.42-2.06,3.28-3.54-.83-.43-1.52.31-2.37.27.25-1.69.48-3.31.72-4.93Zm6.8,30.78c-.21.45-.45.75-.39.87.57,1,1.21,1.53,3.16,2.36A12,12,0,0,0,111.58,95.61Zm6-9.91a4,4,0,0,0-2.62.08.52.52,0,0,0-.2.43.51.51,0,0,0,.25.39A2,2,0,0,0,117.59,85.7Z"/><path class="cls-1" d="M104.79,64.76a20,20,0,0,0-2.57,6.3c-1.46-1.18-5.45-6.49-7.37-9.83l3-2c0-.08-.07-.17-.11-.26L94.6,60.3a46.94,46.94,0,0,1-5.76-8,11.35,11.35,0,0,1,5.51-.07c-.61-.47-.92-.88-1.31-1A16.4,16.4,0,0,0,90.41,51c-1,0-1.94,0-2.93,0C81.63,43.65,76.42,35.94,70.9,28.07l4.38-.52L76.93,30,75,31.33c.4.16.64.36.8.3.65-.23,1.28-.53,2-.85a36.6,36.6,0,0,1,5.42,5.76c1.2,1.43,2.44,2.81,3.68,4.21a11.88,11.88,0,0,1,.92,1c4.31,6,9.31,11.45,13.17,17.76a3.29,3.29,0,0,1,.22.61c-1,.48-2.27-.52-3.17.5,0,.58.5.38.76.38a5.4,5.4,0,0,1,4.56,2.32c.43.55.92,1,1.39,1.57C104.78,64.83,104.79,64.76,104.79,64.76Z"/><path class="cls-1" d="M89.57,79.12a2.55,2.55,0,0,1-1.18,1.37c-1.15.82-2.24,1.71-3.36,2.58a5.66,5.66,0,0,1-.85.63c-2,.93-4,1.84-6.1,2.81-.44-1,.08-1.85,0-2.69a14.62,14.62,0,0,1,.06-2.38,35.32,35.32,0,0,0,.35-4c-.13-3,1.11-5.7,1.9-8.49a1.17,1.17,0,0,1,1.67-.84l0,.06a2.39,2.39,0,0,0,1.13,1.91l-.08-.1,1.15,1.7-.08-.1a2,2,0,0,0,1.4,1.68l.21.32a2,2,0,0,0,1.4,1.82l1,1.54c.42.77.31,1.88,1.41,2.22Z"/><path class="cls-2" d="M97.93,68.56c.69,1.44,2.1,2.89,3.83,2.42a2.17,2.17,0,0,0,1.19-.87,1.27,1.27,0,0,0,.38-.47,16.33,16.33,0,0,0,1.51-5.94,1.62,1.62,0,0,0-2.17-1.43c-1.91-4-3.92-7.39-8-9.65-2.37-1.34-6.6-2.86-7.74.6-2-2.72-4.16-5.4-6.1-8.2l-.16-.21a2.76,2.76,0,0,0-3.29-1,9.82,9.82,0,0,1-5.71.24c-2-.41-3.78-1.52-5.78-2-.4-.09-.81-.13-1.23-.19-.06.43-.09.69-.12.95l-.08-.1,0,.07a3.63,3.63,0,0,0-2.79-1.08,9.83,9.83,0,0,1-1.53-.3,9.44,9.44,0,0,0-3.13-.06,12.67,12.67,0,0,1-3.66.38,4.09,4.09,0,0,0-2.84.88l0,0a1.43,1.43,0,0,0-.9.23A5.34,5.34,0,0,0,48,44.56c-.51.33-1,.67-1.13.75a5.6,5.6,0,0,0-1.32,2.95,27,27,0,0,1-1.15,4.92c-.62,1.4-4.22.86-5-.12a1.09,1.09,0,0,0-1.55-.28,2.69,2.69,0,0,0-1.54-1.12c-1.79,1.16-2,2.88-2.26,4.67-.25,2,.81,3.55,1.78,5.13a.53.53,0,0,0,.46.19c.92-.25,1,.53,1.19,1,.14.29,0,.79.15,1A20.86,20.86,0,0,0,41.38,67c2.33,1.39,5,2.09,7.55,3.08a.56.56,0,0,0,.47-.1.76.76,0,0,0,.09-.18,1.55,1.55,0,0,0,.2.85,22.63,22.63,0,0,0,2.44,3.66c.64,1.8.92,3.79,1.8,5.52,1.75,3.4,4.48,7.07,7.89,8.94,2.58,1.42,5,3.75,8.15,3.09,1.8-.38,2.37-2.18,3.18-3.68A1.85,1.85,0,0,0,75.24,88c2.79-2.68,2.53-7.51,2.09-11-.06-.47-.14-.93-.22-1.39a1.67,1.67,0,0,0,.89-1c1-3.31,1.49-6.58,2.86-9.7a11.75,11.75,0,0,1,.89-1.3,4.69,4.69,0,0,1,4.14-2c1.32.1,2.65,0,4.09,0,.64,1,1.33,1.87,1.88,2.87a3.3,3.3,0,0,1,.47,1.74c-.09,1.59-.32,3.16-.5,4.74a10.89,10.89,0,0,0,.94,6.82c1.53-.28,2.58-1.53,4-2a14.23,14.23,0,0,1,4.78-1.1c-1.22,1.85-3.45,1-4.51,2.38.64,3,1.09,3.35,4.06,3a7.88,7.88,0,0,0,2.19-3.73c-1.09-1.52-2.18-3.12-3.35-4.66-1.54-2-3.07-4-4.55-6.1a6,6,0,0,0,1,.16C96.94,66.63,97.46,67.57,97.93,68.56Z"/><path class="cls-1" d="M88.26,77l-1-1.54c-.47-.61-.94-1.21-1.4-1.82l-.21-.32-1.4-1.68.08.1L83.18,70l.08.1c-.38-.63-.75-1.27-1.13-1.91l0-.06a1.93,1.93,0,0,1,0-2.8A12.37,12.37,0,0,0,83.26,64c.84-1.23.87-1.24,1.86.05a1.22,1.22,0,0,0-.43-.28c-.08,0-.2.15-.31.23a1,1,0,0,0,.23.05c.17,0,.33,0,.49,0,.72-1.14,1.93-1.16,3.05-1.2a2.1,2.1,0,0,1,1.31.74c1.41,1.56,2.43,3.42,1.91,5.52a20.34,20.34,0,0,0,.16,9.12c-.37.94-1.13,1-2,.94l.1.09C89.34,78.38,89.28,77.38,88.26,77Z"/><path class="cls-1" d="M35.68,49.21c0,.52.16,1.2-.11,1.52A15.37,15.37,0,0,0,33,56.2a116.07,116.07,0,0,1-8.3-11.9A5.47,5.47,0,0,1,28,44a10.71,10.71,0,0,0,2.35.36,3.43,3.43,0,0,1,3.28,1.76L33.55,46a2.33,2.33,0,0,0,1.15,1.7l-.08-.11a2.19,2.19,0,0,0,1.15,1.71Z"/><path class="cls-1" d="M110.41,93c-.17.91-1,1.23-1.62,1.59-3.2,1.77-5.94,4.18-8.86,6.33a7.57,7.57,0,0,1-.81.69c-2.64,1.41-4.56,3.63-6.56,5.77a6.2,6.2,0,0,1-.7.57,7.11,7.11,0,0,1-.87-1c-.51-.82-.46-1.32.21-1.86s1.29-.94,1.94-1.39c3.43-2.37,6.83-4.8,10.31-7.09,2-1.31,4.15-2.38,6.24-3.54.21-.11.51,0,.77,0Z"/><path class="cls-1" d="M33.63,46.1c0-.52-.12-1.11.66-1.18a2.16,2.16,0,0,1,1.93.6c2,2.1,4.11,4.15,6.15,6.23a5.38,5.38,0,0,1,.6.88,2.09,2.09,0,0,1-2.55-.2c-1.59-1-3.55-1.59-4.74-3.22l.09.11a2.22,2.22,0,0,0-1.15-1.71l.08.11A2.31,2.31,0,0,0,33.55,46Z"/><path class="cls-1" d="M96.91,107.15c0-.25-.2-.64-.1-.73,2-1.79,3.75-4,6.06-5.47a1,1,0,0,1,.25-.06c1.24.69,1.25.69,2.24,2.63-.91.24-1.81.43-2.67.73a20.15,20.15,0,0,0-2.67,1.13c-1.08.55-2.35.79-3.14,1.83Z"/><path class="cls-1" d="M57.6,40.09c2.57-1.42,3.37-1.35,4.54.3-.11.11-.22.34-.31.32C60.45,40.53,59.08,40.32,57.6,40.09Z"/><path class="cls-1" d="M113.48,91.08l-.38.07c0-.07,0-.17.06-.19a1.35,1.35,0,0,1,.34-.11C113.5,90.93,113.48,91,113.48,91.08Z"/><path class="cls-1" d="M110.46,93.05a1.76,1.76,0,0,1,.82-.88c.06.71-.24.93-.87.83Z"/><path class="cls-1" d="M96.88,107.21l-.28-.2.31.14Z"/><path class="cls-3" d="M88.54,108a11.82,11.82,0,0,0-1.59.35c-2.67,1-5.31.75-8,.15a13.67,13.67,0,0,0-5-.17c-3.91.6-7.81.35-11.71.37H58.76c-.44-.52-.82-.89-1.11-1.32-2.24-3.41-4.4-6.87-6.7-10.25C49.5,95,47.87,93,46.33,91c-4.51-6-9.66-11.61-13.72-18a13.54,13.54,0,0,0-1.48-1.89,75.93,75.93,0,0,1-8.39-11c-2.35-3.78-5.18-7.19-7.74-10.81a57.34,57.34,0,0,1-3.72-5.82,32.77,32.77,0,0,0-4.56-6.21C5,35.28,3.3,33.36,1.6,31.42A3.92,3.92,0,0,1,1,30.53a.89.89,0,0,1,.64-1.24c1.23-.09,2.58-.27,3.61.49,2.69,2,5.86,2.42,9,3,2,.41,4,.92,6,1.29,2.44.46,4.92.74,7.35,1.25A9.4,9.4,0,0,0,34.25,34a39.24,39.24,0,0,1,3.59-1.7c1.55-.66,3.13-1.25,4.7-1.84.92-.34,1.84-.65,2.78-.95.76-.24,1.53-.42,2.3-.66l6.6-2.06c3.23-1,6.47-1.9,9.67-3a2.66,2.66,0,0,1,3.13.7,4.77,4.77,0,0,0,4.32,1.56c1.23-.12,2.47-.17,3.69-.3.91-.1,1.65.15,1.91,1.05a6.08,6.08,0,0,0,1.88,2.53,61,61,0,0,1,6.53,7.38,6.51,6.51,0,0,0,.84,1c2.55,2.27,4.37,5.13,6.47,7.77,1.93,2.44,4,4.78,5.73,7.35l.16.21a102,102,0,0,0,7.94,10.34c2.68,3.19,5.05,6.63,7.5,10a107.92,107.92,0,0,1,6.82,10.77,3.11,3.11,0,0,0,.4.69c2.48,2.5,3.6,5.89,5.68,8.65.72,1,.49,1.71-.64,2-1.46.36-2.73,1.29-4.33,1.25a3.76,3.76,0,0,0-1.68.73,10.07,10.07,0,0,0-1.76,1.19,39.08,39.08,0,0,1-7.18,4.56,20.43,20.43,0,0,1-7,2.53,6.75,6.75,0,0,0-1.52.43A31,31,0,0,0,94,111a3.52,3.52,0,0,1-1.67.67,2.24,2.24,0,0,1-2.58-1.42C89.37,109.56,89,108.88,88.54,108Zm8.34-.82c.79-1,2.06-1.28,3.14-1.83a20.15,20.15,0,0,1,2.67-1.13c.86-.3,1.76-.49,2.67-.73-1-1.94-1-1.94-2.24-2.63a1,1,0,0,0-.25.06c-2.31,1.49-4,3.68-6.06,5.47-.1.09.06.48.1.72L96.6,107Zm13.58-14.16c-.26,0-.56-.07-.77,0-2.09,1.16-4.24,2.23-6.24,3.54-3.48,2.29-6.88,4.72-10.31,7.09-.65.45-1.33.88-1.94,1.39s-.72,1-.21,1.86a7.11,7.11,0,0,0,.87,1,6.2,6.2,0,0,0,.7-.57c2-2.14,3.92-4.36,6.56-5.77a7.57,7.57,0,0,0,.81-.69c2.92-2.15,5.66-4.56,8.86-6.33.66-.36,1.45-.68,1.62-1.59.63.1.93-.12.87-.83A1.76,1.76,0,0,0,110.46,93.05ZM35.68,49.21c1.19,1.63,3.15,2.17,4.74,3.22a2.09,2.09,0,0,0,2.55.2,5.38,5.38,0,0,0-.6-.88c-2-2.08-4.12-4.13-6.15-6.23a2.16,2.16,0,0,0-1.93-.6c-.78.07-.67.66-.66,1.18a3.43,3.43,0,0,0-3.28-1.76A10.71,10.71,0,0,1,28,44a5.47,5.47,0,0,0-3.35.32A116.07,116.07,0,0,0,33,56.2a15.37,15.37,0,0,1,2.62-5.47C35.84,50.41,35.66,49.73,35.68,49.21ZM85.1,64l0,0c-1-1.3-1-1.29-1.87-.06a12.37,12.37,0,0,1-1.13,1.38,1.93,1.93,0,0,0,0,2.8,1.17,1.17,0,0,0-1.67.84c-.79,2.79-2,5.47-1.9,8.49a35.32,35.32,0,0,1-.35,4,14.62,14.62,0,0,0-.06,2.38c.06.84-.46,1.68,0,2.69,2.12-1,4.12-1.88,6.1-2.81a5.66,5.66,0,0,0,.85-.63c1.12-.87,2.21-1.76,3.36-2.58a2.55,2.55,0,0,0,1.18-1.37c.83.07,1.59,0,2-.94a20.34,20.34,0,0,1-.16-9.12c.52-2.1-.5-4-1.91-5.52a2.1,2.1,0,0,0-1.31-.74C87,62.84,85.82,62.86,85.1,64Zm19.67.86c-.46-.53-1-1-1.38-1.58A5.4,5.4,0,0,0,98.83,61c-.26,0-.75.2-.76-.38.9-1,2.17,0,3.17-.5a3.29,3.29,0,0,0-.22-.61c-3.86-6.31-8.86-11.78-13.17-17.76a11.88,11.88,0,0,0-.92-1c-1.24-1.4-2.48-2.78-3.68-4.21a36.6,36.6,0,0,0-5.42-5.76c-.75.32-1.38.62-2,.85-.16.06-.4-.14-.8-.3L76.93,30l-1.65-2.42-4.38.52C76.42,35.94,81.63,43.65,87.48,51c1,0,2,0,2.93,0a16.4,16.4,0,0,1,2.63.27c.39.08.7.49,1.31,1a11.35,11.35,0,0,0-5.51.07,46.94,46.94,0,0,0,5.76,8L97.72,59c0,.09.07.18.11.26l-3,2c1.92,3.34,5.91,8.65,7.37,9.83a20,20,0,0,1,2.57-6.3c-.24,1.62-.47,3.24-.72,4.93.85,0,1.54-.7,2.37-.27-.86,1.48-3,1.52-3.28,3.54.92,1.25,1.41,3,3.11,3.71a1.59,1.59,0,0,1,.52.59c1.38,1.85,2.77,3.69,4.11,5.56,1.64,2.3,3.23,4.64,4.85,7a1.2,1.2,0,0,1,0,1.69,12.4,12.4,0,0,1-1.59,1.38c-.64.47-1.32.87-2,1.32-1.1.75-2.15,1.56-3.29,2.25a38.76,38.76,0,0,0-4.4,3.54,15.32,15.32,0,0,0,2.37,3.1c.69-.23,1.37-.42,2-.69a11.18,11.18,0,0,0,1.64-.87c1.88-1.16,3.74-2.37,5.63-3.52a16.06,16.06,0,0,1,1.71-.69c2-.85,3.9-1.7,5.82-2.61.43-.2.71-.7,1-1a4.87,4.87,0,0,0-.36-.91c-2.06-3.08-4.43-6-5.81-9.48a6.64,6.64,0,0,0-.73-1.11,41,41,0,0,1-2.54-4.06,51.94,51.94,0,0,0-4-6c-1.46-2.22-3.2-4.25-4.8-6.37C106,65,106,65,104.77,64.86ZM64.58,42.92a3.67,3.67,0,0,0-2.84-1.12,9.83,9.83,0,0,1-1.53-.3,9.44,9.44,0,0,0-3.13-.06,12.67,12.67,0,0,1-3.66.38,4.09,4.09,0,0,0-2.84.88c.25.68.46,1.25.66,1.81-.28-.19-.57-.36-.84-.57-.93-.73-1.45-.77-2.3-.13a6,6,0,0,0-2.89,4.41,32,32,0,0,1-.84,3.55c-.11.51.23.79.74.86v0L42.48,54c-.84.16-1.69-.88-2.75-.17.28.61.57,1.24.85,1.87-1.11-.37-1.37-1.54-2.09-2.28s-1.1-1.58-2.1-1.77c-1.79,1.16-2,2.88-2.26,4.67-.25,2,.81,3.55,1.78,5.13a.53.53,0,0,0,.46.19c.92-.25,1,.53,1.19,1,.14.29,0,.79.15,1A20.86,20.86,0,0,0,41.38,67c2.33,1.39,5,2.09,7.55,3.08a.56.56,0,0,0,.47-.1c.11-.11.12-.32.17-.48a10.36,10.36,0,0,1,2.6,3.31c.25.43.22,1,.51,1.43s.81.52,1.46.9l-1.54.33a10.37,10.37,0,0,0,1.67,3.32,17.26,17.26,0,0,1,3.1,5.85,4.47,4.47,0,0,1,0,1.11c-.43-.79-.71-1.22-.91-1.68a14.64,14.64,0,0,0-3.25-4.83A5.93,5.93,0,0,1,52,77.54a18.7,18.7,0,0,1-1.22-3.22,4.94,4.94,0,0,0-1.7-2.63c-.91-.77-7.69-3.29-9.11-3.45a3.38,3.38,0,0,1-.59-.2L35.8,63.18l-3-.21c0-.11,0-.23,0-.34.61-.13,1.22-.27,2.08-.44-1-.56-1.84-1-1.69-2.1a4.73,4.73,0,0,0-1.2-3.41c-2.34-3.35-4.59-6.77-7-10.07C23,44,23.55,43.52,19.12,43.25a6.45,6.45,0,0,1-.9-.25l3.56-.18c-.58-1.42-1.12-2.72-1.62-4-.12-.3-.21-.72.43-.76l1.82,3.47a3.25,3.25,0,0,0,3.26,1.82c1.4,0,2.81.33,4.23.43s3-.17,4.39.47c.14.06.42-.19.61-.29-.42-1.53-.85-3-1.19-4.43-.11-.45.07-.88.8-.82a8.21,8.21,0,0,1,.43,1.18,14.33,14.33,0,0,0,4.24,7.25c1.12,1.15,2.2,2.34,3.32,3.47a5.89,5.89,0,0,0,1.14.68c.27-1.07.5-1.92.72-2.78A17.82,17.82,0,0,1,45,46.17,19,19,0,0,1,46.19,44l-.66-.4c.9-.37,1.71-.73,2.54-1,.63-.22.45-1.75,1.65-1a16,16,0,0,0,2.48-.94,11.49,11.49,0,0,1,3-1,43.69,43.69,0,0,0,5-1.66c-.25-.58-.44-1-.62-1.41a.73.73,0,0,1,.73.45c.73,1.12,1.69,1.13,2.78.57.24-.12.49-.22.72-.34L68.31,35c.91-.46.91-.46,2.23.25-1.8,0-2.79,1.3-4.16,1.86a32.05,32.05,0,0,0-4,1.89c.79,1.67.78,1.76,1.74,1.83A17.64,17.64,0,0,1,69,42.2a26.65,26.65,0,0,0,5.44,1.53l4.1-1.6a5.38,5.38,0,0,0-.35-.85l-8.25-11.8a17.46,17.46,0,0,0-3.2-3.17,3,3,0,0,0-3-.61c-.34.1-.67.23-1,.34l-8.36,2.67L44.22,32c-.34.11-.67.26-1,.39-1.57.63-3.12,1.29-4.71,1.85a18.69,18.69,0,0,0-3.38,1.54,10.12,10.12,0,0,1-5.52,1.71,35.25,35.25,0,0,1-6.06-.77c-5.47-1.21-10.9-2.55-16.35-3.83a5.7,5.7,0,0,0-1.17,0c0,.25,0,.37,0,.43a19.39,19.39,0,0,0,1.36,1.64,48.93,48.93,0,0,1,7.49,10.32c2.12,3.64,4.86,6.75,7.42,10,1.74,2.23,3.71,4.32,5.3,6.65,2.95,4.33,5.28,9,8.54,13.18a2.28,2.28,0,0,1,.26.46,36.47,36.47,0,0,0,5.5,7.83,7.63,7.63,0,0,1,.85,1c3.34,5,7.77,9.25,10.8,14.53,1.28,2.22,2.86,4.28,4.32,6.4.5.72,1.08,1.37,1.66,2.08,4.62-.27,9.15.33,13.66-.5a27.73,27.73,0,0,1,4-.17,16.15,16.15,0,0,0,3.69-.19,13.72,13.72,0,0,1,4,0,12.69,12.69,0,0,1-.17-2,4.69,4.69,0,0,1,.57-1.26,13.42,13.42,0,0,1,1.33,1.18,17.56,17.56,0,0,1,1.06,1.64c1.75-2.11,3.91-3.33,6-4.71,1-.64,1.91-1.3,2.88-1.93a27.66,27.66,0,0,1,5.06-2.93A5.36,5.36,0,0,0,103.74,95c1.65-2,3.85-3.12,5.94-4.46A7.32,7.32,0,0,0,112,88.84c-.11-1-1-1.71-1.23-2.62-.84-2.75-2.83-4.65-4.69-6.66-.54-.57-1.09-1.13-1.68-1.74-.62.74-1.14,1.33-1.64,2a3.73,3.73,0,0,1-4.39,1.47,2.65,2.65,0,0,1-1.78-1.48c-.28-.65-.53-1.31-.74-1.84-1.27.5-2.51,1-3.73,1.46-.51.21-.93.53-.75,1.21l.07-.06a7.49,7.49,0,0,0-4.78,2.53,11.31,11.31,0,0,1-3.42,2.49c-1.44.65-2.85,1.37-4.31,2a6.52,6.52,0,0,1-1.55.23,12.44,12.44,0,0,0-1.83.28,4.06,4.06,0,0,0-1,.66c3.68,3.7,5.48,6.07,6.65,8.81a9.12,9.12,0,0,1-1.67-1.14c-.71-.79-1.25-1.72-1.94-2.53a21.77,21.77,0,0,0-4.41-4.54l-2.5,3.25c-1.83.06-3.67.46-5.32-.23a11.15,11.15,0,0,1-4.61-4.1c-3.27-.25-6.4.11-10.09-.32A13.46,13.46,0,0,1,52,87.62q5.6,0,11.19-.05a3.83,3.83,0,0,1,1.29.24c.18.06.26.38.39.58l0,0a4.31,4.31,0,0,0-2.61,0c1.52,2.76,3.72,3.55,7.83,2.76l2.24-3.34c-.74-1.14-1.42-2.28-2.2-3.34s-1.86-1.9-1.83-3.63l5,6.46,2.66-1.06A14,14,0,0,0,76.7,84c.25-2.39.54-4.77.58-7.17a18.3,18.3,0,0,1,1.15-5.69c.51-1.49,1.09-3,1.66-4.52l-.71-1,0,.07,0-.94,1.18.45c.43-.64.73-1.18,1.12-1.65a4.69,4.69,0,0,1,4.14-2c1.32.1,2.65,0,4.09,0,.64,1,1.33,1.87,1.88,2.87a3.3,3.3,0,0,1,.47,1.74c-.09,1.59-.32,3.16-.5,4.74a10.89,10.89,0,0,0,.94,6.82c1.53-.28,2.58-1.53,4-2a14.23,14.23,0,0,1,4.78-1.1c-1.22,1.85-3.45,1-4.51,2.38.64,3,1.09,3.35,4.06,3a7.88,7.88,0,0,0,2.19-3.73c-1.09-1.52-2.18-3.12-3.35-4.66C97,67.75,94,63.87,91.45,59.7,88.29,54.54,84.31,50,80.87,45l-.16-.21a2.76,2.76,0,0,0-3.29-1,9.82,9.82,0,0,1-5.71.24c-2-.41-3.78-1.52-5.78-2-.4-.09-.81-.13-1.23-.19C64.64,42.4,64.61,42.66,64.58,42.92Zm-7-2.83c1.48.23,2.85.44,4.23.62.09,0,.2-.21.31-.32C61,38.74,60.17,38.67,57.6,40.09Zm55.88,51c0-.08,0-.15,0-.23a1.35,1.35,0,0,0-.34.11s0,.12-.06.19Z"/><path class="cls-3" d="M61.83,57.22l1.21.94c.19,0,.4.07.53,0,2.39-1.32,4.76-2.69,7.17-4a1.38,1.38,0,0,0,.72-1.76,1.81,1.81,0,0,0,2.69.62c1-.55,2-1,3.43-1.59-1.29,1.62-3,1.85-4.33,2.88.13.43.26.91.4,1.39-.25-.23-.52-.45-.76-.71a1.21,1.21,0,0,0-1.65-.24c-2.35,1.36-4.69,2.72-7,4.13-.58.36-.47.85.12,1.21v0a5.17,5.17,0,0,0-4.46.78,7.58,7.58,0,0,1-2.21.75l.06.07c-.16-.41.05-.65.37-.83l4.13-2.19C62.1,58.19,62,57.7,61.83,57.22Z"/><path class="cls-3" d="M48,57.32c.23.09.55.11.68.27,1.76,2.11,3.47,4.27,5.23,6.37.57.67,1.28,1.22,1.91,1.84q2.67,2.61,5.31,5.23c.08.08,0,.3,0,.45-.68.17-.9-.44-1.25-.76-1.85-1.66-3.69-3.33-5.5-5a20.73,20.73,0,0,1-1.76-2c-1.24-1.51-2.5-3-3.67-4.55A10,10,0,0,1,48,57.27Z"/><path class="cls-3" d="M97.53,90.86a3.81,3.81,0,0,1-2.13,1.88,10.77,10.77,0,0,0-3.73,2.49c-1.34,1.27-2.93,1.4-4.57,1.57a10.13,10.13,0,0,1-1.74-.1c.25-.32.36-.61.54-.66a9.06,9.06,0,0,0,3.43-1.26c.92.27,1.49-.39,2.13-.83a12.34,12.34,0,0,1,3.28-1.71,24.42,24.42,0,0,0,2.85-1.32Z"/><path class="cls-3" d="M73.06,69.53a5.93,5.93,0,0,1-1.14,1,37.72,37.72,0,0,0-7.29,4.25,4.6,4.6,0,0,1-1.2.5c-.53-.51-.14-.91.18-1.08,2.34-1.2,4.54-2.63,6.76-4a8.2,8.2,0,0,1,2.74-.57Z"/><path class="cls-3" d="M61.66,100.07c.24.06.47,0,.55.14,1.11,1.39,2.2,2.78,3.27,4.19a1.58,1.58,0,0,1,.2.75.63.63,0,0,1-.2.45c-.12.09-.41.15-.47.08a13.72,13.72,0,0,1-3.51-4.92C61.43,100.57,61.6,100.3,61.66,100.07Z"/><path class="cls-3" d="M72.91,101.28c-.85-.49-1.47-.64-1.7-1a27.45,27.45,0,0,1-1.38-3c1.53.52,1.75,2,2.82,2.57C72.83,99.92,72.78,100.47,72.91,101.28Z"/><path class="cls-3" d="M68.81,99.72H64.67v-.14h4.18A1,1,0,0,1,68.81,99.72Z"/><path class="cls-3" d="M60.1,97.18A1.56,1.56,0,0,1,59,98.7c-.12,0-.34-.08-.45-.19s-.21-.35-.16-.45a6.66,6.66,0,0,1,.81-1.29c.09-.12.46-.06.67,0S60,97,60.1,97.18Z"/><path class="cls-3" d="M97.59,90.92l1.5-1.33c.4.21,1.25.13,1,1.1l-2.54.17Z"/><path class="cls-3" d="M51.16,44.41c1.23.55,1.7,1.78,2.48,2.75C52.21,46.78,51.63,45.64,51.16,44.41Z"/><path class="cls-3" d="M55.7,49.78a4.21,4.21,0,0,1,1.1.63c.6.65,1.1,1.39,1.64,2.09a4.72,4.72,0,0,1-1.09-.66C56.75,51.2,56.25,50.47,55.7,49.78Z"/><path class="cls-3" d="M58.39,75.2H56.17V75l2.13-.15Z"/><path class="cls-3" d="M69,96.64l-1-1.83C69.15,94.84,68.82,95.89,69,96.64Z"/><path class="cls-3" d="M91.32,82.19c1.17-.61,1.76.11,2.45,1.27a4.42,4.42,0,0,1-.7-.31c-.14-.1-.21-.3-.36-.37-.45-.22-.92-.39-1.37-.58Z"/><path class="cls-3" d="M48.58,67.46A3.51,3.51,0,0,1,46.91,65C47.46,65.82,48,66.64,48.58,67.46Z"/><path class="cls-3" d="M43.24,59.46a3.52,3.52,0,0,1-1.69-2.24A3.2,3.2,0,0,1,43.24,59.46Z"/><path class="cls-3" d="M60.36,82.78c-.84,0-1-.8-1.38-1.35.89.08,1.05.79,1.32,1.41Z"/><path class="cls-3" d="M58.65,52.75l1.92,2.42A2.75,2.75,0,0,1,58.65,52.75Z"/><path class="cls-3" d="M48,57.27l-1-.94.18-.24c.18.1.44.16.51.31a5.4,5.4,0,0,1,.24.92Z"/><path class="cls-3" d="M60.79,55.36c.37.66.75,1.32,1.13,2A2.06,2.06,0,0,1,60.79,55.36Z"/><path class="cls-3" d="M57.67,61.62l-.85.69c.19-.65.19-.65.9-.63Z"/><path class="cls-3" d="M41.64,57.33a2,2,0,0,1-1.15-1.72A2,2,0,0,1,41.64,57.33Z"/><path class="cls-3" d="M46.7,64.77A2,2,0,0,1,45.3,63Z"/><path class="cls-3" d="M73.11,69.59c0-.68.52-.71,1-.81-.11.64-.55.75-1.07.75Z"/><path class="cls-3" d="M60.3,82.84c.27.32.54.65.82,1l-.35.16c-.14-.39-.28-.79-.41-1.19Z"/><path class="cls-3" d="M64.91,88.39l1.33-.15,0,.35L65,88.33Z"/><path class="cls-3" d="M47.78,40.5c-.45-.21-.83-.45-.58-1C47.65,39.65,48,39.89,47.78,40.5Z"/><polygon class="cls-3" points="16.21 42.53 16.44 42.6 16.25 42.67 16.21 42.53"/><path class="cls-3" d="M84,100.63a3.92,3.92,0,0,1-.59-.15s0-.14,0-.22c.13.11.27.21.41.31a1.31,1.31,0,0,0,.21.08Z"/><path class="cls-3" d="M74.65,57.05l.66,1.32Z"/><path class="cls-3" d="M78.94,63.64l.58,1.15Z"/><path class="cls-3" d="M79.38,65.58l-.06.43a.39.39,0,0,1,0-.15c0-.06.06-.13.08-.2Z"/><path class="cls-3" d="M49.1,68.53l-.6-1.17Z"/><path class="cls-3" d="M49.63,69.6,49,68.43Z"/><path class="cls-3" d="M75.73,58.83c.29.38.57.76.85,1.15C76.3,59.59,76,59.21,75.73,58.83Z"/><path class="cls-3" d="M43.77,60.53c-.54-.22-.6-.69-.61-1.18C43.73,59.56,43.76,60,43.77,60.53Z"/><path class="cls-3" d="M44.3,61.6c-.54-.22-.55-.71-.61-1.18C44.26,60.62,44.27,61.12,44.3,61.6Z"/><path class="cls-3" d="M64.35,60.11a3.42,3.42,0,0,0,0,.46,1,1,0,0,0,0,.24c-.07-.08-.21-.18-.2-.26a1.78,1.78,0,0,1,.2-.45Z"/><path class="cls-3" d="M76.78,60.31l.87,1.27Z"/><path class="cls-3" d="M45.09,62.64a1.23,1.23,0,0,1-.87-1.15Z"/><polygon class="cls-3" points="67.43 79.77 67.5 79.61 67.55 79.78 67.43 79.77"/><path class="cls-3" d="M91.4,80.59a1.16,1.16,0,0,1-.08,1.6h0c0-.55.07-1.11.12-1.66Z"/><path class="cls-3" d="M95.14,85.35c.06,0,.15,0,.17,0a.94.94,0,0,1,.06.24l-.29,0Z"/><polygon class="cls-3" points="65.36 62.47 65.41 62.69 65.26 62.65 65.36 62.47"/><path class="cls-3" d="M77.85,61.84c.22.45.44.89.65,1.34C78.29,62.73,78.07,62.29,77.85,61.84Z"/><path class="cls-3" d="M86.83,92.63c0,.07,0,.14-.07.21l-.24-.29c.06,0,.15-.13.17-.11A.55.55,0,0,1,86.83,92.63Z"/><path class="cls-3" d="M73.58,55.62l.86,1.15Z"/><path class="cls-3" d="M88.19,93.86A.62.62,0,0,1,88,94a.58.58,0,0,1-.22-.08,1.45,1.45,0,0,1,.29-.19S88.15,93.81,88.19,93.86Z"/><polygon class="cls-3" points="46.13 38.26 46.08 38.08 46.22 38.1 46.13 38.26"/><path class="cls-3" d="M60.51,100c0-.07-.09-.14-.14-.21l.29-.16a.69.69,0,0,1,0,.24C60.67,100,60.58,100,60.51,100Z"/><path class="cls-3" d="M84,100.65c0,.16-.07.33-.1.49,0-.17,0-.33.08-.5Z"/><path class="cls-3" d="M45.11,52.63c0,.15,0,.31,0,.46s0,.16,0,.25c-.07-.09-.19-.18-.19-.26a2.9,2.9,0,0,1,.16-.47Z"/><path class="cls-3" d="M66.41,45a3.48,3.48,0,0,1-1.91-2.23Z"/><path class="cls-3" d="M68.05,47.16a2,2,0,0,1-1.4-1.78Z"/><path class="cls-3" d="M71,52l-.64-1.16Z"/><path class="cls-3" d="M70,50.38l-.7-1.4Z"/><path class="cls-3" d="M69.11,48.77a1.66,1.66,0,0,1-.86-1.4Z"/><path class="cls-3" d="M111.58,95.61a12,12,0,0,1,2.77,3.23c-1.95-.83-2.59-1.31-3.16-2.36C111.13,96.36,111.37,96.06,111.58,95.61Z"/><path class="cls-3" d="M117.59,85.7a2,2,0,0,1-2.57.9.51.51,0,0,1-.25-.39.52.52,0,0,1,.2-.43A4,4,0,0,1,117.59,85.7Z"/><path class="cls-3" d="M88.26,77c1,.39,1.08,1.39,1.41,2.22C88.57,78.87,88.68,77.76,88.26,77Z"/><path class="cls-3" d="M82.13,68.22c.38.64.75,1.28,1.13,1.91A2.39,2.39,0,0,1,82.13,68.22Z"/><path class="cls-3" d="M83.18,70l1.15,1.7Z"/><path class="cls-3" d="M84.25,71.63l1.4,1.68A2,2,0,0,1,84.25,71.63Z"/><path class="cls-3" d="M85.86,73.63c.46.61.93,1.21,1.4,1.82A2,2,0,0,1,85.86,73.63Z"/><path class="cls-3" d="M85.1,64c-.16,0-.32,0-.49,0a1,1,0,0,1-.23-.05c.11-.08.23-.25.31-.23a1.22,1.22,0,0,1,.43.28Z"/><path class="cls-3" d="M33.55,46a2.31,2.31,0,0,1,1.15,1.7A2.33,2.33,0,0,1,33.55,46Z"/><path class="cls-3" d="M34.62,47.61a2.22,2.22,0,0,1,1.15,1.71A2.19,2.19,0,0,1,34.62,47.61Z"/></svg>