<svg id="Layer_1" data-name="Layer 1" xmlns="http://www.w3.org/2000/svg" viewBox="0 0 92.95 124.73"><defs><style>.cls-1{fill:#ead5a0;}.cls-2{fill:#e8bd7e;}.cls-3,.cls-4{fill:#4f471a;}.cls-3{fill-rule:evenodd;}</style></defs><path class="cls-1" d="M103.45,9.4c-3.63-.8-7.19-1.9-10.88-2.52a31.82,31.82,0,0,1-10-3,3.92,3.92,0,0,0-3.39-.15c-1.16.44-2.33.86-3.44,1.4-6,3-12,5.93-18,8.89a3.79,3.79,0,0,0-1.66,1.23c-.17.25-.63.36-1,.46a9.91,9.91,0,0,0-1.57.31,45.56,45.56,0,0,0-5,2.39,54.07,54.07,0,0,1-10,4.47,38,38,0,0,0-6.53,3c-1.82,1-3.62,2.12-5.47,3.11-1.09.58-2.26,1-3.4,1.52-1.35.57-2.73,1.11-4.08,1.69a7.59,7.59,0,0,0-3.46,3.14,52.77,52.77,0,0,1,5.9,9.21c1.68,3.3,3.28,6.65,5,10.08L27.81,54c1.16-.44,2.3-1,3.49-1.31,3.35-1,6.71-1.94,10.09-2.82a35.59,35.59,0,0,0,5.69-2,36.42,36.42,0,0,1,4.37-1.62,60.65,60.65,0,0,0,13.46-5.77c1.53-.91,3.07-1.82,4.67-2.62a29.64,29.64,0,0,1,5.12-2.21A66.07,66.07,0,0,0,85,32.07a1.72,1.72,0,0,1,.43-.16,17.18,17.18,0,0,0,5.69-2.63,21.09,21.09,0,0,1,6.79-3,7.71,7.71,0,0,0,5.33-4.16c1.76-3.64,3.44-7.31,5.14-11a3.43,3.43,0,0,0,.17-.89C106.81,10,105.12,9.76,103.45,9.4Z" transform="translate(-15.63 -3.38)"/><path class="cls-2" d="M90.33,103c.23,2.52.49,5,.68,7.46.12,1.55.19,3.1.22,4.66,0,.31-.24.63-.36.93a2.73,2.73,0,0,1-1.74-1.35,57.31,57.31,0,0,1-6.62-11c-1.24-2.93-2.4-5.9-3.54-8.87a130.4,130.4,0,0,1-5.42-17.34c-1-4.17-1.82-8.36-2.66-12.55-.46-2.28-.8-4.59-1.16-6.89,0-.32-.23-.76.35-1,.12.17.31.32.35.5.73,3.73,1.47,7.47,2.16,11.22q1.25,6.77,3.12,13.39a212.5,212.5,0,0,0,7.14,20.21A56.08,56.08,0,0,0,89.39,114c.25.34.43.87,1.08.68a3.6,3.6,0,0,0,.06-.66q-.63-5.79-1.27-11.59a11.09,11.09,0,0,0-.37-1.59A92.08,92.08,0,0,0,85,89.34c-4.71-11.59-9.22-23.26-13.4-35.05-1.24-3.51-2.74-6.94-4.13-10.39a5.65,5.65,0,0,0-.55-.84l-1.64.73a5.83,5.83,0,0,1-.09,1c-.6,1.84-1.18,3.69-1.84,5.52A8.57,8.57,0,0,0,62.64,54a20.65,20.65,0,0,1-.32,3.38c-.73-.16-.67-.7-.68-1.12,0-.85.14-1.72,0-2.55a6.75,6.75,0,0,1,.47-3.18c.68-2,1.27-4,1.91-6-2.28,0-8.18,2.13-11,4,.19.53.38,1.1.61,1.66.66,1.58,1.39,3.13,2,4.73a43.44,43.44,0,0,1,1.87,7,31.7,31.7,0,0,1,.71,6.92,4.81,4.81,0,0,0,.2,1.61q2.3,6.85,4.67,13.68c.07.21.37.34.83.75,0-1.59-.09-2.8-.13-4,.36,2.16.55,4.33.83,6.48a11.88,11.88,0,0,0,.68,2.7c1.31,3.41,2.63,6.81,4.05,10.18.56,1.32.72,2.89,2,3.83a.55.55,0,0,1,.15.41c-.14,1.58.77,2.81,1.34,4.14a94.53,94.53,0,0,1,3.84,10c.64,2.16,1.23,4.34,1.86,6.5a8.54,8.54,0,0,0,1.18,3,6.82,6.82,0,0,0,3.44-.48c1.62-.55,3.23-1.12,4.86-1.63a33.35,33.35,0,0,1,7.82-1.21,4.64,4.64,0,0,0,2.59-.69c-1.5-7.12-5.16-13.36-7.42-20.12C91,103.6,91,103.12,90.33,103Z" transform="translate(-15.63 -3.38)"/><path class="cls-2" d="M45.89,17.14a16.13,16.13,0,0,1-.35-4.63c1.06,1.13.44,2.8,1.21,4,1.57-.14,1.82-.39,1.46-1.57s-.88-2.49-1.29-3.74a15.72,15.72,0,0,1-.51-2c-.06-.34.11-.57.51-.51a49.84,49.84,0,0,0,2.33,6.72c1.23-.25,1.5-.48,1.32-1.22-.32-1.28-.72-2.53-1.06-3.8,0-.16.05-.36.13-.83,1.27,1.6,1,3.5,2.1,5L52.87,14a15.69,15.69,0,0,0-1.69-3.46C50.6,9.35,50.11,8.14,49.61,7a15.12,15.12,0,0,0-6.34,1.4c-.29,3.46.49,8.74,1.49,9.33Z" transform="translate(-15.63 -3.38)"/><path class="cls-2" d="M55.73,57.89c-1.17-3.08-2.34-6.16-3.55-9.38-.27.26-.53.39-.54.55a2.48,2.48,0,0,0,.16.88q2.56,7.94,5.14,15.87c.07.23.07.64.68.38-.6-2.68-1.21-5.38-1.81-8.08C55.79,58,55.76,58,55.73,57.89Z" transform="translate(-15.63 -3.38)"/><path class="cls-3" d="M57,49.72c-.9-1.13-.9-1.13-.39-2.06Z" transform="translate(-15.63 -3.38)"/><path class="cls-4" d="M33.54,46.92c-1.85-3.65-2.62-7.74-4.27-11.48-.24-.54-.81.23-1.1.49-.6.4-1,1.48-1.83,1.45a1.05,1.05,0,0,1-.66-1.81c2.67-3.21,4.54-3.29,8.08-5.08.11,0,.36.21.5.29a1.32,1.32,0,0,1-.33,1.86,11.71,11.71,0,0,1-2.32,1.27,67.08,67.08,0,0,0,3.92,11.6c.24.56-.38,1.21-.83,1.68S33.7,47.23,33.54,46.92Z" transform="translate(-15.63 -3.38)"/><path class="cls-4" d="M36.69,33.36a1.32,1.32,0,0,1,1.37-1.14c.38.05.54.44.7.8A14.53,14.53,0,0,0,41,38.08c.17-1.63.79-3.81,2.79-3.8a23.61,23.61,0,0,1,4,6.63c.2.58-.85,1.37-1.4,1.15-1.87-1-1.69-3.61-3.4-5a13.68,13.68,0,0,0-.85,4.73,1.49,1.49,0,0,1-1,1c-.22,0-.78.24-.9,0a52.7,52.7,0,0,1-1.92-5.09C37.89,36.22,36.55,34.9,36.69,33.36Z" transform="translate(-15.63 -3.38)"/><path class="cls-4" d="M44.43,28.13a1.71,1.71,0,0,1,2.12-.69c.67.43.51,1.71.2,2.12a1.55,1.55,0,0,1-1.91.35A1.58,1.58,0,0,1,44.43,28.13Zm1.36,4.37a1.47,1.47,0,0,1,1.54-1.26c.49,0,1.19.31,1,.86-.26,1.3.58,2.11.67,3.12.1,1.25,1.21,1.94,1.39,3.15,0,.09,0,.34-.08.38-.6.51-1.42,1-2,.38-.95-1.12-1.26-2.62-1.81-3.88A5.92,5.92,0,0,1,45.79,32.5Z" transform="translate(-15.63 -3.38)"/><path class="cls-4" d="M56.32,27.9a1.23,1.23,0,0,1,.14,1.31c-.83,1.23-3.59-.78-4.83,1.05-.47.72,1,1.3,1.55,1.26a10.7,10.7,0,0,1,4.41.39c.93.34,1.22,1.67,1.1,2.66-.31,2.48-4,5.38-6.56,3.18-.59-.49-.16-1.51.45-1.84s1,.55,1.48.56c1.3.08,2.9-1.3,2.34-2.58-.14-.32-1-.55-1.48-.54-1.8,0-3.7.37-5.09-.82-1.67-1.42.94-5.14,2.71-5.14C53.85,27.37,55.3,27.06,56.32,27.9Z" transform="translate(-15.63 -3.38)"/><path class="cls-4" d="M60.16,23.5c-.12-.94.89-2.24,1.8-1.65,1.42.91,1.13,2.89,2.16,4.26.72.95,1.16,2,2.25,2.53.59-1.82-.13-3.76.37-5.51.76-2.72,3.5-.7,4.87.82.1.22.69.66.78.49.76-2.73-1.91-4.65-2.36-7.27,0-.55.78-1.47,1.38-1.31,1.78.49,2,2.53,2.65,4.06a14.19,14.19,0,0,1,1.07,5,4.57,4.57,0,0,1-.33,1.81c-.84,1.63-2.42.92-3.52,0a16.8,16.8,0,0,0-2.5-1.85c-.5,2.34.56,6.36-2.69,7A13.13,13.13,0,0,1,60.16,23.5Z" transform="translate(-15.63 -3.38)"/><path class="cls-4" d="M82.82,25.68c-1.72.41-3.49,1.29-5,.18a3.31,3.31,0,0,1-1.18-3.24c.74-3.26,4.25-3.89,4.27-4,.06-.41-.25-1.48-.78-1.35-1.46.29-2,1.26-3,2.19-.76.71-1.77-1-1.66-1.31,1.14-1.82,4.22-3.93,6.16-2.25,1.74,1.51,1.5,3.9,2.27,6.07.51,1.41,1.69,4.46.09,4.17C83.41,26.09,83.14,25.54,82.82,25.68Zm-1.6-5.29c-1.09,1.07-3.53,1.69-2.72,3.65.41,1,3.8.1,3.8-.41C82,22.39,82.24,21.37,81.22,20.39Z" transform="translate(-15.63 -3.38)"/><path class="cls-4" d="M82.24,13.85a1.31,1.31,0,0,1,2-.89c1,.89,1.19,2.41,2,3.64.26.29.34-.15.4-.31,0-1.74-.24-3.6.75-5,.42-.56,1.92-1,1.83.27-.18,2.71-.88,5.57.09,8.32a14,14,0,0,1,0,6.59C89,27.84,87.05,28.82,86,28c-.63-.52-1.38-1.38-.82-2.16.42-.59,1.43-.36,1.83.24,1-1.91.63-2.18.19-4.27-.29-1.33-1.77-1.89-2.37-2.94s-1.36-2.19-2-3.38C82.53,14.93,82.05,14.33,82.24,13.85Z" transform="translate(-15.63 -3.38)"/></svg>